<svg width="275" height="50" viewBox="0 0 275 50" fill="none" xmlns="http://www.w3.org/2000/svg">
<rect width="275" height="50" rx="3" fill="#057CC3"/>
<path d="M72.656 25.69H69.254V29.182H66.878V25.69H63.476V23.494H66.878V20.002H69.254V23.494H72.656V25.69ZM87.364 28.606H82.36L81.532 31H78.886L83.404 18.418H86.338L90.856 31H88.192L87.364 28.606ZM86.68 26.59L84.862 21.334L83.044 26.59H86.68ZM91.8967 25.978C91.8967 24.97 92.0947 24.076 92.4907 23.296C92.8987 22.516 93.4507 21.916 94.1467 21.496C94.8427 21.076 95.6167 20.866 96.4687 20.866C97.1167 20.866 97.7347 21.01 98.3227 21.298C98.9107 21.574 99.3787 21.946 99.7267 22.414V17.68H102.283V31H99.7267V29.524C99.4147 30.016 98.9767 30.412 98.4127 30.712C97.8487 31.012 97.1947 31.162 96.4507 31.162C95.6107 31.162 94.8427 30.946 94.1467 30.514C93.4507 30.082 92.8987 29.476 92.4907 28.696C92.0947 27.904 91.8967 26.998 91.8967 25.978ZM99.7447 26.014C99.7447 25.402 99.6247 24.88 99.3847 24.448C99.1447 24.004 98.8207 23.668 98.4127 23.44C98.0047 23.2 97.5667 23.08 97.0987 23.08C96.6307 23.08 96.1987 23.194 95.8027 23.422C95.4067 23.65 95.0827 23.986 94.8307 24.43C94.5907 24.862 94.4707 25.378 94.4707 25.978C94.4707 26.578 94.5907 27.106 94.8307 27.562C95.0827 28.006 95.4067 28.348 95.8027 28.588C96.2107 28.828 96.6427 28.948 97.0987 28.948C97.5667 28.948 98.0047 28.834 98.4127 28.606C98.8207 28.366 99.1447 28.03 99.3847 27.598C99.6247 27.154 99.7447 26.626 99.7447 26.014ZM104.096 25.978C104.096 24.97 104.294 24.076 104.69 23.296C105.098 22.516 105.65 21.916 106.346 21.496C107.042 21.076 107.816 20.866 108.668 20.866C109.316 20.866 109.934 21.01 110.522 21.298C111.11 21.574 111.578 21.946 111.926 22.414V17.68H114.482V31H111.926V29.524C111.614 30.016 111.176 30.412 110.612 30.712C110.048 31.012 109.394 31.162 108.65 31.162C107.81 31.162 107.042 30.946 106.346 30.514C105.65 30.082 105.098 29.476 104.69 28.696C104.294 27.904 104.096 26.998 104.096 25.978ZM111.944 26.014C111.944 25.402 111.824 24.88 111.584 24.448C111.344 24.004 111.02 23.668 110.612 23.44C110.204 23.2 109.766 23.08 109.298 23.08C108.83 23.08 108.398 23.194 108.002 23.422C107.606 23.65 107.282 23.986 107.03 24.43C106.79 24.862 106.67 25.378 106.67 25.978C106.67 26.578 106.79 27.106 107.03 27.562C107.282 28.006 107.606 28.348 108.002 28.588C108.41 28.828 108.842 28.948 109.298 28.948C109.766 28.948 110.204 28.834 110.612 28.606C111.02 28.366 111.344 28.03 111.584 27.598C111.824 27.154 111.944 26.626 111.944 26.014ZM131.978 31H129.458L123.752 22.378V31H121.232V18.418H123.752L129.458 27.058V18.418H131.978V31ZM143.739 25.798C143.739 26.158 143.715 26.482 143.667 26.77H136.377C136.437 27.49 136.689 28.054 137.133 28.462C137.577 28.87 138.123 29.074 138.771 29.074C139.707 29.074 140.373 28.672 140.769 27.868H143.487C143.199 28.828 142.647 29.62 141.831 30.244C141.015 30.856 140.013 31.162 138.825 31.162C137.865 31.162 137.001 30.952 136.233 30.532C135.477 30.1 134.883 29.494 134.451 28.714C134.031 27.934 133.821 27.034 133.821 26.014C133.821 24.982 134.031 24.076 134.451 23.296C134.871 22.516 135.459 21.916 136.215 21.496C136.971 21.076 137.841 20.866 138.825 20.866C139.773 20.866 140.619 21.07 141.363 21.478C142.119 21.886 142.701 22.468 143.109 23.224C143.529 23.968 143.739 24.826 143.739 25.798ZM141.129 25.078C141.117 24.43 140.883 23.914 140.427 23.53C139.971 23.134 139.413 22.936 138.753 22.936C138.129 22.936 137.601 23.128 137.169 23.512C136.749 23.884 136.491 24.406 136.395 25.078H141.129ZM159.402 21.028L156.486 31H153.768L151.95 24.034L150.132 31H147.396L144.462 21.028H147.018L148.782 28.624L150.69 21.028H153.354L155.226 28.606L156.99 21.028H159.402ZM174.217 22.324C174.217 22.996 174.055 23.626 173.73 24.214C173.419 24.802 172.921 25.276 172.237 25.636C171.565 25.996 170.713 26.176 169.681 26.176H167.575V31H165.055V18.436H169.681C170.653 18.436 171.481 18.604 172.165 18.94C172.849 19.276 173.359 19.738 173.695 20.326C174.043 20.914 174.217 21.58 174.217 22.324ZM169.573 24.142C170.269 24.142 170.785 23.986 171.121 23.674C171.457 23.35 171.625 22.9 171.625 22.324C171.625 21.1 170.941 20.488 169.573 20.488H167.575V24.142H169.573ZM175.358 25.978C175.358 24.97 175.556 24.076 175.952 23.296C176.36 22.516 176.906 21.916 177.59 21.496C178.286 21.076 179.06 20.866 179.912 20.866C180.656 20.866 181.304 21.016 181.856 21.316C182.42 21.616 182.87 21.994 183.206 22.45V21.028H185.744V31H183.206V29.542C182.882 30.01 182.432 30.4 181.856 30.712C181.292 31.012 180.638 31.162 179.894 31.162C179.054 31.162 178.286 30.946 177.59 30.514C176.906 30.082 176.36 29.476 175.952 28.696C175.556 27.904 175.358 26.998 175.358 25.978ZM183.206 26.014C183.206 25.402 183.086 24.88 182.846 24.448C182.606 24.004 182.282 23.668 181.874 23.44C181.466 23.2 181.028 23.08 180.56 23.08C180.092 23.08 179.66 23.194 179.264 23.422C178.868 23.65 178.544 23.986 178.292 24.43C178.052 24.862 177.932 25.378 177.932 25.978C177.932 26.578 178.052 27.106 178.292 27.562C178.544 28.006 178.868 28.348 179.264 28.588C179.672 28.828 180.104 28.948 180.56 28.948C181.028 28.948 181.466 28.834 181.874 28.606C182.282 28.366 182.606 28.03 182.846 27.598C183.086 27.154 183.206 26.626 183.206 26.014ZM191.139 23.098V27.922C191.139 28.258 191.217 28.504 191.373 28.66C191.541 28.804 191.817 28.876 192.201 28.876H193.371V31H191.787C189.663 31 188.601 29.968 188.601 27.904V23.098H187.413V21.028H188.601V18.562H191.139V21.028H193.371V23.098H191.139ZM196.461 19.84C196.017 19.84 195.645 19.702 195.345 19.426C195.057 19.138 194.913 18.784 194.913 18.364C194.913 17.944 195.057 17.596 195.345 17.32C195.645 17.032 196.017 16.888 196.461 16.888C196.905 16.888 197.271 17.032 197.559 17.32C197.859 17.596 198.009 17.944 198.009 18.364C198.009 18.784 197.859 19.138 197.559 19.426C197.271 19.702 196.905 19.84 196.461 19.84ZM197.703 21.028V31H195.183V21.028H197.703ZM209.463 25.798C209.463 26.158 209.439 26.482 209.391 26.77H202.101C202.161 27.49 202.413 28.054 202.857 28.462C203.301 28.87 203.847 29.074 204.495 29.074C205.431 29.074 206.097 28.672 206.493 27.868H209.211C208.923 28.828 208.371 29.62 207.555 30.244C206.739 30.856 205.737 31.162 204.549 31.162C203.589 31.162 202.725 30.952 201.957 30.532C201.201 30.1 200.607 29.494 200.175 28.714C199.755 27.934 199.545 27.034 199.545 26.014C199.545 24.982 199.755 24.076 200.175 23.296C200.595 22.516 201.183 21.916 201.939 21.496C202.695 21.076 203.565 20.866 204.549 20.866C205.497 20.866 206.343 21.07 207.087 21.478C207.843 21.886 208.425 22.468 208.833 23.224C209.253 23.968 209.463 24.826 209.463 25.798ZM206.853 25.078C206.841 24.43 206.607 23.914 206.151 23.53C205.695 23.134 205.137 22.936 204.477 22.936C203.853 22.936 203.325 23.128 202.893 23.512C202.473 23.884 202.215 24.406 202.119 25.078H206.853ZM216.829 20.884C218.017 20.884 218.977 21.262 219.709 22.018C220.441 22.762 220.807 23.806 220.807 25.15V31H218.287V25.492C218.287 24.7 218.089 24.094 217.693 23.674C217.297 23.242 216.757 23.026 216.073 23.026C215.377 23.026 214.825 23.242 214.417 23.674C214.021 24.094 213.823 24.7 213.823 25.492V31H211.303V21.028H213.823V22.27C214.159 21.838 214.585 21.502 215.101 21.262C215.629 21.01 216.205 20.884 216.829 20.884ZM226.137 23.098V27.922C226.137 28.258 226.215 28.504 226.371 28.66C226.539 28.804 226.815 28.876 227.199 28.876H228.369V31H226.785C224.661 31 223.599 29.968 223.599 27.904V23.098H222.411V21.028H223.599V18.562H226.137V21.028H228.369V23.098H226.137Z" fill="white"/>
<rect x="12" y="11" width="30" height="30" rx="3" fill="white"/>
<g clip-path="url(#clip0_11536_33727)">
<path d="M36.1665 33.4999H35.1007L33.9998 30.2091C33.8341 29.7121 33.5164 29.2797 33.0916 28.973C32.6667 28.6663 32.1563 28.5008 31.6323 28.4999H28.6665C28.2245 28.4999 27.8006 28.3244 27.488 28.0118C27.1754 27.6992 26.9998 27.2753 26.9998 26.8333H31.9998C32.2209 26.8333 32.4328 26.7455 32.5891 26.5892C32.7454 26.4329 32.8332 26.221 32.8332 25.9999C32.8332 25.7789 32.7454 25.567 32.5891 25.4107C32.4328 25.2544 32.2209 25.1666 31.9998 25.1666H26.9998V22.6666C26.9948 22.6289 26.9873 22.5916 26.9773 22.5549C27.7662 22.3571 28.4556 21.8777 28.9155 21.2069C29.3755 20.5362 29.5744 19.7204 29.4747 18.9132C29.375 18.1061 28.9837 17.3632 28.3744 16.8245C27.7651 16.2858 26.9798 15.9884 26.1665 15.9884C25.3532 15.9884 24.5679 16.2858 23.9586 16.8245C23.3493 17.3632 22.958 18.1061 22.8583 18.9132C22.7586 19.7204 22.9575 20.5362 23.4175 21.2069C23.8775 21.8777 24.5668 22.3571 25.3557 22.5549C25.3457 22.5916 25.3382 22.6289 25.3332 22.6666V26.8333C25.3349 27.7033 25.6768 28.5382 26.2857 29.1596C26.8947 29.7811 27.7225 30.1398 28.5923 30.1591C28.44 31.0699 28.0385 31.9207 27.4322 32.6172C26.8259 33.3137 26.0386 33.8287 25.1576 34.1051C24.2765 34.3815 23.3361 34.4086 22.4406 34.1832C21.5451 33.9578 20.7295 33.4889 20.0842 32.8284C19.439 32.1678 18.9892 31.3415 18.7848 30.441C18.5805 29.5405 18.6294 28.601 18.9264 27.7266C19.2233 26.8523 19.7565 26.0772 20.467 25.4874C21.1775 24.8975 22.0374 24.5159 22.9515 24.3849C23.1704 24.3536 23.3679 24.2365 23.5005 24.0595C23.6331 23.8825 23.69 23.6601 23.6586 23.4412C23.6272 23.2223 23.5101 23.0248 23.3332 22.8922C23.1562 22.7596 22.9338 22.7027 22.7148 22.7341C21.4848 22.9105 20.3286 23.4272 19.3766 24.2258C18.4246 25.0245 17.7148 26.0733 17.3272 27.2539C16.9396 28.4345 16.8897 29.7 17.1832 30.9075C17.4766 32.1149 18.1016 33.2164 18.9878 34.0875C19.8739 34.9586 20.9859 35.5647 22.1982 35.8374C23.4105 36.1101 24.6749 36.0386 25.8488 35.6308C27.0226 35.2231 28.0591 34.4954 28.8413 33.5299C29.6235 32.5644 30.1203 31.3995 30.2757 30.1666H31.6323C31.8073 30.1666 31.9779 30.2216 32.1198 30.3239C32.2617 30.4262 32.3679 30.5706 32.4232 30.7366L33.7098 34.5966C33.7651 34.7625 33.8711 34.9068 34.0129 35.0091C34.1547 35.1114 34.325 35.1665 34.4998 35.1666H36.1665C36.3875 35.1666 36.5995 35.0788 36.7558 34.9225C36.912 34.7663 36.9998 34.5543 36.9998 34.3333C36.9998 34.1123 36.912 33.9003 36.7558 33.744C36.5995 33.5877 36.3875 33.4999 36.1665 33.4999ZM24.4998 19.3333C24.4998 19.0036 24.5976 18.6814 24.7807 18.4073C24.9639 18.1332 25.2242 17.9196 25.5287 17.7935C25.8332 17.6673 26.1684 17.6343 26.4917 17.6986C26.815 17.7629 27.1119 17.9217 27.345 18.1548C27.5781 18.3879 27.7368 18.6848 27.8011 19.0081C27.8655 19.3314 27.8325 19.6665 27.7063 19.9711C27.5802 20.2756 27.3665 20.5359 27.0925 20.7191C26.8184 20.9022 26.4961 20.9999 26.1665 20.9999C25.7245 20.9999 25.3006 20.8244 24.988 20.5118C24.6754 20.1992 24.4998 19.7753 24.4998 19.3333Z" fill="#057CC3"/>
</g>
<defs>
<clipPath id="clip0_11536_33727">
<rect x="17" y="16" width="20" height="20" rx="3" fill="white"/>
</clipPath>
</defs>
</svg>
