<svg width="88" height="88" viewBox="0 0 88 88" fill="none" xmlns="http://www.w3.org/2000/svg">
<g filter="url(#filter0_d_15854_3957)">
<rect x="20" y="16" width="48" height="48" rx="24" fill="#FF7C52"/>
</g>
<path d="M51.2008 42.3996C48.554 42.3996 46.4006 44.5525 46.4006 47.1998C46.4006 49.8472 48.554 52 51.2008 52C53.8476 52 56.001 49.8472 56.001 47.1998C56.001 44.5525 53.8476 42.3996 51.2008 42.3996ZM51.2008 49.5999C49.8771 49.5999 48.8007 48.5229 48.8007 47.1998C48.8007 45.8767 49.8771 44.7997 51.2008 44.7997C52.5245 44.7997 53.6009 45.8767 53.6009 47.1998C53.6009 48.5229 52.5245 49.5999 51.2008 49.5999ZM36.8002 52C39.447 52 41.6004 49.8472 41.6004 47.1998C41.6004 44.5525 39.447 42.3996 36.8002 42.3996C34.1534 42.3996 32 44.5525 32 47.1998C32 49.8472 34.1534 52 36.8002 52ZM36.8002 44.7997C38.1239 44.7997 39.2003 45.8767 39.2003 47.1998C39.2003 48.5229 38.1239 49.5999 36.8002 49.5999C35.4765 49.5999 34.4001 48.5229 34.4001 47.1998C34.4001 45.8767 35.4765 44.7997 36.8002 44.7997Z" fill="white"/>
<path d="M50.6007 36.4003C52.9164 36.4003 54.8009 34.5159 54.8009 32.2002C54.8009 29.8844 52.9164 28 50.6007 28C48.4632 28 46.713 29.6115 46.4532 31.6797C42.0247 32.0705 38.1243 34.6685 36.107 38.7032C35.8556 39.2059 35.8351 39.7919 36.0495 40.311C36.2646 40.8302 36.6941 41.2298 37.2262 41.4068L37.9281 41.6412C40.8427 42.6127 42.8004 45.3292 42.8004 48.4008C42.8004 49.0641 43.3377 49.6009 44.0004 49.6009C44.6632 49.6009 45.2005 49.0641 45.2005 48.4008C45.2005 44.2944 42.583 40.6638 38.6881 39.3653L38.5053 39.3044C39.4032 37.7119 40.6786 36.4253 42.1823 35.5138C43.653 38.3662 46.5801 40.1446 49.7499 40.1446C50.3072 40.1446 50.872 40.0895 51.4363 39.977C52.0861 39.847 52.5074 39.2153 52.3773 38.5649C52.2473 37.9145 51.6179 37.4879 50.9652 37.6238C48.3217 38.1513 45.6963 36.8932 44.3767 34.5243C45.1689 34.269 45.9959 34.1105 46.8489 34.05C47.5358 35.4362 48.9518 36.4003 50.6007 36.4003ZM50.6007 30.4001C51.5933 30.4001 52.4008 31.2075 52.4008 32.2002C52.4008 33.1928 51.5933 34.0002 50.6007 34.0002C49.6081 34.0002 48.8006 33.1928 48.8006 32.2002C48.8006 31.2075 49.6081 30.4001 50.6007 30.4001Z" fill="white"/>
<defs>
<filter id="filter0_d_15854_3957" x="0" y="0" width="88" height="88" filterUnits="userSpaceOnUse" color-interpolation-filters="sRGB">
<feFlood flood-opacity="0" result="BackgroundImageFix"/>
<feColorMatrix in="SourceAlpha" type="matrix" values="0 0 0 0 0 0 0 0 0 0 0 0 0 0 0 0 0 0 127 0" result="hardAlpha"/>
<feOffset dy="4"/>
<feGaussianBlur stdDeviation="10"/>
<feComposite in2="hardAlpha" operator="out"/>
<feColorMatrix type="matrix" values="0 0 0 0 0 0 0 0 0 0 0 0 0 0 0 0 0 0 0.25 0"/>
<feBlend mode="normal" in2="BackgroundImageFix" result="effect1_dropShadow_15854_3957"/>
<feBlend mode="normal" in="SourceGraphic" in2="effect1_dropShadow_15854_3957" result="shape"/>
</filter>
</defs>
</svg>
