<svg width="32" height="33" viewBox="0 0 32 33" fill="none" xmlns="http://www.w3.org/2000/svg">
<path d="M16.4474 16.2629C17.4175 15.5035 17.7676 14.2297 17.3673 13.1064C19.2271 13.0083 20.4989 11.138 19.8685 9.36071H24.1895C25.7401 9.36071 27.0016 8.09922 27.0016 6.54862C27.0016 4.99484 25.7443 3.73654 24.1896 3.73654C24.179 3.73654 16.0028 3.73835 15.6953 3.73841C16.2998 2.93439 16.6272 1.9612 16.6272 0.937446C16.6272 0.419538 16.2081 0 15.6876 0L5.64205 0.0231862C4.63005 0.0261235 3.69354 0.575967 3.19807 1.45823L1.39186 4.67354H0.937446C0.419726 4.67354 0 5.09327 0 5.61099C0 6.12871 0.419726 6.54844 0.937446 6.54844H1.94051C2.27937 6.54844 2.59185 6.36557 2.75784 6.07009L4.83272 2.37636C4.9979 2.08226 5.31007 1.89902 5.64686 1.89808L14.5913 1.87745C14.2154 2.93458 13.2201 3.73629 11.9535 3.73629C10.6869 3.73629 10.3182 3.73604 9.75256 3.73604C9.18697 3.73604 8.80893 4.16707 8.81512 4.68161C8.81606 4.85803 8.79262 9.00723 4.90184 9.42865C4.38712 9.48439 4.01508 9.94687 4.07083 10.4616C4.12664 10.977 4.58974 11.3485 5.10377 11.2926C8.33952 10.9421 10.1885 8.65357 10.6154 5.61443C13.7604 5.61374 24.1969 5.61137 24.1895 5.61137C24.7073 5.61137 25.1267 6.03047 25.1267 6.54856C25.1267 7.06534 24.7063 7.48576 24.1895 7.48576C23.6664 7.48576 13.4205 7.48576 13.0898 7.48576C10.7409 7.48576 9.43902 10.2038 10.8796 12.034C10.0072 12.8834 9.79344 14.1675 10.2899 15.2321C8.95342 15.8343 8.29665 17.3559 8.78293 18.7351H4.49699C4.24719 18.7351 4.01221 18.6379 3.83528 18.4616L2.50279 17.1336C2.08619 16.7184 1.60903 16.9077 0.937446 16.8602C0.419726 16.8602 0 17.2799 0 17.7976C0 18.3153 0.419726 18.7351 0.937446 18.7351H1.45367L2.51173 19.7896C3.04251 20.3186 3.74753 20.6099 4.49699 20.6099H14.0926C16.3271 20.6101 17.6615 18.1194 16.4474 16.2629ZM12.8398 14.9854C12.3229 14.9854 11.9024 14.5649 11.9024 14.0479C11.9024 13.531 12.3229 13.1105 12.8398 13.1105H14.7175C15.2344 13.1105 15.655 13.531 15.655 14.0479C15.655 14.5649 15.2344 14.9854 14.7175 14.9854C14.5556 14.9854 13.3175 14.9854 12.8398 14.9854ZM13.0898 9.36071H17.2174C17.7343 9.36071 18.1548 9.78125 18.1548 10.2982C18.1548 10.8151 17.7343 11.2356 17.2174 11.2356C16.5469 11.2356 14.0508 11.2356 13.0898 11.2356C12.5729 11.2356 12.1524 10.8151 12.1524 10.2982C12.1524 9.78125 12.5729 9.36071 13.0898 9.36071ZM14.0926 18.7352H11.4362C10.9142 18.7352 10.4935 18.3101 10.4987 17.7881C10.504 17.2765 10.9245 16.8603 11.4362 16.8603H14.0937C14.6101 16.861 15.03 17.2813 15.03 17.7978C15.03 18.3146 14.6095 18.7352 14.0926 18.7352Z" fill="#858585"/>
<path d="M23.4995 11.3164C22.9817 11.3164 22.562 11.7361 22.562 12.2539V14.1287C22.562 14.6465 22.9817 15.0662 23.4995 15.0662C24.0172 15.0662 24.4369 14.6465 24.4369 14.1287V12.2539C24.4369 11.7361 24.0172 11.3164 23.4995 11.3164Z" fill="#057CC3"/>
<path d="M27.3058 28.1895H19.8124C19.2947 28.1895 18.875 28.6092 18.875 29.1269V31.0643C18.875 31.582 19.2947 32.0017 19.8124 32.0017C20.3302 32.0017 20.7499 31.582 20.7499 31.0643V30.0643H26.3683V31.0643C26.3683 31.582 26.788 32.0017 27.3058 32.0017C27.8235 32.0017 28.2432 31.582 28.2432 31.0643V29.1269C28.2432 28.6092 27.8235 28.1895 27.3058 28.1895Z" fill="#057CC3"/>
<path d="M28.5591 22.5661H26.3686V17.8789C26.3686 17.3611 25.9489 16.9414 25.4311 16.9414H21.6876C21.1699 16.9414 20.7502 17.3611 20.7502 17.8789V22.5661H18.5628C16.6675 22.5661 15.1255 24.1081 15.1255 26.0034V31.0031C15.1255 31.5208 15.5452 31.9405 16.0629 31.9405C16.5807 31.9405 17.0004 31.5208 17.0004 31.0031V26.0034C17.0004 25.1419 17.7013 24.441 18.5628 24.441H28.5591C29.4206 24.441 30.1215 25.1419 30.1215 26.0034V31.0031C30.1215 31.5208 30.5412 31.9405 31.0589 31.9405C31.5767 31.9405 31.9964 31.5208 31.9964 31.0031V26.0034C31.9964 24.1081 30.4544 22.5661 28.5591 22.5661ZM22.6251 18.8163H24.4937V22.5661H22.6251V18.8163Z" fill="#057CC3"/>
</svg>
