<svg width="32" height="32" viewBox="0 0 32 32" fill="none" xmlns="http://www.w3.org/2000/svg">
<g clip-path="url(#clip0_4681_18012)">
<path d="M27.625 24.5C26.8833 24.5 26.1583 24.7199 25.5416 25.132C24.9249 25.544 24.4443 26.1297 24.1605 26.8149C23.8766 27.5002 23.8024 28.2542 23.9471 28.9816C24.0918 29.709 24.4489 30.3772 24.9733 30.9017C25.4978 31.4261 26.166 31.7833 26.8934 31.928C27.6208 32.0727 28.3748 31.9984 29.0601 31.7146C29.7453 31.4307 30.3309 30.9501 30.743 30.3334C31.1551 29.7167 31.375 28.9917 31.375 28.25C31.375 27.7576 31.278 27.2699 31.0895 26.8149C30.9011 26.36 30.6249 25.9466 30.2766 25.5984C29.9284 25.2501 29.515 24.9739 29.0601 24.7855C28.6051 24.597 28.1175 24.5 27.625 24.5ZM27.625 30C27.2789 30 26.9405 29.8974 26.6527 29.7051C26.365 29.5128 26.1407 29.2395 26.0082 28.9197C25.8758 28.5999 25.8411 28.2481 25.9086 27.9086C25.9761 27.5691 26.1428 27.2573 26.3876 27.0126C26.6323 26.7678 26.9441 26.6012 27.2836 26.5336C27.6231 26.4661 27.9749 26.5008 28.2947 26.6332C28.6145 26.7657 28.8878 26.99 29.0801 27.2778C29.2724 27.5656 29.375 27.9039 29.375 28.25C29.375 28.7141 29.1906 29.1593 28.8624 29.4875C28.5342 29.8156 28.0891 30 27.625 30Z" fill="#057CC3"/>
<path d="M29.1249 22.4999H28.6249V21.7499C28.6222 20.3584 28.0683 19.0245 27.0843 18.0405C26.1003 17.0566 24.7664 16.5026 23.3749 16.4999C21.9829 16.5013 20.6483 17.0548 19.664 18.0391C18.6798 19.0234 18.1262 20.358 18.1249 21.7499V26.7499C18.1249 27.6119 17.7825 28.4385 17.173 29.048C16.5635 29.6575 15.7368 29.9999 14.8749 29.9999C14.0129 29.9999 13.1863 29.6575 12.5768 29.048C11.9673 28.4385 11.6249 27.6119 11.6249 26.7499V22.9999H12.6249C13.4205 22.9999 14.1836 22.6839 14.7462 22.1213C15.3088 21.5586 15.6249 20.7956 15.6249 19.9999V19.5549C17.6896 18.5091 19.3432 16.8001 20.3206 14.7021C21.298 12.6041 21.5426 10.2387 21.015 7.98513C20.4874 5.73157 19.2183 3.72047 17.4113 2.27436C15.6042 0.828236 13.3638 0.0308871 11.0494 0.0101794C8.73498 -0.0105284 6.48068 0.746605 4.648 2.16016C2.81532 3.57371 1.51045 5.56178 0.94264 7.80554C0.374834 10.0493 0.576996 12.4187 1.51671 14.5339C2.45642 16.649 4.07923 18.3873 6.12489 19.4699V19.9999C6.12489 20.7956 6.44096 21.5586 7.00356 22.1213C7.56617 22.6839 8.32923 22.9999 9.12488 22.9999H9.62488V26.7499C9.62621 28.1419 10.1798 29.4765 11.164 30.4608C12.1483 31.4451 13.4829 31.9986 14.8749 31.9999C16.2665 31.9973 17.6003 31.4433 18.5843 30.4593C19.5683 29.4753 20.1222 28.1415 20.1249 26.7499V21.7499C20.1249 20.888 20.4673 20.0613 21.0768 19.4518C21.6863 18.8423 22.5129 18.4999 23.3749 18.4999C24.2368 18.4999 25.0635 18.8423 25.673 19.4518C26.2825 20.0613 26.6249 20.888 26.6249 21.7499V22.4999H26.1249V24.4999H29.1249V22.4999ZM2.62489 10.3399C2.62489 8.69044 3.11402 7.07799 4.03043 5.70648C4.94684 4.33497 6.24937 3.26601 7.7733 2.63478C9.29724 2.00354 10.9741 1.83838 12.5919 2.16019C14.2097 2.48199 15.6958 3.27629 16.8621 4.44266C18.0285 5.60903 18.8228 7.09508 19.1446 8.71288C19.4664 10.3307 19.3013 12.0076 18.67 13.5315C18.0388 15.0555 16.9698 16.358 15.5983 17.2744C14.2268 18.1908 12.6144 18.6799 10.9649 18.6799C8.75379 18.6773 6.63402 17.7978 5.07054 16.2343C3.50706 14.6708 2.62753 12.551 2.62489 10.3399ZM8.16988 20.2849C9.9299 20.794 11.7957 20.8113 13.5649 20.3349C13.4958 20.5291 13.3685 20.6973 13.2002 20.8163C13.0319 20.9353 12.831 20.9995 12.6249 20.9999H9.12488C8.91001 20.9992 8.70109 20.9292 8.52908 20.8004C8.35708 20.6717 8.23112 20.4909 8.16988 20.2849Z" fill="#858585"/>
<path d="M11.4644 11.9336L9.97819 10.595L14.8928 5.13861L16.379 6.47723L11.4644 11.9336Z" fill="#057CC3"/>
</g>
<defs>
<clipPath id="clip0_4681_18012">
<rect width="32" height="32" fill="white"/>
</clipPath>
</defs>
</svg>
