<svg width="32" height="32" viewBox="0 0 32 32" fill="none" xmlns="http://www.w3.org/2000/svg">
<path d="M26.3387 2.61081C25.4427 1.35456 24.5592 0.356813 24.5221 0.314938C24.3441 0.114625 24.089 0 23.8211 0C23.5531 0 23.298 0.114625 23.1201 0.315C23.0829 0.356813 22.1993 1.35456 21.3035 2.61081C20.0057 4.43044 19.375 5.80931 19.375 6.82613C19.375 9.27775 21.3695 11.2723 23.8211 11.2723C26.2727 11.2723 28.2673 9.27769 28.2673 6.82613C28.2672 5.80931 27.6364 4.4305 26.3387 2.61081ZM23.8211 9.39731C22.4033 9.39731 21.2499 8.24388 21.2499 6.82619C21.2499 6.61319 21.3632 5.75925 22.8208 3.71244C23.1727 3.21837 23.5274 2.76156 23.8212 2.39706C24.1119 2.75781 24.4626 3.2095 24.8121 3.69956C26.2782 5.75537 26.3922 6.6125 26.3922 6.82619C26.3922 8.24388 25.2388 9.39731 23.8211 9.39731Z" fill="#057CC3"/>
<path d="M14.3296 6.10919C14.1516 5.90575 13.8944 5.78906 13.6241 5.78906C13.3538 5.78906 13.0966 5.90575 12.9186 6.10919C12.8258 6.21519 10.6217 8.74125 8.38046 11.9306C5.2969 16.3186 3.7334 19.6984 3.7334 21.9762C3.7334 27.5034 8.1704 31.9999 13.6241 31.9999C19.0778 31.9999 23.5148 27.5034 23.5148 21.9763C23.5148 19.6985 21.9513 16.3186 18.8677 11.9306C16.6266 8.74131 14.4224 6.21519 14.3296 6.10919ZM13.6241 30.1249C9.20421 30.1249 5.6084 26.4695 5.6084 21.9763C5.6084 18.4806 10.8672 11.4684 13.6241 8.1705C16.381 11.4685 21.6398 18.4806 21.6398 21.9763C21.6398 26.4695 18.044 30.1249 13.6241 30.1249Z" fill="#858585"/>
<path d="M12.439 17.0609V18.4391H11.0609C10.475 18.4391 10 18.9141 10 19.5C10 20.0859 10.475 20.5609 11.0609 20.5609H12.439V21.9391C12.439 22.525 12.9141 23 13.5 23C14.0859 23 14.5609 22.525 14.5609 21.9391V20.5609H15.9391C16.525 20.5609 17 20.0859 17 19.5C17 18.9141 16.525 18.4391 15.9391 18.4391H14.5609V17.0609C14.5609 16.475 14.0859 16 13.5 16C12.9141 16 12.439 16.475 12.439 17.0609Z" fill="#057CC3"/>
<line x1="11" y1="25" x2="16" y2="25" stroke="#057CC3" stroke-width="2" stroke-linecap="round"/>
</svg>
