<svg width="32" height="32" viewBox="0 0 32 32" fill="none" xmlns="http://www.w3.org/2000/svg">
<path d="M15.3188 6.34961C8.41893 6.34961 2.80615 11.9614 2.80615 18.8623C2.80615 25.7622 8.41893 31.376 15.3188 31.376C22.2178 31.376 27.8325 25.7612 27.8325 18.8623C27.8325 11.9624 22.2178 6.34961 15.3188 6.34961ZM15.3188 29.1285C9.65725 29.1285 5.05166 24.5229 5.05166 18.8593C5.05166 13.1987 9.65725 8.59313 15.3188 8.59313C20.9814 8.59313 25.587 13.1997 25.587 18.8593C25.587 24.5229 20.9814 29.1285 15.3188 29.1285Z" fill="#858585"/>
<path d="M25.5753 9.15052C26.9975 9.15052 28.1505 7.99754 28.1505 6.57526C28.1505 5.15298 26.9975 4 25.5753 4C24.153 4 23 5.15298 23 6.57526C23 7.99754 24.153 9.15052 25.5753 9.15052Z" fill="#057CC3"/>
<path d="M19.6139 3.2278C20.5052 3.2278 21.2278 2.50523 21.2278 1.6139C21.2278 0.722566 20.5052 0 19.6139 0C18.7226 0 18 0.722566 18 1.6139C18 2.50523 18.7226 3.2278 19.6139 3.2278Z" fill="#057CC3"/>
<path d="M6 7C7.10457 7 8 6.10457 8 5C8 3.89543 7.10457 3 6 3C4.89543 3 4 3.89543 4 5C4 6.10457 4.89543 7 6 7Z" fill="#057CC3"/>
<path d="M12.9868 15C11.7331 15 10.7554 15.3517 10.0535 16.0551C9.35091 16.7592 9 17.7407 9 19.0052C9 19.9092 9.17705 20.6621 9.53195 21.2632C9.88605 21.8666 10.3486 22.3054 10.9196 22.5836C11.4899 22.8601 12.2108 23 13.0817 23C13.9383 23 14.6537 22.8393 15.2279 22.5172C15.8021 22.1943 16.24 21.7427 16.5446 21.1672C16.8477 20.587 17 19.8468 17 18.9413C17 17.6952 16.6523 16.7264 15.9568 16.0359C15.2622 15.3445 14.2717 15 12.9868 15ZM14.1927 20.7101C13.9112 21.0442 13.5148 21.2112 13.0028 21.2112C12.5035 21.2112 12.1104 21.041 11.8209 20.6989C11.5306 20.3568 11.3862 19.7965 11.3862 19.0156C11.3862 18.2283 11.5322 17.6632 11.824 17.3219C12.1151 16.9806 12.5011 16.8088 12.9829 16.8088C13.4837 16.8088 13.8817 16.9774 14.176 17.3131C14.4686 17.6488 14.6162 18.1811 14.6162 18.9101C14.6146 19.7749 14.4734 20.376 14.1927 20.7101Z" fill="#057CC3"/>
<path d="M20.2543 21.7427C20.3457 21.6656 20.5264 21.4971 20.7984 21.3011C21.2541 20.9657 21.5685 20.6429 21.7415 20.3642C21.9131 20.0839 22 19.7824 22 19.4761C22 19.1872 21.9244 18.9219 21.774 18.6897C21.6221 18.4558 21.4158 18.2811 21.1544 18.1708C20.8899 18.0575 20.5226 18 20.0487 18C19.5946 18 19.2409 18.0583 18.9832 18.1771C18.7278 18.2937 18.5275 18.4637 18.3884 18.6857C18.2479 18.9062 18.1511 19.214 18.0982 19.6092L19.4457 19.7241C19.4827 19.4399 19.556 19.2407 19.6656 19.1274C19.7744 19.0156 19.9142 18.9597 20.0865 18.9597C20.252 18.9597 20.3888 19.0132 20.4984 19.1227C20.608 19.2321 20.6616 19.3628 20.6616 19.5163C20.6616 19.658 20.6065 19.8092 20.4969 19.9666C20.3858 20.1249 20.1341 20.3555 19.7397 20.6602C19.0943 21.1601 18.6552 21.5278 18.4209 21.8915C18.1867 22.2584 18.0461 23 18 23H21.6849V22.1127H19.9354C20.0555 22.1135 20.1629 21.8199 20.2543 21.7427Z" fill="#057CC3"/>
</svg>
