<svg width="32" height="32" viewBox="0 0 32 32" fill="none" xmlns="http://www.w3.org/2000/svg">
<path d="M27.3142 4.6877C24.2927 1.66614 20.275 0.00195312 16.0017 0.00195312C11.7284 0.00195312 7.71085 1.6662 4.68929 4.6877C0.500037 8.87701 -0.895776 14.8153 0.556037 20.1822C0.666662 20.5909 1.03723 20.8746 1.46091 20.8746H30.5427C30.9664 20.8746 31.337 20.5909 31.4475 20.1822C31.8144 18.8261 32 17.4194 32 16.0002C32 11.7269 30.3358 7.70926 27.3142 4.6877ZM29.8059 18.9999H2.19773C0.284537 10.1769 7.04135 1.87676 16.0018 1.87676C24.9552 1.87676 31.7205 10.1699 29.8059 18.9999Z" fill="#057CC3"/>
<path d="M16.0018 8.01945C16.5195 8.01945 16.9392 7.59977 16.9392 7.08208V5.31433C16.9392 4.79664 16.5195 4.37695 16.0018 4.37695C15.4841 4.37695 15.0645 4.79664 15.0645 5.31433V7.08208C15.0644 7.59977 15.4841 8.01945 16.0018 8.01945Z" fill="#057CC3"/>
<path d="M11.4705 6.27753C11.2116 5.82915 10.6384 5.6754 10.19 5.9344C9.74167 6.19322 9.58811 6.76653 9.84692 7.2149L10.7307 8.74584C10.9044 9.04659 11.2194 9.21472 11.5434 9.21472C12.2582 9.21472 12.7166 8.4359 12.3544 7.80847L11.4705 6.27753Z" fill="#057CC3"/>
<path d="M8.7467 10.7284L7.21583 9.84457C6.76745 9.58557 6.1942 9.73926 5.93533 10.1877C5.67645 10.636 5.83007 11.2094 6.27845 11.4682C7.94283 12.4291 7.95258 12.4778 8.27714 12.4778C9.23214 12.4778 9.5757 11.207 8.7467 10.7284Z" fill="#057CC3"/>
<path d="M7.08305 15.0625H5.3153C4.79762 15.0625 4.37793 15.4822 4.37793 15.9999C4.37793 16.5176 4.79762 16.9372 5.3153 16.9372H7.08305C7.60074 16.9372 8.02043 16.5176 8.02043 15.9999C8.02043 15.4822 7.60074 15.0625 7.08305 15.0625Z" fill="#057CC3"/>
<path d="M23.9829 15.9999C23.9829 16.5176 24.4026 16.9372 24.9203 16.9372H26.688C27.2057 16.9372 27.6254 16.5176 27.6254 15.9999C27.6254 15.4822 27.2057 15.0625 26.688 15.0625H24.9203C24.4026 15.0625 23.9829 15.4822 23.9829 15.9999Z" fill="#057CC3"/>
<path d="M24.7878 9.84453L23.2569 10.7284C22.8086 10.9872 22.655 11.5606 22.9138 12.0089C23.1728 12.4575 23.7463 12.6108 24.1943 12.352L25.7252 11.4682C26.1736 11.2093 26.3271 10.636 26.0683 10.1877C25.8095 9.73928 25.2362 9.5856 24.7878 9.84453Z" fill="#057CC3"/>
<path d="M21.8135 5.93436C21.365 5.67543 20.7918 5.82918 20.533 6.27749L19.6492 7.80842C19.3903 8.25679 19.5439 8.83011 19.9923 9.08892C20.4409 9.34798 21.0141 9.19392 21.2728 8.74579L22.1566 7.21486C22.4155 6.76649 22.2619 6.19317 21.8135 5.93436Z" fill="#057CC3"/>
<path d="M18.2759 12.3995L15.3387 15.3367C14.7462 15.9292 15.1741 16.937 16.0015 16.937C16.2414 16.937 16.4813 16.8454 16.6643 16.6624L19.6015 13.7252C19.9676 13.3592 19.9676 12.7656 19.6015 12.3996C19.2355 12.0335 18.6419 12.0335 18.2759 12.3995Z" fill="#057CC3"/>
<path d="M21.759 23.4394C21.7582 23.4356 21.7575 23.4319 21.7567 23.4281C21.6562 22.9351 21.2352 22.571 20.7329 22.5426C20.2305 22.5155 19.7712 22.8287 19.6159 23.3072C19.6077 23.3326 18.2452 28.1131 18.2379 28.1388L16.8192 23.3302C16.8159 23.319 16.8124 23.308 16.8087 23.297C16.6485 22.8199 16.1859 22.5109 15.6837 22.5438C15.1702 22.5782 14.7542 22.9616 14.6671 23.4511L13.3344 30.8351C13.2424 31.3445 13.5809 31.8321 14.0904 31.9241C14.6001 32.0161 15.0874 31.6775 15.1794 31.1681L15.9375 26.9672L17.1891 31.2093C17.1924 31.2205 17.1959 31.2315 17.1995 31.2425C17.5394 32.2545 18.975 32.2481 19.305 31.2319C19.3085 31.2211 19.3119 31.2102 19.315 31.1994L20.5232 26.9608L21.3291 31.1775C21.4263 31.6861 21.9173 32.0196 22.4258 31.9223C22.9343 31.8251 23.2677 31.3341 23.1705 30.8256L21.759 23.4394Z" fill="#858585"/>
<path d="M26.1898 22.541C25.6721 22.541 25.2524 22.9607 25.2524 23.4784V31.0608C25.2524 31.5785 25.6721 31.9982 26.1898 31.9982C26.7075 31.9982 27.1272 31.5785 27.1272 31.0608V23.4785C27.1272 22.9607 26.7075 22.541 26.1898 22.541Z" fill="#858585"/>
<path d="M10.2616 26.6874C10.5378 26.2662 10.6978 25.7631 10.6978 25.2232C10.6978 23.744 9.49479 22.541 8.0156 22.541H5.81335C5.29591 22.541 4.87598 22.9603 4.87598 23.4784V31.0606C4.87598 31.5785 5.29635 31.998 5.81335 31.998H5.81773C5.83773 31.998 7.84998 31.9893 8.40054 31.9893C10.0429 31.9893 11.379 30.6531 11.379 29.0108C11.379 28.0722 10.9422 27.2336 10.2616 26.6874ZM8.0156 24.4158C8.46116 24.4158 8.82304 24.7776 8.82304 25.2232C8.82304 25.6681 8.46123 26.03 8.0156 26.03C7.85123 26.03 7.54504 26.0313 7.21129 26.0325H6.75073V24.4158H8.0156V24.4158ZM8.40054 30.1145C8.0981 30.1145 7.36191 30.117 6.75073 30.1195V27.9085C6.88698 27.9079 7.0276 27.9073 7.16441 27.9073H8.40054C9.00923 27.9073 9.50417 28.4022 9.50417 29.0109C9.50423 29.6189 9.00923 30.1145 8.40054 30.1145Z" fill="#858585"/>
</svg>
