<svg width="32" height="32" viewBox="0 0 32 32" fill="none" xmlns="http://www.w3.org/2000/svg">
<path d="M24.2064 24.4302C22.4659 20.3823 16.0787 19.9878 15.0023 24.1562C14.9965 24.1787 14.9915 24.2014 14.9872 24.2242C14.6722 25.9252 14.9217 26.9566 15.1221 27.7854C15.3348 28.6647 15.4752 29.2455 14.9039 30.6126C14.629 31.2703 15.1123 31.9991 15.8272 31.9991H21.8379C22.3905 31.9991 22.8386 31.5511 22.8386 30.9985V29.5024C22.8386 28.6555 24.7697 26.8257 24.2627 24.6029C24.2492 24.5438 24.2303 24.486 24.2064 24.4302ZM21.6282 27.2723C20.7833 28.806 20.8373 29.088 20.8373 29.9978H17.1967C17.6785 27.7235 16.4975 27.1212 16.9485 24.6251C17.5428 22.4562 21.277 22.8893 22.3279 25.1318C22.4373 25.8031 22.0438 26.5176 21.6282 27.2723Z" fill="#057CC3"/>
<path d="M27.2755 17.0846C26.5156 15.9524 24.8322 15.9495 24.0704 17.0846C22.8626 18.8843 22.8626 21.2328 24.0704 23.0326C24.8302 24.1647 26.5136 24.1678 27.2755 23.0326C28.4832 21.2329 28.4832 18.8842 27.2755 17.0846ZM25.6729 21.8258C24.9979 20.7461 24.9964 19.3734 25.6729 18.2913C26.3479 19.3709 26.3494 20.7438 25.6729 21.8258Z" fill="#057CC3"/>
<path d="M0.941897 7.91139C7.06794 10.5016 11.7684 14.0368 15.3118 18.7191C16.5789 20.3933 18.9501 20.8117 20.7094 19.6796C22.3739 18.6085 23.8136 16.6364 24.2106 14.8838C24.5819 13.2446 23.5864 11.5931 21.9442 11.1239C15.947 9.41058 10.832 6.35328 7.39009 1.18225C7.03817 0.653586 6.29167 0.584602 5.84762 1.03103L0.622183 6.28392C0.122911 6.78582 0.289272 7.63539 0.941897 7.91139ZM6.42482 3.28854C10.1731 8.34562 15.4364 11.3461 21.3944 13.0483C22.0158 13.2258 22.3954 13.8379 22.2586 14.4417C21.9727 15.704 20.8656 17.1991 19.6263 17.9966C18.7397 18.5674 17.5455 18.3542 16.9077 17.5114C13.4126 12.893 8.87571 9.33397 3.06863 6.66236L6.42482 3.28854Z" fill="#057CC3"/>
<path d="M27.4453 10.6478L13.9489 0.209183C13.5118 -0.128919 12.8833 -0.0486774 12.5451 0.38849C12.207 0.825658 12.2873 1.45414 12.7245 1.79224L26.221 12.2309C28.9192 14.3178 30.1971 17.7495 29.463 21.0939L27.3907 30.7229C27.2563 31.347 27.7327 31.9343 28.3699 31.9343C28.8313 31.9343 29.2462 31.6133 29.3472 31.144L31.4186 21.519C32.3122 17.4482 30.7751 13.2231 27.4453 10.6478Z" fill="#858585"/>
<path d="M11.7535 18.5947L1.95713 10.7527C1.52571 10.4073 0.895918 10.4771 0.550561 10.9085C0.205205 11.34 0.274939 11.9698 0.706416 12.3151L10.5028 20.1571C11.2801 20.7793 11.7247 21.7387 11.6921 22.7232L11.4192 30.9661C11.4005 31.5314 11.8534 31.9999 12.42 31.9999C12.9572 31.9999 13.4015 31.5734 13.4194 31.0323L13.6923 22.7894C13.7457 21.1774 13.0209 19.6093 11.7535 18.5947Z" fill="#858585"/>
</svg>
