<svg width="36" height="36" viewBox="0 0 36 36" fill="none" xmlns="http://www.w3.org/2000/svg">
<rect x="0.5" y="0.5" width="35" height="35" rx="4.5" fill="white" stroke="#057CC3"/>
<g clip-path="url(#clip0_11265_30358)">
<path d="M18 18C21.309 18 24 15.309 24 12C24 8.691 21.309 6 18 6C14.691 6 12 8.691 12 12C12 15.309 14.691 18 18 18ZM18 8C20.206 8 22 9.794 22 12C22 14.206 20.206 16 18 16C15.794 16 14 14.206 14 12C14 9.794 15.794 8 18 8ZM28 29C28 29.553 27.553 30 27 30C26.447 30 26 29.553 26 29C26 26.214 24.363 23.802 22 22.676V25.172C23.164 25.585 24 26.696 24 28V29C24 29.553 23.553 30 23 30C22.447 30 22 29.553 22 29V28C22 27.448 21.552 27 21 27C20.448 27 20 27.448 20 28V29C20 29.553 19.553 30 19 30C18.447 30 18 29.553 18 29V28C18 26.696 18.836 25.585 20 25.172V22.072C19.673 22.025 19.339 22 19 22H17C16.305 22 15.634 22.102 15 22.292V25.269C15.598 25.615 16 26.261 16 27.001C16 28.106 15.105 29.001 14 29.001C12.895 29.001 12 28.106 12 27.001C12 26.261 12.402 25.615 13 25.269V23.26C11.188 24.527 10 26.628 10 29.001C10 29.554 9.553 30.001 9 30.001C8.447 30.001 8 29.554 8 29.001C8 24.038 12.037 20.001 17 20.001H19C23.963 20.001 28 24.037 28 29Z" fill="#057CC3"/>
</g>
<defs>
<clipPath id="clip0_11265_30358">
<rect width="24" height="24" fill="white" transform="translate(6 6)"/>
</clipPath>
</defs>
</svg>
