<svg width="24" height="24" viewBox="0 0 24 24" fill="none" xmlns="http://www.w3.org/2000/svg">
<path d="M18.0859 9.197C18.3788 8.9041 18.3788 8.42923 18.0859 8.13634C17.793 7.84344 17.3181 7.84344 17.0252 8.13634L18.0859 9.197ZM9.77776 16.4445L9.24743 16.9748C9.54032 17.2677 10.0152 17.2677 10.3081 16.9748L9.77776 16.4445ZM6.97471 12.5808C6.68181 12.2879 6.20694 12.2879 5.91404 12.5808C5.62115 12.8737 5.62115 13.3486 5.91405 13.6414L6.97471 12.5808ZM17.0252 8.13634L9.24743 15.9141L10.3081 16.9748L18.0859 9.197L17.0252 8.13634ZM5.91405 13.6414L9.24743 16.9748L10.3081 15.9141L6.97471 12.5808L5.91405 13.6414ZM21.25 12C21.25 17.1086 17.1086 21.25 12 21.25V22.75C17.9371 22.75 22.75 17.9371 22.75 12H21.25ZM12 21.25C6.89137 21.25 2.75 17.1086 2.75 12H1.25C1.25 17.9371 6.06294 22.75 12 22.75V21.25ZM2.75 12C2.75 6.89137 6.89137 2.75 12 2.75V1.25C6.06294 1.25 1.25 6.06294 1.25 12H2.75ZM12 2.75C17.1086 2.75 21.25 6.89137 21.25 12H22.75C22.75 6.06294 17.9371 1.25 12 1.25V2.75Z" fill="#008C99"/>
</svg>
