<svg width="24" height="24" viewBox="0 0 24 24" fill="none" xmlns="http://www.w3.org/2000/svg">
<mask id="mask0_6920_15317" style="mask-type:alpha" maskUnits="userSpaceOnUse" x="0" y="0" width="24" height="24">
<rect y="-1.90735e-06" width="24" height="24" fill="#D9D9D9"/>
</mask>
<g mask="url(#mask0_6920_15317)">
<path d="M8.5 22C8.06667 22 7.70833 21.8583 7.425 21.575C7.14167 21.2917 7 20.9333 7 20.5C7 20.0667 7.14167 19.7083 7.425 19.425C7.70833 19.1417 8.06667 19 8.5 19C8.93333 19 9.29167 19.1417 9.575 19.425C9.85833 19.7083 10 20.0667 10 20.5C10 20.9333 9.85833 21.2917 9.575 21.575C9.29167 21.8583 8.93333 22 8.5 22ZM19.5 22C19.0667 22 18.7083 21.8583 18.425 21.575C18.1417 21.2917 18 20.9333 18 20.5C18 20.0667 18.1417 19.7083 18.425 19.425C18.7083 19.1417 19.0667 19 19.5 19C19.9333 19 20.2917 19.1417 20.575 19.425C20.8583 19.7083 21 20.0667 21 20.5C21 20.9333 20.8583 21.2917 20.575 21.575C20.2917 21.8583 19.9333 22 19.5 22ZM13.5 7.6L9.6 2.9C10.2 2.6 10.85 2.375 11.55 2.225C12.25 2.075 13 2 13.8 2C14.65 2 15.4627 2.12066 16.238 2.362C17.0127 2.604 17.7 2.95 18.3 3.4L13.5 7.6ZM12 18C10.6167 18 9.43767 17.5127 8.463 16.538C7.48767 15.5627 7 14.3833 7 13V5.3L6.5 4.7C6.26667 4.41666 6.071 4.229 5.913 4.137C5.75433 4.04566 5.58333 4 5.4 4C5 4 4.66667 4.15 4.4 4.45C4.13333 4.75 4 5.1 4 5.5H2C2 4.55 2.329 3.729 2.987 3.037C3.64567 2.34566 4.45 2 5.4 2C5.9 2 6.35833 2.11666 6.775 2.35C7.19167 2.58333 7.61667 2.95 8.05 3.45L18.75 16.35C19.0333 16.6833 19.0877 17.0417 18.913 17.425C18.7377 17.8083 18.4333 18 18 18H12ZM12 16H15.85L9 7.7V13C9 13.8333 9.29167 14.5417 9.875 15.125C10.4583 15.7083 11.1667 16 12 16Z" fill="white"/>
</g>
</svg>
