<svg width="17" height="17" viewBox="0 0 17 17" fill="none" xmlns="http://www.w3.org/2000/svg">
<path d="M16.4525 8.76979L8.95249 0.436457C8.63666 0.0847899 8.02999 0.0847899 7.71416 0.436457L0.214153 8.76979C0.1062 8.88945 0.0353404 9.0379 0.01019 9.19709C-0.0149603 9.35628 0.00668229 9.51934 0.0724865 9.66646C0.20582 9.96729 0.504153 10.1606 0.83332 10.1606H2.49999V15.994C2.49999 16.215 2.58778 16.4269 2.74407 16.5832C2.90035 16.7395 3.11231 16.8273 3.33332 16.8273H13.3333C13.5543 16.8273 13.7663 16.7395 13.9226 16.5832C14.0789 16.4269 14.1667 16.215 14.1667 15.994V10.1606H15.8333C15.9947 10.1613 16.1528 10.115 16.2884 10.0274C16.4239 9.9398 16.531 9.81464 16.5966 9.6672C16.6623 9.51976 16.6836 9.35641 16.658 9.19706C16.6324 9.03771 16.561 8.88926 16.4525 8.76979ZM11.6667 10.994H9.16666V13.494H7.49999V10.994H4.99999V9.32729H7.49999V6.82729H9.16666V9.32729H11.6667V10.994Z" fill="#057CC3"/>
</svg>
