<svg width="20" height="20" viewBox="0 0 20 20" fill="none" xmlns="http://www.w3.org/2000/svg">
<g clip-path="url(#clip0_465_4472)">
<path d="M15.8333 4.16666H13.3333V3.33333C13.3333 2.67029 13.0699 2.0344 12.6011 1.56556C12.1323 1.09672 11.4964 0.833328 10.8333 0.833328H9.16667C8.50362 0.833328 7.86774 1.09672 7.3989 1.56556C6.93006 2.0344 6.66667 2.67029 6.66667 3.33333V4.16666H4.16667C3.062 4.16798 2.00296 4.6074 1.22185 5.38851C0.440735 6.16963 0.00132321 7.22867 0 8.33333L0 15C0.00132321 16.1047 0.440735 17.1637 1.22185 17.9448C2.00296 18.7259 3.062 19.1653 4.16667 19.1667H15.8333C16.938 19.1653 17.997 18.7259 18.7782 17.9448C19.5593 17.1637 19.9987 16.1047 20 15V8.33333C19.9987 7.22867 19.5593 6.16963 18.7782 5.38851C17.997 4.6074 16.938 4.16798 15.8333 4.16666ZM8.33333 3.33333C8.33333 3.11231 8.42113 2.90035 8.57741 2.74407C8.73369 2.58779 8.94565 2.49999 9.16667 2.49999H10.8333C11.0543 2.49999 11.2663 2.58779 11.4226 2.74407C11.5789 2.90035 11.6667 3.11231 11.6667 3.33333V4.16666H8.33333V3.33333ZM18.3333 15C18.3333 15.663 18.0699 16.2989 17.6011 16.7678C17.1323 17.2366 16.4964 17.5 15.8333 17.5H4.16667C3.50363 17.5 2.86774 17.2366 2.3989 16.7678C1.93006 16.2989 1.66667 15.663 1.66667 15V8.33333C1.66667 7.67029 1.93006 7.0344 2.3989 6.56556C2.86774 6.09672 3.50363 5.83333 4.16667 5.83333H15.8333C16.4964 5.83333 17.1323 6.09672 17.6011 6.56556C18.0699 7.0344 18.3333 7.67029 18.3333 8.33333V15ZM13.3333 11.6667C13.3333 11.8877 13.2455 12.0996 13.0893 12.2559C12.933 12.4122 12.721 12.5 12.5 12.5H10.8333V14.1667C10.8333 14.3877 10.7455 14.5996 10.5893 14.7559C10.433 14.9122 10.221 15 10 15C9.77899 15 9.56702 14.9122 9.41074 14.7559C9.25446 14.5996 9.16667 14.3877 9.16667 14.1667V12.5H7.5C7.27899 12.5 7.06702 12.4122 6.91074 12.2559C6.75446 12.0996 6.66667 11.8877 6.66667 11.6667C6.66667 11.4456 6.75446 11.2337 6.91074 11.0774C7.06702 10.9211 7.27899 10.8333 7.5 10.8333H9.16667V9.16666C9.16667 8.94565 9.25446 8.73369 9.41074 8.57741C9.56702 8.42113 9.77899 8.33333 10 8.33333C10.221 8.33333 10.433 8.42113 10.5893 8.57741C10.7455 8.73369 10.8333 8.94565 10.8333 9.16666V10.8333H12.5C12.721 10.8333 12.933 10.9211 13.0893 11.0774C13.2455 11.2337 13.3333 11.4456 13.3333 11.6667Z" fill="#008C99"/>
</g>
<defs>
<clipPath id="clip0_465_4472">
<rect width="20" height="20" fill="white"/>
</clipPath>
</defs>
</svg>
