<svg width="24" height="24" viewBox="0 0 24 24" fill="none" xmlns="http://www.w3.org/2000/svg">
<rect width="24" height="24" rx="3" fill="#057CC3" fill-opacity="0.1"/>
<g clip-path="url(#clip0_11580_35761)">
<path d="M18.0002 16.0839V12.6665C18.0002 9.35788 15.3088 6.66655 12.0002 6.66655C8.69151 6.66655 6.00018 9.35788 6.00018 12.6665V16.0839C4.85084 16.3805 4.00018 17.4259 4.00018 18.6665C4.00018 19.4019 4.59818 19.9999 5.33351 19.9999H18.6668C19.4022 19.9999 20.0002 19.4019 20.0002 18.6665C20.0002 17.4259 19.1495 16.3805 18.0002 16.0839ZM12.0002 7.99988C14.5728 7.99988 16.6668 10.0939 16.6668 12.6665V15.9999H7.33351V12.6665C7.33351 10.0939 9.42751 7.99988 12.0002 7.99988ZM5.33351 18.6665C5.33351 17.9312 5.93151 17.3332 6.66685 17.3332H17.3335C18.0688 17.3332 18.6668 17.9312 18.6668 18.6665H5.33351ZM17.8648 8.14055C17.6028 7.88121 17.6008 7.45988 17.8595 7.19788L18.8595 6.18655C19.1182 5.92455 19.5402 5.92255 19.8022 6.18121C20.0642 6.44055 20.0662 6.86188 19.8075 7.12388L18.8075 8.13521C18.6775 8.26721 18.5055 8.33321 18.3335 8.33321C18.1642 8.33321 17.9948 8.26855 17.8648 8.14055ZM15.0748 5.35988L15.5928 4.35988C15.7622 4.03188 16.1655 3.90521 16.4915 4.07455C16.8182 4.24388 16.9462 4.64588 16.7768 4.97321L16.2588 5.97321C16.1402 6.20255 15.9075 6.33321 15.6662 6.33321C15.5628 6.33321 15.4582 6.30921 15.3602 6.25855C15.0335 6.08921 14.9055 5.68721 15.0748 5.35988ZM4.19284 7.12455C3.93351 6.86255 3.93618 6.44121 4.19818 6.18188C4.45951 5.92255 4.88284 5.92521 5.14084 6.18721L6.14085 7.19855C6.40018 7.46055 6.39751 7.88188 6.13551 8.14121C6.00618 8.26921 5.83618 8.33388 5.66685 8.33388C5.49485 8.33388 5.32284 8.26788 5.19284 8.13588L4.19284 7.12455ZM7.22351 4.97321C7.05418 4.64655 7.18218 4.24388 7.50885 4.07455C7.83351 3.90521 8.23751 4.03188 8.40751 4.35988L8.92551 5.35988C9.09485 5.68655 8.96685 6.08921 8.64018 6.25855C8.54285 6.30921 8.43751 6.33321 8.33418 6.33321C8.09351 6.33321 7.86018 6.20255 7.74151 5.97321L7.22351 4.97321ZM9.33351 12.6665C9.33351 11.1959 10.5295 9.99988 12.0002 9.99988C12.3688 9.99988 12.6668 10.2979 12.6668 10.6665C12.6668 11.0352 12.3688 11.3332 12.0002 11.3332C11.2648 11.3332 10.6668 11.9312 10.6668 12.6665C10.6668 13.0352 10.3688 13.3332 10.0002 13.3332C9.63151 13.3332 9.33351 13.0352 9.33351 12.6665Z" fill="#057CC3"/>
</g>
<defs>
<clipPath id="clip0_11580_35761">
<rect width="16" height="16" fill="white" transform="translate(4 4)"/>
</clipPath>
</defs>
</svg>
