<svg width="36" height="36" viewBox="0 0 36 36" fill="none" xmlns="http://www.w3.org/2000/svg">
<rect x="0.5" y="0.5" width="35" height="35" rx="4.5" fill="white" stroke="#2AB2A4"/>
<path fill-rule="evenodd" clip-rule="evenodd" d="M25.1766 27.5494H10.9512V25.9688H25.1766V27.5494Z" fill="#2AB2A4"/>
<path fill-rule="evenodd" clip-rule="evenodd" d="M15.2899 12.0033C13.9914 12.2278 13.0454 13.3279 12.8905 14.6366L11.7422 24.3874H24.387L23.2363 14.6232C23.083 13.3208 22.1457 12.223 20.8544 11.997C18.9181 11.658 17.3043 11.6548 15.2899 12.0033ZM16.2706 15.4159C16.2914 15.2105 16.231 15.0053 16.1024 14.8439C15.9737 14.6825 15.7871 14.5778 15.5823 14.5522C15.3776 14.5266 15.1709 14.5821 15.0065 14.7069C14.8422 14.8317 14.7331 15.0158 14.7027 15.2199L13.9874 20.9401C13.9719 21.0443 13.9774 21.1505 14.0035 21.2526C14.0296 21.3547 14.0759 21.4505 14.1396 21.5344C14.2033 21.6183 14.2831 21.6887 14.3744 21.7413C14.4656 21.7939 14.5665 21.8278 14.6711 21.8408C14.7756 21.8539 14.8817 21.8459 14.9831 21.8174C15.0846 21.7889 15.1792 21.7403 15.2616 21.6747C15.344 21.609 15.4125 21.5275 15.4629 21.435C15.5134 21.3425 15.5448 21.2409 15.5554 21.1361L16.2706 15.4159Z" fill="#2AB2A4"/>
<path d="M9.37091 18.0642C9.37091 18.3306 9.38276 18.5937 9.40647 18.8545H7V17.2739H9.40647C9.38276 17.5347 9.37091 17.7979 9.37091 18.0642Z" fill="#2AB2A4"/>
<path d="M10.9614 13.0499C10.6566 13.4812 10.3918 13.9394 10.1703 14.4187L8.08789 13.2159L8.87819 11.8471L10.9614 13.0499Z" fill="#2AB2A4"/>
<path d="M14.4185 10.1686C13.9372 10.3922 13.4796 10.6578 13.0513 10.9605L11.8477 8.87722L13.2165 8.08691L14.4185 10.1694V10.1686Z" fill="#2AB2A4"/>
<path d="M18.0637 9.37091C17.7974 9.37091 17.5342 9.38276 17.2734 9.40647V7H18.854V9.40647C18.5913 9.38281 18.3276 9.37094 18.0637 9.37091Z" fill="#2AB2A4"/>
<path d="M23.0778 10.9605C22.6465 10.6557 22.1884 10.3909 21.709 10.1694L22.9118 8.08691L24.2806 8.87722L23.0778 10.9605Z" fill="#2AB2A4"/>
<path d="M25.9599 14.418C25.738 13.9391 25.473 13.4814 25.168 13.0507L27.2512 11.8471L28.0415 13.2159L25.9591 14.418H25.9599Z" fill="#2AB2A4"/>
<path d="M26.7572 18.0642C26.7572 17.7979 26.7454 17.5347 26.7217 17.2739H29.1281V18.8545H26.7217C26.7454 18.5937 26.7572 18.3306 26.7572 18.0642Z" fill="#2AB2A4"/>
</svg>
