<svg width="88" height="88" viewBox="0 0 88 88" fill="none" xmlns="http://www.w3.org/2000/svg">
<g filter="url(#filter0_d_15854_4020)">
<rect x="20" y="16" width="48" height="48" rx="24" fill="#2DB1A4"/>
</g>
<g clip-path="url(#clip0_15854_4020)">
<path d="M47.7611 28.612C49.8111 29.2943 51.6396 30.5162 53.0542 32.1493C54.4688 33.7825 55.4173 35.7666 55.8001 37.893C54.6322 38.6904 53.338 39.2848 51.9721 39.651C51.6738 35.6397 50.2102 31.8028 47.7611 28.612ZM44.9771 39.3C46.5706 39.9238 48.2886 40.1636 49.9921 40C49.6919 35.5089 47.8102 31.2695 44.6811 28.034C44.4541 28.022 44.2301 28 44.0001 28C42.389 27.9986 40.7943 28.3235 39.3121 28.955C40.9704 30.1454 42.3404 31.6929 43.3208 33.4834C44.3013 35.2739 44.8673 37.2616 44.9771 39.3ZM48.9341 42.065C47.2935 42.0632 45.6687 41.7458 44.1481 41.13C42.9999 42.0083 42.0077 43.0735 41.2131 44.281C45.5109 46.3073 50.4355 46.5521 54.9131 44.962C55.6077 43.4469 55.9764 41.8027 55.9951 40.136C53.8513 41.3874 51.4163 42.0536 48.9341 42.068V42.065ZM48.6551 48C45.729 48.0258 42.8391 47.3521 40.2261 46.035C39.4873 47.552 39.0651 49.2036 38.9851 50.889C41.4225 52.0228 44.1714 52.3002 46.7862 51.6762C49.401 51.0522 51.7284 49.5633 53.3911 47.451C51.8373 47.807 50.2491 47.9911 48.6551 48ZM40.6401 33.006C39.735 31.8111 38.6065 30.8034 37.3171 30.039C35.1723 31.476 33.5486 33.5667 32.6872 36.0004C31.8258 38.4341 31.7728 41.0808 32.5361 43.547C34.0442 39.259 36.8838 35.5655 40.6401 33.006ZM42.9681 39.52C42.8959 37.8465 42.4609 36.2087 41.6931 34.72C37.731 37.4283 34.93 41.5252 33.8441 46.2L33.7261 46.173C34.5812 47.5945 35.7203 48.8245 37.0721 49.786C37.6232 45.726 39.739 42.042 42.9681 39.52Z" fill="white"/>
</g>
<defs>
<filter id="filter0_d_15854_4020" x="0" y="0" width="88" height="88" filterUnits="userSpaceOnUse" color-interpolation-filters="sRGB">
<feFlood flood-opacity="0" result="BackgroundImageFix"/>
<feColorMatrix in="SourceAlpha" type="matrix" values="0 0 0 0 0 0 0 0 0 0 0 0 0 0 0 0 0 0 127 0" result="hardAlpha"/>
<feOffset dy="4"/>
<feGaussianBlur stdDeviation="10"/>
<feComposite in2="hardAlpha" operator="out"/>
<feColorMatrix type="matrix" values="0 0 0 0 0 0 0 0 0 0 0 0 0 0 0 0 0 0 0.25 0"/>
<feBlend mode="normal" in2="BackgroundImageFix" result="effect1_dropShadow_15854_4020"/>
<feBlend mode="normal" in="SourceGraphic" in2="effect1_dropShadow_15854_4020" result="shape"/>
</filter>
<clipPath id="clip0_15854_4020">
<rect width="24" height="24" fill="white" transform="translate(32 28)"/>
</clipPath>
</defs>
</svg>
