<svg width="16" height="16" viewBox="0 0 16 16" fill="none" xmlns="http://www.w3.org/2000/svg">
<g clip-path="url(#clip0_465_4667)">
<path d="M10.6668 10.6667C10.6668 11.0347 10.3682 11.3333 10.0002 11.3333H8.66683V12.6667C8.66683 13.0347 8.36816 13.3333 8.00016 13.3333C7.63216 13.3333 7.3335 13.0347 7.3335 12.6667V11.3333H6.00016C5.63216 11.3333 5.3335 11.0347 5.3335 10.6667C5.3335 10.2987 5.63216 10 6.00016 10H7.3335V8.66667C7.3335 8.29867 7.63216 8 8.00016 8C8.36816 8 8.66683 8.29867 8.66683 8.66667V10H10.0002C10.3682 10 10.6668 10.2987 10.6668 10.6667ZM14.6668 6.99V12.6667C14.6668 14.5047 13.1715 16 11.3335 16H4.66683C2.82883 16 1.3335 14.5047 1.3335 12.6667V3.33333C1.3335 1.49533 2.82883 0 4.66683 0H7.67683C8.9235 0 10.0948 0.485333 10.9768 1.36667L13.3002 3.69C14.1815 4.57133 14.6668 5.74333 14.6668 6.99ZM10.0335 2.30933C9.8215 2.09733 9.58616 1.918 9.3335 1.77267V4.66667C9.3335 5.034 9.63283 5.33333 10.0002 5.33333H12.8942C12.7488 5.08067 12.5695 4.84467 12.3575 4.63333L10.0342 2.31L10.0335 2.30933ZM13.3335 6.99C13.3335 6.88133 13.3282 6.77333 13.3182 6.66667H10.0002C8.8975 6.66667 8.00016 5.76933 8.00016 4.66667V1.34867C7.8935 1.33867 7.7855 1.33333 7.67683 1.33333H4.66683C3.56416 1.33333 2.66683 2.23067 2.66683 3.33333V12.6667C2.66683 13.7693 3.56416 14.6667 4.66683 14.6667H11.3335C12.4362 14.6667 13.3335 13.7693 13.3335 12.6667V6.99Z" fill="#008C99"/>
</g>
<defs>
<clipPath id="clip0_465_4667">
<rect width="16" height="16" fill="white"/>
</clipPath>
</defs>
</svg>
