<svg width="32" height="32" viewBox="0 0 32 32" fill="none" xmlns="http://www.w3.org/2000/svg">
<path d="M7.02329 27.5814H7.1733C7.1733 27.5374 7.16907 27.4951 7.16294 27.4552L7.16279 27.4542L6.44014 22.9488C6.35211 22.2697 5.86962 21.7132 5.20937 21.5289L5.20917 21.5288L3.53119 21.0629L3.5311 21.0629C3.51509 21.0585 3.50527 21.0514 3.4985 21.0448C3.49096 21.0374 3.48595 21.0291 3.48311 21.0232L3.48312 21.0232L3.48209 21.0211C3.47738 21.0117 3.47045 20.9904 3.48151 20.9642L4.89104 17.6269L4.89106 17.6269C5.42509 16.3613 5.68465 15.0965 5.65898 13.8668L5.65897 13.8667C5.64916 13.4128 5.66682 12.9508 5.71068 12.4933L5.71068 12.4932C6.08596 8.56126 8.57047 5.03669 12.1925 3.2994C13.7333 2.57324 15.3668 2.20522 17.0487 2.20522C23.377 2.20522 28.5239 7.32712 28.5239 13.6208C28.5239 15.9458 27.8306 18.1833 26.5185 20.0913C25.7373 21.2271 25.3251 22.577 25.3251 23.9948L25.3244 30.6053C25.3244 31.0539 25.6877 31.418 26.1371 31.418C26.5856 31.418 26.9497 31.0548 26.9505 30.6062V30.606L26.9511 23.9955C26.9511 22.9053 27.2653 21.8755 27.8585 21.0135L27.8585 21.0134C29.3576 18.8326 30.15 16.276 30.15 13.6214C30.15 6.42975 24.2722 0.580469 17.0494 0.580469C15.1257 0.580469 13.2582 1.00099 11.4956 1.83206L11.4947 1.83249C7.35926 3.81574 4.52249 7.83998 4.09259 12.3388L4.09259 12.3388C4.043 12.8595 4.02357 13.3855 4.03429 13.9022L4.03429 13.9023C4.05564 14.8962 3.84158 15.9363 3.39399 16.9952L3.39397 16.9953L1.9851 20.3319C1.79464 20.7819 1.8077 21.2928 2.01996 21.7319H2.01996C2.23236 22.172 2.6256 22.4988 3.09616 22.6303L3.09649 22.6304L4.77372 23.0947C4.77382 23.0948 4.77391 23.0948 4.77401 23.0948C4.79641 23.1012 4.82378 23.1205 4.83145 23.1787L4.83139 23.1787L4.83206 23.1829L5.54886 27.6543C5.58932 29.0952 6.77545 30.2556 8.22478 30.2556H12.4297C14.8578 30.2556 16.8323 28.2805 16.8323 25.853C16.8323 25.4036 16.4681 25.0403 16.0195 25.0403C15.571 25.0403 15.2068 25.4036 15.2068 25.853C15.2068 27.3845 13.9605 28.6302 12.4297 28.6302H8.22478C7.64614 28.6302 7.17445 28.1591 7.17329 27.5811L7.02329 27.5814ZM7.02329 27.5814C7.02462 28.2421 7.5634 28.7802 8.22478 28.7802H12.4297C14.0434 28.7802 15.3568 27.4674 15.3568 25.853C15.3568 25.4866 15.6537 25.1903 16.0195 25.1903C16.3854 25.1903 16.6823 25.4866 16.6823 25.853C16.6823 28.1977 14.775 30.1056 12.4297 30.1056H8.22478C6.85364 30.1056 5.73168 29.0049 5.69854 27.6404M7.02329 27.5814C7.02329 27.5469 7.01998 27.5125 7.01468 27.478L6.29167 22.9703C6.21214 22.35 5.7721 21.8417 5.16904 21.6733L5.69854 27.6404M5.69854 27.6404L4.98017 23.1591L5.69854 27.6404ZM4.18426 13.8991C4.20613 14.917 3.98677 15.978 3.53215 17.0536L4.18426 13.8991ZM4.18426 13.8991C4.17365 13.3882 4.19287 12.8679 4.24191 12.353L4.18426 13.8991Z" fill="#858585" stroke="#858585" stroke-width="0.3"/>
<path d="M19.5575 7.74957C19.0227 6.54742 17.8511 5.77073 16.572 5.77073C14.7714 5.77073 13.3062 7.23531 13.3062 9.03654C13.3062 9.17571 13.3148 9.31289 13.332 9.44809C13.3778 9.81125 13.1206 10.1426 12.7575 10.1883C12.3983 10.2334 12.0636 9.97693 12.0172 9.61376C11.9934 9.42489 11.9814 9.23204 11.9814 9.03654C11.9814 6.505 14.0411 4.44531 16.5727 4.44531C18.2155 4.44531 19.7298 5.34726 20.5509 6.78003M19.5575 7.74957L19.4204 7.81046M19.5575 7.74957L19.4205 7.81054C19.4205 7.81051 19.4205 7.81048 19.4204 7.81046M19.5575 7.74957C19.6788 8.0226 19.9677 8.18298 20.264 8.13526C20.4012 8.11472 20.5416 8.10345 20.6848 8.10345C22.1984 8.10345 23.4291 9.33476 23.4291 10.8477C23.4291 11.362 23.2853 11.8637 23.0142 12.2984L20.5509 6.78003M19.4204 7.81046C18.9088 6.66047 17.7896 5.92073 16.572 5.92073C14.8543 5.92073 13.4562 7.31817 13.4562 9.03654C13.4562 9.16951 13.4644 9.30035 13.4808 9.42912L13.4809 9.42935C13.5369 9.87467 13.2216 10.2811 12.7762 10.3372L12.7761 10.3372C12.3353 10.3925 11.9254 10.0784 11.8684 9.63277L11.8684 9.63256C11.8437 9.43727 11.8314 9.23814 11.8314 9.03654C11.8314 6.42216 13.9583 4.29531 16.5727 4.29531C18.2412 4.29531 19.7793 5.19514 20.6359 6.6283M19.4204 7.81046C19.5687 8.14425 19.9225 8.3418 20.287 8.28349C20.417 8.26406 20.5498 8.25345 20.6848 8.25345C22.1156 8.25345 23.2791 9.41758 23.2791 10.8477C23.2791 11.3339 23.1431 11.8081 22.8869 12.219C22.6497 12.5992 22.7649 13.1006 23.1461 13.3381C23.2795 13.4218 23.4285 13.4617 23.5755 13.4617C23.8463 13.4617 24.1113 13.327 24.2665 13.08L24.2667 13.0796C24.6846 12.4102 24.9051 11.6385 24.9051 10.8477C24.9051 8.52095 23.0122 6.62804 20.6855 6.62804C20.6691 6.62804 20.6525 6.62813 20.6359 6.6283M20.6359 6.6283C20.606 6.62862 20.576 6.62921 20.5464 6.63009L20.5509 6.78003M20.6359 6.6283C20.6512 6.65385 20.6662 6.67956 20.6811 6.70545L20.5509 6.78003" fill="#057CC3" stroke="#057CC3" stroke-width="0.3"/>
<path d="M12.1825 16.0198C9.85571 16.0198 7.96279 14.1269 7.96279 11.8001C7.96279 9.47338 9.85571 7.58047 12.1825 7.58047C12.2537 7.58047 12.3261 7.58182 12.3992 7.58598M12.1825 16.0198L12.3912 7.73577M12.1825 16.0198C12.6309 16.0198 12.9959 15.656 12.9959 15.2071C12.9959 14.7585 12.6318 14.3944 12.1831 14.3944C10.7524 14.3944 9.58887 13.2309 9.58887 11.8001C9.58887 10.3694 10.753 9.20588 12.1831 9.20588C12.2277 9.20588 12.2727 9.20711 12.3178 9.209M12.1825 16.0198L12.3256 9.0592M12.3992 7.58598C12.3994 7.58599 12.3996 7.586 12.3998 7.58601L12.3912 7.73577M12.3992 7.58598C12.399 7.58597 12.3988 7.58596 12.3986 7.58595L12.3912 7.73577M12.3992 7.58598C12.8475 7.60825 13.1926 7.98996 13.17 8.43768C13.1481 8.88363 12.7712 9.23669 12.3178 9.209M12.3912 7.73577C12.7571 7.75366 13.0387 8.06513 13.0201 8.43029C13.0023 8.7961 12.6934 9.08239 12.3256 9.0592M12.3178 9.209C12.3183 9.20902 12.3188 9.20904 12.3193 9.20906L12.3256 9.0592M12.3178 9.209C12.3173 9.20897 12.3167 9.20893 12.3162 9.2089L12.3256 9.0592" fill="#057CC3" stroke="#057CC3" stroke-width="0.3"/>
<path d="M24.5974 11.1282L24.5977 11.1284C25.6954 11.7817 26.3767 12.9797 26.3768 14.2553L24.5974 11.1282ZM24.5974 11.1282C24.2112 10.8994 23.7128 11.0249 23.4834 11.4113C23.2545 11.797 23.38 12.296 23.7663 12.5254L24.5974 11.1282ZM22.7409 17.8926C20.7362 17.8926 19.1044 16.2614 19.1044 14.2561C19.1044 13.8075 19.4677 13.4434 19.9171 13.4434C20.3665 13.4434 20.7298 13.8075 20.7298 14.2561C20.7298 15.3648 21.6322 16.2672 22.7409 16.2672C23.8496 16.2672 24.752 15.3648 24.752 14.2561C24.752 13.5504 24.3745 12.8876 23.7664 12.5255L22.7409 17.8926ZM22.7409 17.8926C24.7456 17.8926 26.3774 16.2615 26.3768 14.2554L22.7409 17.8926Z" fill="#057CC3" stroke="#057CC3" stroke-width="0.3"/>
<path d="M17.0082 13.869L17.0082 13.869C16.7417 13.5075 16.8188 12.9987 17.1797 12.7328M17.0082 13.869L20.3407 12.0291C20.4191 12.4585 20.2502 12.8854 19.8983 13.1442L19.8982 13.1443C19.3964 13.5139 18.6863 13.4063 18.3159 12.9043L18.3159 12.9042C18.0495 12.5436 17.5408 12.4661 17.1797 12.7328M17.0082 13.869C17.5487 14.6016 18.3851 14.989 19.2311 14.989C19.7995 14.989 20.3723 14.8137 20.8634 14.4521L20.8635 14.4521C21.7182 13.8223 22.1305 12.7808 21.9393 11.7363C21.8585 11.2935 21.4351 11.0076 20.9958 11.0827L20.9958 11.0827M17.0082 13.869L20.9958 11.0827M17.1797 12.7328C17.1798 12.7328 17.1798 12.7327 17.1798 12.7327L17.2688 12.8535L17.1796 12.7329C17.1797 12.7328 17.1797 12.7328 17.1797 12.7328ZM20.9958 11.0827L20.9939 11.083M20.9958 11.0827L20.9939 11.083M20.9939 11.083C20.5522 11.1642 20.2594 11.5874 20.3407 12.029L20.9939 11.083Z" fill="#057CC3" stroke="#057CC3" stroke-width="0.3"/>
<path d="M16.935 9.7524L16.9346 9.75233C16.5039 9.6862 16.0821 9.86889 15.8343 10.228L15.8342 10.2282C15.5789 10.5972 15.072 10.689 14.7038 10.4346L16.935 9.7524ZM16.935 9.7524C17.2341 9.79747 17.4971 9.9563 17.677 10.2001L17.7977 10.111L17.6768 10.1999C17.8561 10.4436 17.9297 10.7415 17.8846 11.0408M16.935 9.7524L17.1784 8.1449M17.1784 8.1449L17.1786 8.14492C17.9064 8.25491 18.5489 8.64203 18.986 9.23471L18.9861 9.2348C19.4225 9.82743 19.6028 10.5554 19.4921 11.2834L19.492 11.2838C19.4296 11.6869 19.0838 11.9755 18.6884 11.9755C18.6496 11.9755 18.6078 11.9732 18.5652 11.9664C18.1217 11.8986 17.8172 11.4843 17.8846 11.0408M17.1784 8.1449C16.1328 7.98802 15.1013 8.4296 14.4973 9.30403L17.1784 8.1449ZM17.8846 11.0408C17.8846 11.0408 17.8846 11.0408 17.8846 11.0408L18.0329 11.0633L17.8846 11.041C17.8846 11.0409 17.8846 11.0409 17.8846 11.0408ZM14.4972 9.30411C14.2422 9.67299 14.3339 10.1793 14.7037 10.4346L14.4972 9.30411Z" fill="#057CC3" stroke="#057CC3" stroke-width="0.3"/>
<path d="M17.7478 21.5954C17.7478 22.0447 18.1112 22.4081 18.5605 22.4081C19.0098 22.4081 19.3732 22.0447 19.3732 21.5954V19.7067C19.3732 17.9982 17.9833 16.6083 16.2748 16.6083H14.8387C14.0766 16.6083 13.4559 15.9876 13.4559 15.2254C13.4559 14.4633 14.0766 13.8426 14.8387 13.8426C15.2874 13.8426 15.6514 13.4786 15.6514 13.0299C15.6514 12.5812 15.2874 12.2172 14.8387 12.2172C13.18 12.2172 11.8305 13.5667 11.8305 15.2254C11.8305 16.8842 13.18 18.2337 14.8387 18.2337H16.2748C17.0867 18.2337 17.7478 18.8942 17.7478 19.7067V21.5954Z" fill="#057CC3" stroke="#057CC3" stroke-width="0.3"/>
</svg>
