<svg width="32" height="32" viewBox="0 0 32 32" fill="none" xmlns="http://www.w3.org/2000/svg">
<path d="M17.4998 0C10.8818 0 5.49982 5.382 5.49982 12V13.764L2.60582 19.552C2.44982 19.862 2.46782 20.23 2.64982 20.524C2.83182 20.818 3.15382 21 3.49982 21H5.49982V25.816C5.49982 26.404 5.75582 26.958 6.20582 27.338C6.65582 27.718 7.23982 27.884 7.82382 27.786L11.4998 27.178V31C11.4998 31.294 11.6278 31.574 11.8538 31.762C12.0358 31.916 12.2638 32 12.4998 32C12.5538 32 12.6098 31.996 12.6638 31.986L24.6638 29.986C25.1458 29.906 25.4998 29.49 25.4998 29V22.838C25.4998 21.446 26.1838 20.33 26.7578 19.636C28.5258 17.5 29.4998 14.788 29.4998 12C29.4998 5.382 24.1178 0 17.4998 0ZM25.2178 18.362C24.0938 19.718 23.4998 21.266 23.4998 22.838V28.152L13.4998 29.82V26C13.4998 25.706 13.3718 25.428 13.1458 25.238C12.9638 25.084 12.7358 25 12.4998 25C12.4458 25 12.3918 25.004 12.3358 25.014L7.49982 25.816V20C7.49982 19.448 7.05182 19 6.49982 19H5.11782L7.39382 14.448C7.46382 14.308 7.49982 14.156 7.49982 14V12C7.49982 6.486 11.9858 2 17.4998 2C23.0138 2 27.4998 6.486 27.4998 12C27.4998 14.322 26.6898 16.582 25.2178 18.362Z" fill="#858585"/>
<path d="M10.7241 3C6.14343 3.60741 3 4.859 3 6.30439C3 8.34542 9.26801 10 17 10C24.732 10 31 8.34542 31 6.30439C31 5.01698 28.5062 3.88332 24.7241 3.22167" stroke="#057CC3" stroke-width="2"/>
</svg>
