<svg width="24" height="24" viewBox="0 0 24 24" fill="none" xmlns="http://www.w3.org/2000/svg">
<g clip-path="url(#clip0_15854_3792)">
<rect x="-1.5" y="-3" width="30" height="30" rx="3" fill="#057CC3" fill-opacity="0.1"/>
</g>
<g clip-path="url(#clip1_15854_3792)">
<path d="M19.3333 18.6667H6C5.82319 18.6667 5.65362 18.5964 5.5286 18.4714C5.40357 18.3464 5.33333 18.1768 5.33333 18V4.66667C5.33333 4.48986 5.2631 4.32029 5.13807 4.19526C5.01305 4.07024 4.84348 4 4.66667 4C4.48986 4 4.32029 4.07024 4.19526 4.19526C4.07024 4.32029 4 4.48986 4 4.66667V18C4 18.5304 4.21071 19.0391 4.58579 19.4142C4.96086 19.7893 5.46957 20 6 20H19.3333C19.5101 20 19.6797 19.9298 19.8047 19.8047C19.9298 19.6797 20 19.5101 20 19.3333C20 19.1565 19.9298 18.987 19.8047 18.8619C19.6797 18.7369 19.5101 18.6667 19.3333 18.6667Z" fill="#057CC3"/>
<path d="M13.9999 17.3333C14.1767 17.3333 14.3463 17.2631 14.4713 17.1381C14.5963 17.013 14.6666 16.8435 14.6666 16.6667V12C14.6666 11.8232 14.5963 11.6536 14.4713 11.5286C14.3463 11.4036 14.1767 11.3333 13.9999 11.3333C13.8231 11.3333 13.6535 11.4036 13.5285 11.5286C13.4035 11.6536 13.3333 11.8232 13.3333 12V16.6667C13.3333 16.8435 13.4035 17.013 13.5285 17.1381C13.6535 17.2631 13.8231 17.3333 13.9999 17.3333Z" fill="#057CC3"/>
<path d="M8.66667 17.3333C8.84348 17.3333 9.01305 17.2631 9.13807 17.1381C9.2631 17.013 9.33333 16.8435 9.33333 16.6667V12C9.33333 11.8232 9.2631 11.6536 9.13807 11.5286C9.01305 11.4036 8.84348 11.3333 8.66667 11.3333C8.48986 11.3333 8.32029 11.4036 8.19526 11.5286C8.07024 11.6536 8 11.8232 8 12V16.6667C8 16.8435 8.07024 17.013 8.19526 17.1381C8.32029 17.2631 8.48986 17.3333 8.66667 17.3333Z" fill="#057CC3"/>
<path d="M16.6667 17.3333C16.8435 17.3333 17.013 17.2631 17.1381 17.1381C17.2631 17.013 17.3333 16.8435 17.3333 16.6667V8.66667C17.3333 8.48986 17.2631 8.32029 17.1381 8.19526C17.013 8.07024 16.8435 8 16.6667 8C16.4899 8 16.3203 8.07024 16.1953 8.19526C16.0702 8.32029 16 8.48986 16 8.66667V16.6667C16 16.8435 16.0702 17.013 16.1953 17.1381C16.3203 17.2631 16.4899 17.3333 16.6667 17.3333Z" fill="#057CC3"/>
<path d="M11.3334 17.3333C11.5102 17.3333 11.6798 17.2631 11.8048 17.1381C11.9298 17.013 12.0001 16.8435 12.0001 16.6667V8.66667C12.0001 8.48986 11.9298 8.32029 11.8048 8.19526C11.6798 8.07024 11.5102 8 11.3334 8C11.1566 8 10.987 8.07024 10.862 8.19526C10.737 8.32029 10.6667 8.48986 10.6667 8.66667V16.6667C10.6667 16.8435 10.737 17.013 10.862 17.1381C10.987 17.2631 11.1566 17.3333 11.3334 17.3333Z" fill="#057CC3"/>
</g>
<defs>
<clipPath id="clip0_15854_3792">
<rect width="24" height="24" rx="3" fill="white"/>
</clipPath>
<clipPath id="clip1_15854_3792">
<rect width="16" height="16" fill="white" transform="translate(4 4)"/>
</clipPath>
</defs>
</svg>
