<svg width="20" height="20" viewBox="0 0 20 20" fill="none" xmlns="http://www.w3.org/2000/svg">
<g clip-path="url(#clip0_465_4551)">
<path d="M20 9.99999C20 10.46 19.6275 10.8333 19.1667 10.8333H17.1117C16.735 10.8333 16.4042 11.0875 16.3067 11.45L14.9092 16.6517C14.75 17.1725 14.305 17.5 13.7917 17.5H13.7775C13.2583 17.4942 12.815 17.1542 12.6742 16.655L9.94583 5.63333L7.2975 14.9992C7.13833 15.4967 6.7225 15.8125 6.23083 15.8317C5.72083 15.8592 5.29833 15.5692 5.11 15.1133L3.77667 11.385C3.6575 11.055 3.3425 10.8325 2.99167 10.8325H0.833333C0.3725 10.8325 0 10.4592 0 9.99916C0 9.53916 0.3725 9.16583 0.833333 9.16583H2.9925C4.04583 9.16583 4.99083 9.83166 5.34667 10.8233L6.12833 13.0117L8.865 3.33249C9.0325 2.81166 9.47083 2.47666 9.99917 2.49916C10.5142 2.50833 10.9542 2.84749 11.095 3.34249L13.8108 14.3142L14.6958 11.0175C14.9883 9.92749 15.9808 9.16583 17.11 9.16583H19.165C19.6258 9.16583 19.9983 9.53916 19.9983 9.99916L20 9.99999Z" fill="#008C99"/>
</g>
<defs>
<clipPath id="clip0_465_4551">
<rect width="20" height="20" fill="white"/>
</clipPath>
</defs>
</svg>
