<svg width="32" height="32" viewBox="0 0 32 32" fill="none" xmlns="http://www.w3.org/2000/svg">
<g clip-path="url(#clip0_4681_18108)">
<path d="M13.6188 6.87801C13.94 6.3253 14.125 5.68405 14.125 5V3.75C14.125 1.68225 12.4428 0 10.375 0C8.30728 0 6.62503 1.68225 6.62503 3.75V5C6.62503 5.68405 6.81001 6.3253 7.13126 6.87801C4.25673 6.94164 1.9375 9.29802 1.9375 12.1875V17.8125C1.9375 19.3633 3.19917 20.625 4.75003 20.625C5.07863 20.625 5.39411 20.5678 5.6875 20.4638V31.0625C5.6875 31.5803 6.10726 32 6.62503 32H14.125C14.6428 32 15.0626 31.5802 15.0626 31.0625V20.4638C15.356 20.5678 15.6714 20.625 16 20.625C17.5508 20.625 18.8126 19.3633 18.8126 17.8125V12.1875C18.8125 9.29802 16.4933 6.94164 13.6188 6.87801ZM8.50003 3.75C8.50003 2.71616 9.34119 1.875 10.375 1.875C11.4089 1.875 12.25 2.71616 12.25 3.75V5C12.25 6.03385 11.4089 6.875 10.375 6.875C9.34119 6.875 8.50003 6.03391 8.50003 5V3.75ZM16.9375 17.8125C16.9375 18.3295 16.5169 18.75 16 18.75C15.483 18.75 15.0625 18.3294 15.0625 17.8125V12.8125C15.0625 12.2948 14.6427 11.8751 14.125 11.8751C13.6072 11.8751 13.1875 12.2948 13.1875 12.8125V30.1251H11.3125V21.5625C11.3125 21.0448 10.8927 20.6251 10.375 20.6251C9.85727 20.6251 9.4375 21.0448 9.4375 21.5625V30.125H7.5625V12.8125C7.5625 12.2947 7.14274 11.875 6.62497 11.875C6.1072 11.875 5.68744 12.2948 5.68744 12.8125V17.8125C5.68744 18.3294 5.26686 18.7499 4.74997 18.7499C4.23308 18.7499 3.81244 18.3294 3.81244 17.8125V12.1875C3.81244 10.2921 5.35452 8.75 7.24997 8.75H13.5C15.3954 8.75 16.9375 10.2921 16.9375 12.1875V17.8125Z" fill="#858585"/>
<path d="M29.125 0H21.625C21.1073 0 20.6875 0.419762 20.6875 0.937532V31.0625C20.6875 31.5803 21.1073 32 21.625 32H29.125C29.6428 32 30.0625 31.5802 30.0625 31.0625V0.937532C30.0625 0.419762 29.6427 0 29.125 0V0ZM28.1875 30.125H22.5625V28.1875H24.125C24.6427 28.1875 25.0624 27.7677 25.0624 27.25C25.0624 26.7323 24.6427 26.3126 24.125 26.3126H22.5625V24.4376H25.375C25.8927 24.4376 26.3125 24.0178 26.3125 23.5001C26.3125 22.9824 25.8927 22.5626 25.375 22.5626H22.5625V20.6876H24.125C24.6427 20.6876 25.0624 20.2679 25.0624 19.7502C25.0624 19.2324 24.6427 18.8127 24.125 18.8127H22.5625V16.9377H25.375C25.8927 16.9377 26.3125 16.5179 26.3125 16.0002C26.3125 15.4824 25.8927 15.0627 25.375 15.0627H22.5625V13.1877H24.125C24.6427 13.1877 25.0624 12.7679 25.0624 12.2502C25.0624 11.7324 24.6427 11.3127 24.125 11.3127H22.5625V9.43769H25.375C25.8927 9.43769 26.3125 9.01792 26.3125 8.50022C26.3125 7.98251 25.8927 7.56269 25.375 7.56269H22.5625V5.6875H24.125C24.6427 5.6875 25.0624 5.26773 25.0624 4.75003C25.0624 4.23232 24.6427 3.8125 24.125 3.8125H22.5625V1.875H28.1875V30.125Z" fill="#057CC3"/>
</g>
<defs>
<clipPath id="clip0_4681_18108">
<rect width="32" height="32" fill="white"/>
</clipPath>
</defs>
</svg>
