<svg width="32" height="32" viewBox="0 0 32 32" fill="none" xmlns="http://www.w3.org/2000/svg">
<path d="M21.0986 20.7619C22.0688 20.7619 22.9872 20.2774 23.504 19.4528C23.4643 20.547 23.186 23.2981 21.3585 25.2266C20.1397 26.5043 18.4168 27.2014 16.1755 27.2014C13.9874 27.2014 12.2794 26.5145 10.9381 25.2069C9.80559 24.0559 9.23509 22.5649 8.95454 21.2841C8.7848 20.5093 8.72768 19.8424 8.70897 19.4219C9.22633 20.2439 10.1432 20.7267 11.1118 20.7267C12.1424 20.7267 13.1145 20.1801 13.609 19.2597C14.0815 20.1742 15.032 20.7619 16.1052 20.7619C17.1423 20.7619 18.1201 20.2083 18.6117 19.2775C19.0873 20.1818 20.0324 20.7619 21.0986 20.7619Z" stroke="#057CC3" stroke-width="2"/>
<path d="M16.1757 31.6131C22.5053 31.6131 27.6746 26.2681 27.6746 19.6922C27.6746 13.3274 17.3009 1.12521 16.879 0.597733C16.7031 0.386744 16.457 0.28125 16.1757 0.28125C15.8943 0.28125 15.6482 0.386744 15.4724 0.597733C15.0504 1.12521 4.67677 13.3274 4.6416 19.6922C4.6416 26.2681 9.81083 31.6131 16.1757 31.6131ZM16.1757 2.60213C19.4108 6.54059 25.846 15.2966 25.846 19.6922C25.846 25.2834 21.4856 29.8197 16.1405 29.8197C10.7954 29.8197 6.43501 25.2834 6.43501 19.6922C6.47017 15.2966 12.9405 6.54059 16.1757 2.60213Z" fill="#858585"/>
</svg>
