<svg width="30" height="30" viewBox="0 0 30 30" fill="none" xmlns="http://www.w3.org/2000/svg">
<path fill-rule="evenodd" clip-rule="evenodd" d="M4.99902 22.0025V8.49978C4.99902 6.56678 6.56603 4.99978 8.49902 4.99978H22.499C24.432 4.99978 25.999 6.56678 25.999 8.49978V18.3644L20.2647 13.1277C20.0583 12.9424 19.7405 12.9606 19.5565 13.1681L15.3113 17.9578L12.7368 15.1626C12.5463 14.954 12.221 14.9445 12.0187 15.1416L4.99902 22.0025ZM11.9995 11.9998C13.104 11.9998 13.9995 11.1044 13.9995 9.99979C13.9995 8.89522 13.104 7.99979 11.9995 7.99979C10.8949 7.99979 9.99947 8.89522 9.99947 9.99979C9.99947 11.1044 10.8949 11.9998 11.9995 11.9998ZM12.3466 16.2183L5.0931 23.309C5.45826 24.8519 6.84462 25.9999 8.4991 25.9999H21.3586L12.3466 16.2183ZM15.9928 18.6972L22.713 25.9934C24.5466 25.8832 25.9996 24.3612 25.9996 22.4998V19.7184L19.9717 14.208L15.9928 18.6972ZM10.9988 9.99976C10.9988 10.552 11.4465 10.9998 11.9988 10.9998C12.5511 10.9998 12.9988 10.552 12.9988 9.99976C12.9988 9.44748 12.5511 8.99976 11.9988 8.99976C11.4465 8.99976 10.9988 9.44748 10.9988 9.99976Z" fill="#008C99"/>
</svg>
