<svg width="128" height="44" viewBox="0 0 128 44" fill="none" xmlns="http://www.w3.org/2000/svg">
<g clip-path="url(#clip0_11523_33983)">
<path d="M26.794 23.4232C26.7926 23.4234 26.7911 23.4236 26.7896 23.4238C26.7851 23.4241 26.7188 23.3157 26.7188 23.3157L26.7297 23.4317C26.718 23.4332 26.7062 23.4347 26.6945 23.4363C26.7075 23.4484 26.7204 23.4604 26.7335 23.4723L26.794 23.4232Z" fill="#057CC3"/>
<path d="M127.349 23.4294C126.928 23.2766 126.512 23.0126 126.085 22.9944C125.506 22.9696 125.238 22.342 124.59 22.4024C124.135 22.663 123.621 22.9577 123.13 23.2392C122.715 23.1324 122.412 22.9245 122.186 22.6076C122.002 22.3508 121.765 22.152 121.443 22.1842C120.567 22.2719 119.843 21.9155 119.119 21.4913C118.875 21.3488 118.525 21.2322 118.269 21.2945C117.043 21.5942 115.885 21.2147 114.71 21.0132C113.452 20.7977 112.204 20.5202 110.942 20.3408C109.158 20.0873 107.366 19.8929 105.576 19.685C104.384 19.5467 103.191 19.4021 101.995 19.3113C101.172 19.2487 100.372 19.1864 99.5663 18.9244C98.573 18.6015 97.5267 18.4187 96.4649 18.4062C95.2647 18.392 94.056 18.4456 92.8668 18.3198C91.2997 18.1541 89.725 18.1525 88.156 17.9542C86.5335 17.7493 84.8973 17.5968 83.2272 17.7489C81.6709 17.8906 80.062 17.8142 78.5137 17.5828C77.0129 17.3586 75.5235 17.222 74.0341 17.3905C72.4351 17.5715 70.8999 17.0918 69.3253 17.1147C68.1358 16.5189 66.82 16.6909 65.5633 16.529C64.6734 16.4143 63.7705 16.4003 62.8879 16.1964C62.5988 16.1296 62.2825 16.077 61.9953 16.1226C60.5682 16.3487 59.145 16.1305 57.721 16.1224C55.3929 16.1092 53.0651 16.0244 50.7415 16.2756C50.0726 16.348 49.386 16.3744 48.7179 16.3113C47.5157 16.198 46.3174 16.2022 45.1172 16.2717C43.5935 16.36 42.1253 16.1377 40.6999 15.5863C40.2125 15.3977 39.7041 15.1958 39.1922 15.151C37.4744 15.0006 35.7695 14.6841 34.0327 14.7576C31.0358 14.8843 28.0381 14.9953 25.0403 15.101C23.6891 15.1487 22.3337 15.2408 20.9859 15.1829C18.9516 15.0955 16.9368 15.1927 14.9235 15.4713C14.4824 15.5324 14.0168 15.5607 13.5813 15.4892C12.5728 15.3235 11.6622 15.4643 10.7744 16.0017C10.4087 16.223 9.92244 16.2907 9.48173 16.3342C7.83856 16.4963 6.21003 16.8092 4.54933 16.7993C3.44286 16.7928 2.50621 17.2353 1.7218 18.0001C1.63055 18.089 1.61639 18.2571 1.54688 18.4401C1.87558 18.716 2.26628 18.963 2.5476 19.301C2.87713 19.697 3.11132 20.1722 3.38325 20.6072C4.29706 20.8641 5.19086 20.7162 6.08086 20.6213C7.21203 20.5007 8.31986 20.5507 9.42905 20.847C10.0006 20.9997 10.6119 21.0196 11.2079 21.0618C12.48 21.1518 13.7534 20.8368 15.03 21.0694C15.2343 21.1066 15.4679 20.999 15.6851 20.9469C16.1228 20.842 16.5568 20.7217 16.9955 20.6217C17.4421 20.5198 17.8595 20.5226 18.2812 20.7942C18.6658 21.0418 19.1461 21.1062 19.5886 20.9848C20.629 20.6992 21.6723 20.8716 22.7155 20.8951C22.7619 21.0662 22.7086 21.208 22.5371 21.263C22.1123 21.3993 21.6818 21.5173 21.2537 21.6427L21.2775 21.6556C20.9314 22.015 20.3857 22.1888 20.2542 22.7605C20.8847 23.4751 21.6193 23.8038 22.6137 23.5985C23.5537 23.4045 24.5134 23.3714 25.4824 23.544C25.8677 23.6126 26.2868 23.4921 26.6944 23.4362C26.3767 23.1429 26.0687 22.8444 25.5672 22.9051C25.35 22.9313 25.1127 22.9091 24.9047 22.844C24.8038 22.8124 24.7387 22.6363 24.6832 22.5139C24.6721 22.4895 24.7693 22.3851 24.8323 22.3638C25.0373 22.2941 25.2623 22.1703 25.457 22.2028C26.2023 22.3271 26.9377 22.404 27.6945 22.2824C28.4206 22.1658 29.1565 21.9336 29.839 22.5253C30.0215 22.6835 30.4135 22.6172 30.7099 22.6233C31.4581 22.6387 32.2066 22.6372 32.955 22.6415C34.2289 22.6487 35.5028 22.6642 36.7766 22.6529C36.992 22.651 37.2091 22.5394 37.4195 22.4624C37.4766 22.4415 37.5244 22.3677 37.5547 22.3072C37.6228 22.1713 37.5617 22.0286 37.3732 21.9985C35.5365 21.7061 33.7226 21.2595 31.8556 21.1709C31.9589 20.8696 32.1668 20.7208 32.5023 20.7309C34.526 20.7921 36.5497 20.853 38.5737 20.9058C39.3211 20.9253 40.0845 20.8302 40.8134 20.9512C42.0755 21.1607 43.3608 20.9938 44.6176 21.2837C45.1165 21.3988 45.6645 21.3025 46.1902 21.3001C46.9396 21.2967 47.6899 21.2658 48.4382 21.2923C49.6411 21.3348 50.8357 21.3043 52.0374 21.1953C53.0535 21.1032 54.1186 20.79 55.0821 21.4935C55.2405 21.6091 55.5229 21.6037 55.7406 21.5816C57.6015 21.3919 59.4903 21.8595 61.3389 21.3389C61.546 21.2806 61.7879 21.3302 62.0118 21.3502C63.6583 21.4969 65.3062 21.4734 66.9569 21.4514C67.7138 21.4412 68.4475 21.3892 69.1892 21.2371C69.846 21.1026 70.5381 20.956 71.1916 21.027C72.7015 21.191 74.1797 20.9378 75.6704 20.8522C76.1913 20.8223 76.6996 20.7311 77.2151 20.6092C77.9336 20.4392 78.6973 20.4318 79.4428 20.4191C79.7233 20.4143 80.0099 20.5807 80.2878 20.6849C80.4579 20.7487 80.5972 21.1426 80.4932 21.2644C80.4021 21.3712 80.2811 21.5215 80.1662 21.5282C78.9688 21.5973 77.7696 21.6634 76.5746 21.4835C76.1726 21.423 75.847 21.6048 75.533 21.8218C76.3951 22.484 76.4183 22.4724 76.8081 23.2482C76.9972 23.6246 77.2547 23.8485 77.6539 23.8824C78.146 23.9241 78.475 24.2442 78.8044 24.5384C78.9426 24.6617 79.0197 24.9221 79.0156 25.1179C79.011 25.3315 78.8702 25.5396 78.8065 25.7553C78.6507 26.2823 79.0929 26.8692 79.6057 26.7565C80.0497 26.6589 80.4671 26.4811 80.8887 26.7915C81.7813 26.8383 82.6685 26.8979 83.5691 26.8729C84.4458 26.8485 85.314 27.2136 86.2146 27.172C86.2488 27.1704 86.3111 27.0768 86.3037 27.0368C86.2913 26.9708 86.2267 26.9165 86.1947 26.852C86.1424 26.7463 86.0986 26.6364 86.0411 26.5052C86.6567 26.4967 87.2468 26.496 87.8363 26.4782C88.3607 26.4623 88.8843 26.4195 89.4087 26.4033C90.0093 26.3846 90.6104 26.3821 91.2112 26.3726C91.2115 26.3666 91.2117 26.3604 91.2121 26.3544C91.5734 26.7115 91.9904 26.9619 92.5099 27.04C93.1762 27.1401 93.8431 27.2426 94.5032 27.3762C96.0626 27.6916 97.602 27.8134 99.132 27.1936C99.4601 27.0607 99.8726 27.0789 100.239 27.1122C100.683 27.1527 101.127 27.2584 101.558 27.3804C102.082 27.5288 102.535 27.375 102.982 27.1502C102.993 27.1609 103.004 27.1723 103.005 27.1715C103.686 27.4668 104.37 27.7539 105.038 28.0722C105.127 28.1144 105.195 28.328 105.172 28.4411C105.147 28.5614 105.016 28.7293 104.906 28.7512C104.097 28.9121 103.29 29.0249 102.456 28.8576C101.949 28.7559 101.417 28.7624 100.896 28.7598C100.804 28.7593 100.649 28.9467 100.636 29.0598C100.624 29.1735 100.723 29.3604 100.826 29.4146C101.137 29.5784 101.473 29.6934 101.808 29.8308C101.702 30.025 101.603 30.1432 101.571 30.2774C101.474 30.6923 101.261 30.9222 100.806 30.8585C100.739 30.8492 100.658 30.8801 100.597 30.9155C100.543 30.9473 100.479 31.0049 100.467 31.0614C100.43 31.2334 100.515 31.3809 100.695 31.3863C101.216 31.4019 101.773 31.5006 102.251 31.355C102.847 31.1738 103.411 31.0869 104.015 31.1975C105.066 31.3899 106.112 31.1608 107.16 31.1416C107.455 31.1362 107.736 31.0396 107.946 30.7749C108.147 30.5212 108.458 30.4805 108.765 30.5293C109.361 30.624 109.957 30.6861 110.556 30.5663C110.995 30.4785 111.46 30.4361 111.709 29.9763C112.475 29.675 113.249 29.2994 113.997 29.9926C114.416 30.3814 114.869 30.5262 115.435 30.4053C115.652 30.359 115.857 30.6714 115.78 30.8495C115.516 31.4636 115.183 32.0275 114.632 32.4324C114.357 32.3136 114.083 32.1953 113.764 32.0575C113.55 32.2513 113.297 32.4256 113.121 32.6575C112.994 32.8243 112.857 33.1087 112.916 33.2706C113.199 34.0457 113.05 34.9326 113.538 35.6536C114.076 35.4378 114.241 34.9279 114.463 34.479C114.588 34.2265 114.499 33.8389 114.815 33.7143C115.146 33.584 115.312 33.9639 115.572 34.0735C115.735 34.1426 115.856 34.0521 115.934 33.893C116.031 33.6944 116.146 33.5044 116.244 33.3267C116.485 33.3411 116.701 33.6393 116.883 33.3987C117.187 32.9946 117.628 32.6683 117.588 32.0455C117.571 31.7851 117.779 31.4953 117.927 31.244C118.039 31.0547 118.231 30.9145 118.366 30.7364C118.567 30.4714 118.57 30.1807 118.4 29.8986C118.324 29.7718 118.225 29.6555 118.121 29.5487C117.939 29.3603 117.928 29.1583 118.109 28.988C118.21 28.8931 118.376 28.8207 118.513 28.8203C118.822 28.8194 119.093 28.9574 119.294 29.1957C119.474 29.4091 119.294 29.6092 119.255 29.8211C119.159 30.3527 119.492 30.8243 120.039 30.9434C120.176 30.9732 120.414 30.835 120.469 30.8965C121.004 31.4927 121.852 31.782 122.144 32.6235C122.23 32.8722 122.528 32.8751 122.683 32.675C123.216 31.9865 123.658 31.3061 122.779 30.5376C122.631 30.4083 122.611 30.1353 122.524 29.9318C122.265 29.3207 122.002 28.7111 121.751 28.1239C120.793 28.1485 119.911 27.8727 119.012 28.071C118.812 28.115 118.529 28.0794 118.371 27.9633C117.726 27.4915 116.946 27.5399 116.235 27.3308C114.513 26.8241 112.797 26.3101 110.972 26.3836C110.898 26.3865 110.82 26.3771 110.749 26.3569C109.592 26.0292 108.414 25.8437 107.21 25.8074C106.93 25.7989 106.848 25.4552 107.033 25.1325C107.065 25.0769 107.097 25.022 107.133 24.9622C106.841 24.679 106.438 24.7285 106.089 24.6248C105.803 24.54 105.497 24.5264 105.203 24.4655C104.838 24.3898 104.471 24.3139 104.114 24.2076C103.828 24.1223 103.553 23.9964 103.277 23.8793C102.999 23.7612 102.613 23.9838 102.338 23.5909C103.01 23.641 103.589 23.6242 104.185 23.5391C104.757 23.4576 105.365 23.6467 105.959 23.6946C106.551 23.7424 107.145 23.7626 107.732 23.7945C107.755 23.6982 107.8 23.6238 107.779 23.5798C107.718 23.4487 107.631 23.3296 107.554 23.2058C107.666 23.1451 107.791 23.0162 107.889 23.0346C108.625 23.1739 109.362 23.3173 110.085 23.5104C110.53 23.6293 110.872 23.944 111.129 24.3263C111.209 24.4452 111.263 24.6003 111.274 24.7432C111.294 25.0049 111.04 25.3017 111.385 25.5181C111.534 25.5006 111.682 25.4741 111.83 25.4675C113.993 25.3715 116.164 25.663 118.324 25.3096C118.679 25.2516 119.082 25.3404 119.434 25.4517C120.299 25.7247 120.885 25.389 121.349 24.6922C121.432 24.5684 121.529 24.4519 121.633 24.3453C121.912 24.0593 122.259 23.9344 122.652 23.9822C122.949 24.0182 123.243 24.0833 123.534 24.1524C124.533 24.3899 126.012 24.3785 126.782 24.1305C126.923 24.085 127.079 24.0896 127.225 24.0564C127.294 24.0407 127.366 24.0011 127.418 23.9528C127.466 23.9079 127.499 23.8402 127.525 23.7771C127.593 23.6105 127.531 23.4952 127.349 23.4294ZM25.2974 21.0205L25.3137 20.8914L25.461 20.9741L25.2974 21.0205ZM28.3898 21.1209L28.4296 20.9972L28.5732 21.1045L28.3898 21.1209ZM30.3024 21.131C30.1212 21.1261 30.0228 21.0341 30.0351 20.8653C30.0373 20.8354 30.1266 20.7893 30.1762 20.7887C30.7419 20.7818 31.2793 20.8989 31.7862 21.1674C31.2916 21.1555 30.7969 21.1444 30.3024 21.131ZM81.5895 23.5726C81.3881 23.6516 81.1405 23.8134 80.9768 23.7552C79.9885 23.4036 78.9956 23.3705 77.9797 23.5749C77.9213 23.5867 77.8281 23.5366 77.7842 23.4864C77.6976 23.3874 77.6236 23.2728 77.5704 23.1532C77.5598 23.1294 77.6564 23.0309 77.7191 23.0057C78.4956 22.6939 79.2756 22.6367 79.8857 22.9077C80.5274 23.2327 81.0894 22.8251 81.5378 23.2053C81.5833 23.2439 81.6116 23.3189 81.6199 23.3808C81.6285 23.4449 81.6213 23.5601 81.5895 23.5726ZM82.3424 22.9107C82.1236 22.9236 81.9036 22.9149 81.7034 22.9145C81.5847 22.7977 81.4859 22.7003 81.3869 22.6029C81.5004 22.53 81.611 22.4019 81.7278 22.396C81.9419 22.3853 82.1686 22.4208 82.3712 22.4912C82.4484 22.5181 82.4842 22.6914 82.5135 22.8046C82.5189 22.8255 82.4045 22.907 82.3424 22.9107ZM120.993 28.8689C121.107 28.8949 121.24 29.0139 121.283 29.123C121.362 29.3223 121.16 29.5017 120.904 29.4938C120.799 29.4129 120.643 29.3511 120.604 29.2455C120.541 29.0764 120.798 28.8239 120.993 28.8689ZM114.213 28.294C114.561 28.2749 114.923 28.076 115.256 28.3354C115.303 28.372 115.335 28.4577 115.333 28.5194C115.331 28.5876 115.29 28.7074 115.252 28.7133C114.898 28.7682 114.542 28.8034 114.27 28.8345C114.052 28.7239 113.914 28.672 113.798 28.5907C113.667 28.5 113.884 28.3122 114.213 28.294ZM104.671 25.1984C104.809 25.1866 104.963 25.2006 105.089 25.2546C105.203 25.3036 105.287 25.4212 105.385 25.5087C105.256 25.5532 105.13 25.6214 104.998 25.6358C104.86 25.6507 104.717 25.6136 104.576 25.5993C104.48 25.5063 104.384 25.4131 104.289 25.3198C104.416 25.2771 104.541 25.2096 104.671 25.1984ZM91.2141 26.3132C91.228 26.0307 91.2117 25.7412 90.9255 25.6036C90.7382 25.5135 90.4891 25.5615 90.2776 25.5084C90.1582 25.4784 89.9891 25.3843 89.9689 25.2916C89.9471 25.1907 90.048 24.9782 90.1364 24.9519C90.7308 24.7746 91.3099 24.9032 91.8701 25.1232C92.108 25.2166 92.1542 25.4487 92.1628 25.6693C92.1766 26.0258 92.3674 26.2241 92.6999 26.2311C93.4446 26.2466 94.1906 26.2388 94.886 26.5549C95.0491 26.629 95.1816 26.7701 95.4434 26.9671C93.8739 27.1067 92.5575 26.6173 91.2141 26.3132ZM99.771 26.6022C99.0261 26.5507 98.2784 26.4109 97.5385 26.446C96.503 26.4951 95.5505 26.2639 94.4691 25.8888C95.0445 25.7593 95.4747 25.6423 95.9123 25.5709C96.2032 25.5234 96.5156 25.4842 96.7993 25.5392C97.971 25.7663 99.1367 26.0253 100.301 26.2895C100.429 26.3185 100.532 26.4559 100.75 26.6209C100.354 26.6144 100.062 26.6223 99.771 26.6022ZM102.401 24.8415C102.468 24.8612 102.555 24.9064 102.577 24.9622C102.624 25.0761 102.52 25.1556 102.324 25.1341C102.103 25.11 101.885 25.0576 101.634 25.0116C101.556 24.9517 101.449 24.8697 101.342 24.7878C101.48 24.7506 101.621 24.673 101.753 24.6854C101.972 24.7058 102.188 24.7787 102.401 24.8415ZM118.389 24.473C118.281 24.4495 118.196 24.3181 118.101 24.235C118.19 24.1582 118.27 24.0385 118.371 24.0157C118.49 23.9891 118.632 24.0329 118.754 24.0753C118.801 24.0917 118.861 24.2017 118.846 24.2449C118.771 24.4586 118.577 24.514 118.389 24.473Z" fill="#057CC3"/>
<path d="M95.1659 29.8064C95.115 29.7827 95.0466 29.7051 95.0536 29.664C95.0845 29.4835 95.2036 29.4191 95.3798 29.4332C95.6745 29.4568 95.9703 29.472 96.2658 29.4767C96.3193 29.4775 96.419 29.4098 96.4181 29.376C96.4162 29.3103 96.3715 29.2044 96.3211 29.1881C95.8263 29.0287 95.3321 28.8605 94.8263 28.744C94.493 28.6671 94.2573 28.8584 94.1466 29.1772C93.9345 29.7886 93.624 29.9681 92.9731 29.651C92.6038 29.4712 92.0972 29.5925 91.6594 29.5293C91.0608 29.4427 91.0511 28.699 90.5542 28.482C90.4864 28.4524 90.422 28.413 90.3602 28.3718C90.109 28.2043 89.7433 28.269 89.5795 28.5347C89.2679 29.0404 88.9134 29.5186 88.7213 30.0983C88.6722 30.2463 88.3857 30.3473 88.1892 30.4065C87.9403 30.4815 87.6351 30.2939 87.3585 30.6181C88.1886 30.8228 88.9356 31.1185 89.758 30.6258C90.0471 30.4525 90.4809 30.4643 90.844 30.4826C91.5878 30.5201 92.3279 30.6268 93.0709 30.6892C93.3624 30.7136 93.72 30.804 93.9397 30.6773C94.7858 30.1894 95.6693 30.3449 96.5598 30.3718C96.7262 30.3768 96.8999 30.1402 97.0704 30.0099C96.4 30.2989 95.778 30.0907 95.1659 29.8064Z" fill="#057CC3"/>
<path d="M78.7837 27.5554C78.4557 26.976 77.8379 26.8391 77.3146 27.2364C77.0793 27.415 76.844 27.596 76.627 27.7958C76.4409 27.9672 76.4943 28.5051 76.7015 28.6042C77.3664 28.9226 78.0346 29.2343 78.7056 29.5396C78.8892 29.6232 79.5818 29.3185 79.6795 29.1299C79.6341 28.9959 79.6092 28.8499 79.539 28.7304C79.3031 28.329 78.4895 28.3006 78.7837 27.5554Z" fill="#057CC3"/>
<path d="M113.164 37.297C113.11 37.0104 113.037 36.7274 112.973 36.4428C112.384 36.1778 112.481 35.6191 112.369 35.1251C112.208 34.4132 111.871 33.7666 111.384 33.1609C111.071 33.7289 111.21 34.2434 111.414 34.701C111.83 35.6324 111.759 36.7587 112.55 37.5362C112.647 37.9712 112.729 38.4105 112.852 38.8382C112.885 38.9535 113.027 39.0593 113.145 39.123C113.288 39.2006 113.436 38.9131 113.39 38.6152C113.322 38.1747 113.247 37.735 113.164 37.297Z" fill="#057CC3"/>
<path d="M21.4303 25.0207C20.8919 24.6742 20.3392 24.3482 19.7745 24.0464C19.6989 24.0061 19.5229 24.1236 19.4119 24.1962C19.3745 24.2207 19.3744 24.3388 19.3927 24.4042C19.4307 24.5395 19.4552 24.7353 19.5506 24.7883C20.1049 25.0961 20.6029 25.5586 21.3025 25.5087C21.3671 25.5041 21.4275 25.4391 21.4901 25.4021C21.4728 25.271 21.5023 25.067 21.4303 25.0207Z" fill="#057CC3"/>
<path d="M46.0344 22.9028C45.537 22.8723 45.0329 22.8741 44.5625 23.4111C44.4942 23.7842 44.4068 24.2618 44.3185 24.7437C44.5684 24.5416 44.8233 24.345 45.0588 24.1273C45.4331 23.7812 45.789 23.415 46.1465 23.0512C46.1525 23.0451 46.0784 22.9604 46.0344 22.9028Z" fill="#057CC3"/>
<path d="M103.747 32.1284C103.721 32.1186 103.605 32.2321 103.61 32.2799C103.623 32.4075 103.647 32.6124 103.724 32.6431C104.626 33.0032 105.529 33.0007 106.476 32.6162C106.304 32.4908 106.202 32.3634 106.078 32.335C105.313 32.1602 104.507 32.4181 103.747 32.1284Z" fill="#057CC3"/>
<path d="M74.967 24.7456C74.9627 24.7647 74.9585 24.7838 74.9542 24.8029C74.9744 24.8069 74.9945 24.8111 75.0147 24.8148C75.0327 24.804 75.051 24.7952 75.0691 24.7854C75.0351 24.7721 75.001 24.7588 74.967 24.7456Z" fill="#057CC3"/>
<path d="M77.253 24.5429C77.1783 24.4546 77.1041 24.3437 77.0882 24.3515C76.4518 24.6639 75.6967 24.4435 75.0694 24.7854C75.5711 24.9809 76.0749 25.1771 76.6112 25.3861C76.834 25.0933 77.0463 24.8144 77.253 24.5429Z" fill="#057CC3"/>
<path d="M119.375 26.8306C119.379 26.8927 119.428 26.97 119.481 27.0078C120.048 27.4131 120.599 27.243 121.136 26.9372C121.173 26.9158 121.173 26.829 121.183 26.7582C120.609 26.7239 120.036 26.6878 119.462 26.6635C119.433 26.6623 119.371 26.7746 119.375 26.8306Z" fill="#057CC3"/>
<path d="M14.6411 21.6991C14.2904 21.7927 13.9108 21.8204 13.6093 22.0804C13.9219 22.3774 14.2889 22.3332 14.6409 22.2428C14.7572 22.2129 14.8914 22.058 14.9218 21.9364C14.9634 21.7702 14.8188 21.6517 14.6411 21.6991Z" fill="#057CC3"/>
<path d="M122.359 25.9911C122.372 25.8862 122.281 25.6974 122.195 25.6676C122.093 25.6319 121.897 25.6872 121.83 25.7726C121.758 25.8647 121.788 26.037 121.775 26.1745C121.75 26.4356 121.64 26.6189 121.427 26.7098C121.572 26.6996 121.715 26.6871 121.85 26.6475C122.162 26.5558 122.319 26.2951 122.359 25.9911Z" fill="#057CC3"/>
<path d="M121.427 26.7098C121.349 26.7152 121.271 26.7202 121.193 26.7279C121.189 26.7254 121.212 26.7396 121.229 26.7505L121.187 26.7239C121.185 26.7342 121.184 26.7466 121.182 26.7582C121.204 26.7595 121.225 26.7608 121.247 26.762C121.314 26.7514 121.373 26.7328 121.427 26.7098Z" fill="#057CC3"/>
<path d="M101.509 32.8986C101.385 32.8303 101.245 32.7897 101.111 32.7376C100.966 32.7243 100.819 32.6893 100.677 32.7042C100.542 32.7183 100.413 32.7846 100.282 32.828C100.365 32.9261 100.43 33.0747 100.535 33.1125C100.8 33.2083 101.081 33.2763 101.361 33.3065C101.442 33.3152 101.55 33.1648 101.624 33.0703C101.639 33.0517 101.566 32.9295 101.509 32.8986Z" fill="#057CC3"/>
<path d="M29.7076 23.9262C29.5735 23.9106 29.4036 23.8982 29.3055 23.9656C29.2063 24.0338 29.2993 24.1606 29.4854 24.2022C29.5568 24.2062 29.6292 24.2191 29.6994 24.2115C29.768 24.204 29.8618 24.1968 29.896 24.1523C29.9739 24.0508 29.899 23.9482 29.7076 23.9262Z" fill="#057CC3"/>
<path d="M19.8938 21.4308C19.8866 21.4396 19.8791 21.4481 19.8718 21.4568C19.8928 21.4579 19.9137 21.4591 19.9347 21.4601C19.9527 21.4549 19.9702 21.4541 19.988 21.4502C19.9588 21.4454 19.9302 21.4411 19.9009 21.4363C19.8968 21.4331 19.8938 21.4308 19.8938 21.4308Z" fill="#057CC3"/>
<path d="M18.8492 21.6474C18.9655 21.7051 19.0767 21.7952 19.199 21.8141C19.5052 21.8615 19.6964 21.667 19.8719 21.4569C19.6064 21.4432 19.3454 21.4253 19.0872 21.4442C19.0034 21.4504 18.9283 21.5763 18.8492 21.6474Z" fill="#057CC3"/>
<path d="M74.9228 25.18C74.9063 25.1754 74.8897 25.1712 74.8731 25.1668C74.8691 25.1847 74.8651 25.2025 74.8611 25.2203L74.9228 25.18Z" fill="#057CC3"/>
<path d="M74.5801 24.7388C74.5112 24.7318 74.4199 24.741 74.3714 24.7817C74.2678 24.8687 74.3182 24.9823 74.5042 25.0581C74.6223 25.1062 74.7488 25.1338 74.8731 25.1669C74.9002 25.0455 74.9272 24.9243 74.9543 24.803C74.8299 24.7787 74.7057 24.7515 74.5801 24.7388Z" fill="#057CC3"/>
<path d="M97.8973 30.0246C97.6302 30.0123 97.3628 30.0075 97.0955 29.9999L97.0777 30.0042C97.0753 30.0059 97.0729 30.0082 97.0705 30.01C97.0749 30.0081 97.0792 30.0067 97.0836 30.0047C97.0837 30.0048 97.0829 30.005 97.0832 30.005C97.3484 30.0928 97.6082 30.1796 97.8678 30.2669C98.0672 30.3339 98.1499 30.2663 98.0845 30.0738C98.0728 30.0395 97.9628 30.0276 97.8973 30.0246Z" fill="#057CC3"/>
<path d="M41.778 24.5701C41.7511 24.5891 41.7878 24.6979 41.7951 24.7652C41.8603 24.7454 41.9255 24.7256 41.9908 24.7058C42.0398 24.4929 41.9631 24.4394 41.778 24.5701Z" fill="#057CC3"/>
<path d="M117.307 26.4166C117.378 26.5061 117.449 26.5956 117.521 26.6859C117.599 26.5974 117.68 26.5129 117.745 26.417C117.752 26.4066 117.653 26.2858 117.618 26.2928C117.51 26.3142 117.41 26.3726 117.307 26.4166Z" fill="#057CC3"/>
<path d="M115.956 26.266L115.856 26.1442L115.794 26.3045L115.956 26.266Z" fill="#057CC3"/>
<path d="M43.1185 23.3627L43.2568 23.334L43.1353 23.2622L43.1185 23.3627Z" fill="#057CC3"/>
<path d="M19.9881 21.4503C20.4207 21.5215 20.8493 21.5889 21.2771 21.6558C21.2771 21.6558 21.2533 21.6429 21.2434 21.6439C20.8126 21.6057 20.4223 21.354 19.9881 21.4503Z" fill="#057CC3"/>
<path d="M123.065 22.0127C123.08 21.9665 123.04 21.9018 123.024 21.8452C122.976 21.8758 122.928 21.9063 122.882 21.9352C122.9 22.0022 122.916 22.0605 122.931 22.1187C122.978 22.0841 123.05 22.0579 123.065 22.0127Z" fill="#057CC3"/>
<path d="M125.163 27.4158L125.258 27.3246L125.142 27.2864L125.163 27.4158Z" fill="#057CC3"/>
<path d="M74.9346 25.2805C74.9557 25.4618 74.9769 25.643 74.998 25.824C75.1563 25.506 75.1563 25.4646 74.9346 25.2805Z" fill="#057CC3"/>
<path d="M74.9226 25.1806C74.9227 25.1801 74.861 25.2204 74.861 25.2204C74.888 25.2424 74.9119 25.262 74.9343 25.2806C74.9305 25.2472 74.9265 25.214 74.9226 25.1806Z" fill="#057CC3"/>
<path d="M74.894 25.7722L74.9644 25.8912L75.0062 25.895C75.0035 25.8713 75.0007 25.8477 74.9979 25.8241C74.9914 25.8373 74.9841 25.8517 74.977 25.866C74.9455 25.831 74.894 25.7722 74.894 25.7722Z" fill="#057CC3"/>
<path d="M44.2475 24.7872C44.2363 24.8008 44.2251 24.8144 44.2138 24.8281L44.3064 24.808L44.3071 24.8043C44.3077 24.804 44.3102 24.8034 44.3104 24.8032C44.3093 24.8029 44.3085 24.8027 44.3074 24.8024C44.311 24.7828 44.3146 24.7632 44.3182 24.7436C44.2987 24.7593 44.2792 24.775 44.2598 24.7909C44.255 24.7896 44.2518 24.7884 44.2475 24.7872Z" fill="#057CC3"/>
<path d="M44.2478 24.7872C44.2623 24.7696 44.2768 24.752 44.2914 24.7343C44.1778 24.7463 44.165 24.763 44.2478 24.7872Z" fill="#057CC3"/>
</g>
<defs>
<clipPath id="clip0_11523_33983">
<rect width="125" height="21.3153" fill="white" transform="translate(4.62744 0.96875) rotate(10)"/>
</clipPath>
</defs>
</svg>
