<svg width="16" height="16" viewBox="0 0 16 16" fill="none" xmlns="http://www.w3.org/2000/svg">
<g id="medicine (1) 1" clip-path="url(#clip0_13909_10015)">
<path id="Vector" d="M10.6667 4.66668L10.6513 3.88201C11.0987 3.72901 11.4772 3.42207 11.7192 3.01594C11.9613 2.60981 12.0513 2.1309 11.973 1.66461C11.8948 1.19832 11.6535 0.774987 11.2921 0.470105C10.9307 0.165223 10.4728 -0.00138046 10 8.61649e-06H6C5.52878 -0.000884266 5.07245 0.165021 4.71184 0.468341C4.35122 0.771661 4.10959 1.19282 4.02974 1.65722C3.94989 2.12163 4.03698 2.59931 4.27557 3.00565C4.51417 3.412 4.88888 3.72079 5.33333 3.87734V4.66668C4.4496 4.66773 3.60237 5.01926 2.97748 5.64416C2.35259 6.26905 2.00106 7.11628 2 8.00001V12.6667C2.00106 13.5504 2.35259 14.3976 2.97748 15.0225C3.60237 15.6474 4.4496 15.999 5.33333 16H10.6667C11.5504 15.999 12.3976 15.6474 13.0225 15.0225C13.6474 14.3976 13.9989 13.5504 14 12.6667V8.00001C13.9989 7.11628 13.6474 6.26905 13.0225 5.64416C12.3976 5.01926 11.5504 4.66773 10.6667 4.66668ZM6 1.33334H10C10.1768 1.33334 10.3464 1.40358 10.4714 1.5286C10.5964 1.65363 10.6667 1.8232 10.6667 2.00001C10.6667 2.17682 10.5964 2.34639 10.4714 2.47141C10.3464 2.59644 10.1768 2.66668 10 2.66668H6C5.82319 2.66668 5.65362 2.59644 5.5286 2.47141C5.40357 2.34639 5.33333 2.17682 5.33333 2.00001C5.33333 1.8232 5.40357 1.65363 5.5286 1.5286C5.65362 1.40358 5.82319 1.33334 6 1.33334ZM12.6667 12.6667C12.6667 13.1971 12.456 13.7058 12.0809 14.0809C11.7058 14.456 11.1971 14.6667 10.6667 14.6667H5.33333C4.8029 14.6667 4.29419 14.456 3.91912 14.0809C3.54405 13.7058 3.33333 13.1971 3.33333 12.6667V8.00001C3.33333 7.46958 3.54405 6.96087 3.91912 6.5858C4.29419 6.21072 4.8029 6.00001 5.33333 6.00001H6C6.17681 6.00001 6.34638 5.92977 6.4714 5.80475C6.59643 5.67972 6.66667 5.51015 6.66667 5.33334V4.00001H9.31533L9.33333 5.34268C9.33579 5.51786 9.40711 5.68505 9.53187 5.80806C9.65662 5.93107 9.82479 6.00003 10 6.00001H10.6667C11.1971 6.00001 11.7058 6.21072 12.0809 6.5858C12.456 6.96087 12.6667 7.46958 12.6667 8.00001V12.6667ZM10.6667 10C10.6667 10.1768 10.5964 10.3464 10.4714 10.4714C10.3464 10.5964 10.1768 10.6667 10 10.6667H8.66667V12C8.66667 12.1768 8.59643 12.3464 8.4714 12.4714C8.34638 12.5964 8.17681 12.6667 8 12.6667C7.82319 12.6667 7.65362 12.5964 7.5286 12.4714C7.40357 12.3464 7.33333 12.1768 7.33333 12V10.6667H6C5.82319 10.6667 5.65362 10.5964 5.5286 10.4714C5.40357 10.3464 5.33333 10.1768 5.33333 10C5.33333 9.8232 5.40357 9.65363 5.5286 9.5286C5.65362 9.40358 5.82319 9.33334 6 9.33334H7.33333V8.00001C7.33333 7.8232 7.40357 7.65363 7.5286 7.5286C7.65362 7.40358 7.82319 7.33334 8 7.33334C8.17681 7.33334 8.34638 7.40358 8.4714 7.5286C8.59643 7.65363 8.66667 7.8232 8.66667 8.00001V9.33334H10C10.1768 9.33334 10.3464 9.40358 10.4714 9.5286C10.5964 9.65363 10.6667 9.8232 10.6667 10Z" fill="#057CC3"/>
</g>
<defs>
<clipPath id="clip0_13909_10015">
<rect width="16" height="16" fill="white"/>
</clipPath>
</defs>
</svg>
