<svg width="24" height="24" viewBox="0 0 24 24" fill="none" xmlns="http://www.w3.org/2000/svg">
<rect width="24" height="24" rx="3" fill="#057CC3" fill-opacity="0.1"/>
<g clip-path="url(#clip0_11580_35757)">
<path d="M14.6667 8.66668L14.6513 7.88201C15.0987 7.72901 15.4772 7.42207 15.7192 7.01594C15.9613 6.60981 16.0513 6.1309 15.973 5.66461C15.8948 5.19832 15.6535 4.77499 15.2921 4.47011C14.9307 4.16522 14.4728 3.99862 14 4.00001H10C9.52878 3.99912 9.07245 4.16502 8.71184 4.46834C8.35122 4.77166 8.10959 5.19282 8.02974 5.65722C7.94989 6.12163 8.03698 6.59931 8.27557 7.00565C8.51417 7.412 8.88888 7.72079 9.33333 7.87734V8.66668C8.4496 8.66773 7.60237 9.01926 6.97748 9.64416C6.35259 10.269 6.00106 11.1163 6 12V16.6667C6.00106 17.5504 6.35259 18.3976 6.97748 19.0225C7.60237 19.6474 8.4496 19.999 9.33333 20H14.6667C15.5504 19.999 16.3976 19.6474 17.0225 19.0225C17.6474 18.3976 17.9989 17.5504 18 16.6667V12C17.9989 11.1163 17.6474 10.269 17.0225 9.64416C16.3976 9.01926 15.5504 8.66773 14.6667 8.66668ZM10 5.33334H14C14.1768 5.33334 14.3464 5.40358 14.4714 5.5286C14.5964 5.65363 14.6667 5.8232 14.6667 6.00001C14.6667 6.17682 14.5964 6.34639 14.4714 6.47141C14.3464 6.59644 14.1768 6.66668 14 6.66668H10C9.82319 6.66668 9.65362 6.59644 9.5286 6.47141C9.40357 6.34639 9.33333 6.17682 9.33333 6.00001C9.33333 5.8232 9.40357 5.65363 9.5286 5.5286C9.65362 5.40358 9.82319 5.33334 10 5.33334ZM16.6667 16.6667C16.6667 17.1971 16.456 17.7058 16.0809 18.0809C15.7058 18.456 15.1971 18.6667 14.6667 18.6667H9.33333C8.8029 18.6667 8.29419 18.456 7.91912 18.0809C7.54405 17.7058 7.33333 17.1971 7.33333 16.6667V12C7.33333 11.4696 7.54405 10.9609 7.91912 10.5858C8.29419 10.2107 8.8029 10 9.33333 10H10C10.1768 10 10.3464 9.92977 10.4714 9.80475C10.5964 9.67972 10.6667 9.51015 10.6667 9.33334V8.00001H13.3153L13.3333 9.34268C13.3358 9.51786 13.4071 9.68505 13.5319 9.80806C13.6566 9.93107 13.8248 10 14 10H14.6667C15.1971 10 15.7058 10.2107 16.0809 10.5858C16.456 10.9609 16.6667 11.4696 16.6667 12V16.6667ZM14.6667 14C14.6667 14.1768 14.5964 14.3464 14.4714 14.4714C14.3464 14.5964 14.1768 14.6667 14 14.6667H12.6667V16C12.6667 16.1768 12.5964 16.3464 12.4714 16.4714C12.3464 16.5964 12.1768 16.6667 12 16.6667C11.8232 16.6667 11.6536 16.5964 11.5286 16.4714C11.4036 16.3464 11.3333 16.1768 11.3333 16V14.6667H10C9.82319 14.6667 9.65362 14.5964 9.5286 14.4714C9.40357 14.3464 9.33333 14.1768 9.33333 14C9.33333 13.8232 9.40357 13.6536 9.5286 13.5286C9.65362 13.4036 9.82319 13.3333 10 13.3333H11.3333V12C11.3333 11.8232 11.4036 11.6536 11.5286 11.5286C11.6536 11.4036 11.8232 11.3333 12 11.3333C12.1768 11.3333 12.3464 11.4036 12.4714 11.5286C12.5964 11.6536 12.6667 11.8232 12.6667 12V13.3333H14C14.1768 13.3333 14.3464 13.4036 14.4714 13.5286C14.5964 13.6536 14.6667 13.8232 14.6667 14Z" fill="#057CC3"/>
</g>
<defs>
<clipPath id="clip0_11580_35757">
<rect width="16" height="16" fill="white" transform="translate(4 4)"/>
</clipPath>
</defs>
</svg>
