<svg width="668" height="259" viewBox="0 0 668 259" fill="none" xmlns="http://www.w3.org/2000/svg">
<path opacity="0.6" d="M278.325 198H276.687L270.099 188.01V198H268.461V185.436H270.099L276.687 195.408V185.436H278.325V198ZM285.419 198.162C284.495 198.162 283.655 197.952 282.899 197.532C282.155 197.112 281.567 196.518 281.135 195.75C280.715 194.97 280.505 194.07 280.505 193.05C280.505 192.042 280.721 191.154 281.153 190.386C281.597 189.606 282.197 189.012 282.953 188.604C283.709 188.184 284.555 187.974 285.491 187.974C286.427 187.974 287.273 188.184 288.029 188.604C288.785 189.012 289.379 189.6 289.811 190.368C290.255 191.136 290.477 192.03 290.477 193.05C290.477 194.07 290.249 194.97 289.793 195.75C289.349 196.518 288.743 197.112 287.975 197.532C287.207 197.952 286.355 198.162 285.419 198.162ZM285.419 196.722C286.007 196.722 286.559 196.584 287.075 196.308C287.591 196.032 288.005 195.618 288.317 195.066C288.641 194.514 288.803 193.842 288.803 193.05C288.803 192.258 288.647 191.586 288.335 191.034C288.023 190.482 287.615 190.074 287.111 189.81C286.607 189.534 286.061 189.396 285.473 189.396C284.873 189.396 284.321 189.534 283.817 189.81C283.325 190.074 282.929 190.482 282.629 191.034C282.329 191.586 282.179 192.258 282.179 193.05C282.179 193.854 282.323 194.532 282.611 195.084C282.911 195.636 283.307 196.05 283.799 196.326C284.291 196.59 284.831 196.722 285.419 196.722ZM296.818 193.032C296.818 192.024 297.022 191.142 297.43 190.386C297.838 189.618 298.396 189.024 299.104 188.604C299.824 188.184 300.628 187.974 301.516 187.974C302.284 187.974 302.998 188.154 303.658 188.514C304.318 188.862 304.822 189.324 305.17 189.9V184.68H306.826V198H305.17V196.146C304.846 196.734 304.366 197.22 303.73 197.604C303.094 197.976 302.35 198.162 301.498 198.162C300.622 198.162 299.824 197.946 299.104 197.514C298.396 197.082 297.838 196.476 297.43 195.696C297.022 194.916 296.818 194.028 296.818 193.032ZM305.17 193.05C305.17 192.306 305.02 191.658 304.72 191.106C304.42 190.554 304.012 190.134 303.496 189.846C302.992 189.546 302.434 189.396 301.822 189.396C301.21 189.396 300.652 189.54 300.148 189.828C299.644 190.116 299.242 190.536 298.942 191.088C298.642 191.64 298.492 192.288 298.492 193.032C298.492 193.788 298.642 194.448 298.942 195.012C299.242 195.564 299.644 195.99 300.148 196.29C300.652 196.578 301.21 196.722 301.822 196.722C302.434 196.722 302.992 196.578 303.496 196.29C304.012 195.99 304.42 195.564 304.72 195.012C305.02 194.448 305.17 193.794 305.17 193.05ZM308.982 193.032C308.982 192.024 309.186 191.142 309.594 190.386C310.002 189.618 310.56 189.024 311.268 188.604C311.988 188.184 312.786 187.974 313.662 187.974C314.526 187.974 315.276 188.16 315.912 188.532C316.548 188.904 317.022 189.372 317.334 189.936V188.136H318.99V198H317.334V196.164C317.01 196.74 316.524 197.22 315.876 197.604C315.24 197.976 314.496 198.162 313.644 198.162C312.768 198.162 311.976 197.946 311.268 197.514C310.56 197.082 310.002 196.476 309.594 195.696C309.186 194.916 308.982 194.028 308.982 193.032ZM317.334 193.05C317.334 192.306 317.184 191.658 316.884 191.106C316.584 190.554 316.176 190.134 315.66 189.846C315.156 189.546 314.598 189.396 313.986 189.396C313.374 189.396 312.816 189.54 312.312 189.828C311.808 190.116 311.406 190.536 311.106 191.088C310.806 191.64 310.656 192.288 310.656 193.032C310.656 193.788 310.806 194.448 311.106 195.012C311.406 195.564 311.808 195.99 312.312 196.29C312.816 196.578 313.374 196.722 313.986 196.722C314.598 196.722 315.156 196.578 315.66 196.29C316.176 195.99 316.584 195.564 316.884 195.012C317.184 194.448 317.334 193.794 317.334 193.05ZM323.756 189.486V195.3C323.756 195.78 323.858 196.122 324.062 196.326C324.266 196.518 324.62 196.614 325.124 196.614H326.33V198H324.854C323.942 198 323.258 197.79 322.802 197.37C322.346 196.95 322.118 196.26 322.118 195.3V189.486H320.84V188.136H322.118V185.652H323.756V188.136H326.33V189.486H323.756ZM327.703 193.032C327.703 192.024 327.907 191.142 328.315 190.386C328.723 189.618 329.281 189.024 329.989 188.604C330.709 188.184 331.507 187.974 332.383 187.974C333.247 187.974 333.997 188.16 334.633 188.532C335.269 188.904 335.743 189.372 336.055 189.936V188.136H337.711V198H336.055V196.164C335.731 196.74 335.245 197.22 334.597 197.604C333.961 197.976 333.217 198.162 332.365 198.162C331.489 198.162 330.697 197.946 329.989 197.514C329.281 197.082 328.723 196.476 328.315 195.696C327.907 194.916 327.703 194.028 327.703 193.032ZM336.055 193.05C336.055 192.306 335.905 191.658 335.605 191.106C335.305 190.554 334.897 190.134 334.381 189.846C333.877 189.546 333.319 189.396 332.707 189.396C332.095 189.396 331.537 189.54 331.033 189.828C330.529 190.116 330.127 190.536 329.827 191.088C329.527 191.64 329.377 192.288 329.377 193.032C329.377 193.788 329.527 194.448 329.827 195.012C330.127 195.564 330.529 195.99 331.033 196.29C331.537 196.578 332.095 196.722 332.707 196.722C333.319 196.722 333.877 196.578 334.381 196.29C334.897 195.99 335.305 195.564 335.605 195.012C335.905 194.448 336.055 193.794 336.055 193.05ZM344.666 193.032C344.666 192.024 344.87 191.142 345.278 190.386C345.686 189.618 346.244 189.024 346.952 188.604C347.672 188.184 348.47 187.974 349.346 187.974C350.21 187.974 350.96 188.16 351.596 188.532C352.232 188.904 352.706 189.372 353.018 189.936V188.136H354.674V198H353.018V196.164C352.694 196.74 352.208 197.22 351.56 197.604C350.924 197.976 350.18 198.162 349.328 198.162C348.452 198.162 347.66 197.946 346.952 197.514C346.244 197.082 345.686 196.476 345.278 195.696C344.87 194.916 344.666 194.028 344.666 193.032ZM353.018 193.05C353.018 192.306 352.868 191.658 352.568 191.106C352.268 190.554 351.86 190.134 351.344 189.846C350.84 189.546 350.282 189.396 349.67 189.396C349.058 189.396 348.5 189.54 347.996 189.828C347.492 190.116 347.09 190.536 346.79 191.088C346.49 191.64 346.34 192.288 346.34 193.032C346.34 193.788 346.49 194.448 346.79 195.012C347.09 195.564 347.492 195.99 347.996 196.29C348.5 196.578 349.058 196.722 349.67 196.722C350.282 196.722 350.84 196.578 351.344 196.29C351.86 195.99 352.268 195.564 352.568 195.012C352.868 194.448 353.018 193.794 353.018 193.05ZM361.114 196.488L364.174 188.136H365.92L362.05 198H360.142L356.272 188.136H358.036L361.114 196.488ZM366.92 193.032C366.92 192.024 367.124 191.142 367.532 190.386C367.94 189.618 368.498 189.024 369.206 188.604C369.926 188.184 370.724 187.974 371.6 187.974C372.464 187.974 373.214 188.16 373.85 188.532C374.486 188.904 374.96 189.372 375.272 189.936V188.136H376.928V198H375.272V196.164C374.948 196.74 374.462 197.22 373.814 197.604C373.178 197.976 372.434 198.162 371.582 198.162C370.706 198.162 369.914 197.946 369.206 197.514C368.498 197.082 367.94 196.476 367.532 195.696C367.124 194.916 366.92 194.028 366.92 193.032ZM375.272 193.05C375.272 192.306 375.122 191.658 374.822 191.106C374.522 190.554 374.114 190.134 373.598 189.846C373.094 189.546 372.536 189.396 371.924 189.396C371.312 189.396 370.754 189.54 370.25 189.828C369.746 190.116 369.344 190.536 369.044 191.088C368.744 191.64 368.594 192.288 368.594 193.032C368.594 193.788 368.744 194.448 369.044 195.012C369.344 195.564 369.746 195.99 370.25 196.29C370.754 196.578 371.312 196.722 371.924 196.722C372.536 196.722 373.094 196.578 373.598 196.29C374.114 195.99 374.522 195.564 374.822 195.012C375.122 194.448 375.272 193.794 375.272 193.05ZM381.334 184.68V198H379.696V184.68H381.334ZM384.971 186.534C384.659 186.534 384.395 186.426 384.179 186.21C383.963 185.994 383.855 185.73 383.855 185.418C383.855 185.106 383.963 184.842 384.179 184.626C384.395 184.41 384.659 184.302 384.971 184.302C385.271 184.302 385.523 184.41 385.727 184.626C385.943 184.842 386.051 185.106 386.051 185.418C386.051 185.73 385.943 185.994 385.727 186.21C385.523 186.426 385.271 186.534 384.971 186.534ZM385.763 188.136V198H384.125V188.136H385.763ZM390.193 189.972C390.529 189.384 391.021 188.904 391.669 188.532C392.317 188.16 393.055 187.974 393.883 187.974C394.771 187.974 395.569 188.184 396.277 188.604C396.985 189.024 397.543 189.618 397.951 190.386C398.359 191.142 398.563 192.024 398.563 193.032C398.563 194.028 398.359 194.916 397.951 195.696C397.543 196.476 396.979 197.082 396.259 197.514C395.551 197.946 394.759 198.162 393.883 198.162C393.031 198.162 392.281 197.976 391.633 197.604C390.997 197.232 390.517 196.758 390.193 196.182V198H388.555V184.68H390.193V189.972ZM396.889 193.032C396.889 192.288 396.739 191.64 396.439 191.088C396.139 190.536 395.731 190.116 395.215 189.828C394.711 189.54 394.153 189.396 393.541 189.396C392.941 189.396 392.383 189.546 391.867 189.846C391.363 190.134 390.955 190.56 390.643 191.124C390.343 191.676 390.193 192.318 390.193 193.05C390.193 193.794 390.343 194.448 390.643 195.012C390.955 195.564 391.363 195.99 391.867 196.29C392.383 196.578 392.941 196.722 393.541 196.722C394.153 196.722 394.711 196.578 395.215 196.29C395.731 195.99 396.139 195.564 396.439 195.012C396.739 194.448 396.889 193.788 396.889 193.032ZM402.357 184.68V198H400.719V184.68H402.357ZM414.149 192.69C414.149 193.002 414.131 193.332 414.095 193.68H406.211C406.271 194.652 406.601 195.414 407.201 195.966C407.813 196.506 408.551 196.776 409.415 196.776C410.123 196.776 410.711 196.614 411.179 196.29C411.659 195.954 411.995 195.51 412.187 194.958H413.951C413.687 195.906 413.159 196.68 412.367 197.28C411.575 197.868 410.591 198.162 409.415 198.162C408.479 198.162 407.639 197.952 406.895 197.532C406.163 197.112 405.587 196.518 405.167 195.75C404.747 194.97 404.537 194.07 404.537 193.05C404.537 192.03 404.741 191.136 405.149 190.368C405.557 189.6 406.127 189.012 406.859 188.604C407.603 188.184 408.455 187.974 409.415 187.974C410.351 187.974 411.179 188.178 411.899 188.586C412.619 188.994 413.171 189.558 413.555 190.278C413.951 190.986 414.149 191.79 414.149 192.69ZM412.457 192.348C412.457 191.724 412.319 191.19 412.043 190.746C411.767 190.29 411.389 189.948 410.909 189.72C410.441 189.48 409.919 189.36 409.343 189.36C408.515 189.36 407.807 189.624 407.219 190.152C406.643 190.68 406.313 191.412 406.229 192.348H412.457Z" fill="#66676B"/>
<g opacity="0.2">
<line x1="10.5" y1="3.5" x2="10.5" y2="246.5" stroke="#333232" stroke-width="3" stroke-linecap="round"/>
<line x1="666.5" y1="246.5" x2="10.5" y2="246.5" stroke="#333232" stroke-width="3" stroke-linecap="round"/>
<line x1="10.5" y1="56.5" x2="1.5" y2="56.5" stroke="#333232" stroke-width="3" stroke-linecap="round"/>
<line x1="10.5" y1="3.5" x2="1.5" y2="3.5" stroke="#333232" stroke-width="3" stroke-linecap="round"/>
<line x1="217.5" y1="257.5" x2="217.5" y2="247.5" stroke="#333232" stroke-width="3" stroke-linecap="round"/>
<line x1="278.5" y1="257.5" x2="278.5" y2="247.5" stroke="#333232" stroke-width="3" stroke-linecap="round"/>
<line x1="339.5" y1="257.5" x2="339.5" y2="247.5" stroke="#333232" stroke-width="3" stroke-linecap="round"/>
<line x1="10.5" y1="109.5" x2="1.5" y2="109.5" stroke="#333232" stroke-width="3" stroke-linecap="round"/>
<line x1="95.5" y1="257.5" x2="95.5" y2="247.5" stroke="#333232" stroke-width="3" stroke-linecap="round"/>
<line x1="10.5" y1="162.5" x2="1.5" y2="162.5" stroke="#333232" stroke-width="3" stroke-linecap="round"/>
<line x1="156.5" y1="257.5" x2="156.5" y2="247.5" stroke="#333232" stroke-width="3" stroke-linecap="round"/>
<line x1="10.5" y1="215.5" x2="1.5" y2="215.5" stroke="#333232" stroke-width="3" stroke-linecap="round"/>
<line x1="34.5" y1="257.5" x2="34.5" y2="247.5" stroke="#333232" stroke-width="3" stroke-linecap="round"/>
<path d="M199 191C199 191 211.09 148.909 228.235 154.86C235.608 157.418 235.585 165.649 242.853 168.491C261.48 175.776 257.023 123.412 276.075 129.498C286.835 132.936 281.5 154.86 298.5 150" stroke="#333232" stroke-width="3" stroke-linecap="round"/>
<path d="M385 99.5C412.5 87 406.2 24.9684 433.58 38.9231C443.177 43.8141 442.464 54.979 452.431 59.0629C476.164 68.7882 484.988 2 484.988 2" stroke="#333232" stroke-width="3" stroke-linecap="round"/>
<path d="M340.5 152C357.345 152 371 138.345 371 121.5C371 104.655 357.345 91 340.5 91C323.655 91 310 104.655 310 121.5C310 138.345 323.655 152 340.5 152Z" fill="#333232"/>
<path d="M331.998 116.895C332.019 117.492 331.861 118.082 331.544 118.589C331.228 119.096 330.767 119.497 330.221 119.74C329.675 119.984 329.069 120.058 328.48 119.955C327.891 119.851 327.347 119.574 326.917 119.159C326.487 118.744 326.19 118.21 326.066 117.625C325.941 117.04 325.994 116.432 326.218 115.878C326.442 115.323 326.826 114.848 327.321 114.514C327.816 114.179 328.4 114 328.998 114C329.776 114 330.524 114.301 331.083 114.841C331.643 115.381 331.971 116.118 331.998 116.895Z" fill="white"/>
<path d="M354.998 116.895C355.019 117.492 354.861 118.082 354.544 118.589C354.228 119.096 353.767 119.497 353.221 119.74C352.675 119.984 352.069 120.058 351.48 119.955C350.891 119.851 350.347 119.574 349.917 119.159C349.487 118.744 349.19 118.21 349.066 117.625C348.941 117.04 348.994 116.432 349.218 115.878C349.442 115.323 349.826 114.848 350.321 114.514C350.816 114.179 351.4 114 351.998 114C352.776 114 353.524 114.301 354.083 114.841C354.643 115.381 354.971 116.118 354.998 116.895Z" fill="white"/>
<path d="M347.408 135.096L334.108 136.419C333.651 136.492 333.184 136.491 332.737 136.417C332.29 136.342 331.873 136.196 331.51 135.988C331.148 135.779 330.849 135.512 330.632 135.204C330.415 134.896 330.285 134.553 330.25 134.196C330.214 133.84 330.274 133.478 330.426 133.133C330.578 132.788 330.819 132.468 331.133 132.192C331.447 131.916 331.828 131.691 332.251 131.53C332.675 131.369 333.132 131.276 333.595 131.258L346.895 129.935C347.352 129.862 347.818 129.863 348.265 129.937C348.712 130.011 349.13 130.157 349.492 130.366C349.854 130.575 350.153 130.841 350.37 131.15C350.587 131.458 350.718 131.801 350.753 132.157C350.788 132.513 350.728 132.875 350.576 133.22C350.424 133.565 350.184 133.886 349.87 134.162C349.556 134.438 349.175 134.663 348.751 134.824C348.328 134.985 347.87 135.077 347.408 135.096V135.096Z" fill="white"/>
</g>
<line opacity="0.2" x1="587.5" y1="257.5" x2="587.5" y2="247.5" stroke="#2A2D32" stroke-width="3" stroke-linecap="round"/>
<line opacity="0.2" x1="648.5" y1="257.5" x2="648.5" y2="247.5" stroke="#2A2D32" stroke-width="3" stroke-linecap="round"/>
<line opacity="0.2" x1="465.5" y1="257.5" x2="465.5" y2="247.5" stroke="#2A2D32" stroke-width="3" stroke-linecap="round"/>
<line opacity="0.2" x1="526.5" y1="257.5" x2="526.5" y2="247.5" stroke="#2A2D32" stroke-width="3" stroke-linecap="round"/>
<line opacity="0.2" x1="404.5" y1="257.5" x2="404.5" y2="247.5" stroke="#2A2D32" stroke-width="3" stroke-linecap="round"/>
</svg>
