<svg width="88" height="88" viewBox="0 0 88 88" fill="none" xmlns="http://www.w3.org/2000/svg">
<rect x="5.25" y="64.25" width="11.5" height="21.5" fill="white" stroke="#858585" stroke-width="4.5"/>
<rect x="27.25" y="42.25" width="11.5" height="43.5" fill="white" stroke="#858585" stroke-width="4.5"/>
<rect x="49.25" y="56.25" width="11.5" height="29.5" fill="white" stroke="#858585" stroke-width="4.5"/>
<rect x="71.25" y="35.25" width="11.5" height="50.5" fill="white" stroke="#858585" stroke-width="4.5"/>
<path d="M72.5915 16.109C73.8444 16.8207 75.2909 17.2296 76.8321 17.2296C81.5824 17.2296 85.447 13.365 85.447 8.61489C85.447 3.86461 81.5824 0 76.8321 0C72.082 0 68.2174 3.86461 68.2174 8.61489C68.2174 9.93798 68.518 11.192 69.0532 12.3133L59.7539 19.3559C58.3795 18.4274 56.724 17.8848 54.944 17.8848C53.2069 17.8848 51.5894 18.4033 50.2348 19.2913L41.1175 11.8314C41.474 10.8872 41.6705 9.86545 41.6705 8.79811C41.6705 4.048 37.8058 0.183391 33.0557 0.183391C28.3056 0.183391 24.441 4.048 24.441 8.79811C24.441 10.0021 24.6902 11.1488 25.1383 12.1906L13.2281 24.7201C12.5674 24.5573 11.8776 24.4692 11.1675 24.4692C6.41734 24.4692 2.55273 28.3338 2.55273 33.0839C2.55273 37.834 6.41734 41.6986 11.1675 41.6986C15.9176 41.6986 19.7822 37.834 19.7822 33.0839C19.7822 30.9518 19.0019 28.9996 17.714 27.4936L28.5248 16.1208C29.842 16.939 31.3942 17.413 33.0557 17.413C34.8647 17.413 36.5443 16.8513 37.9318 15.895L46.9561 23.2788C46.5533 24.2744 46.3291 25.361 46.3291 26.4995C46.3291 31.2496 50.1937 35.1142 54.9439 35.1142C59.694 35.1142 63.5586 31.2496 63.5586 26.4995C63.5586 25.4036 63.3508 24.3561 62.9759 23.3912L72.5915 16.109ZM76.8321 5.16209C78.736 5.16209 80.2849 6.71086 80.2849 8.61489C80.2849 10.5186 78.7362 12.0673 76.8321 12.0673C74.9284 12.0673 73.3795 10.5186 73.3795 8.61489C73.3797 6.71103 74.9284 5.16209 76.8321 5.16209ZM11.1675 36.5365C9.26377 36.5365 7.71483 34.9877 7.71483 33.0839C7.71483 31.18 9.26359 29.6312 11.1675 29.6312C13.0711 29.6312 14.6201 31.18 14.6201 33.0839C14.6201 34.9877 13.0711 36.5365 11.1675 36.5365ZM33.0557 12.2507C31.1521 12.2507 29.6031 10.702 29.6031 8.79811C29.6031 6.89425 31.1519 5.34566 33.0557 5.34566C34.9596 5.34566 36.5084 6.89442 36.5084 8.79811C36.5084 10.7018 34.9594 12.2507 33.0557 12.2507ZM54.944 29.9518C53.0403 29.9518 51.4914 28.403 51.4914 26.4993C51.4914 24.5957 53.0402 23.0467 54.944 23.0467C56.8479 23.0467 58.3966 24.5955 58.3966 26.4993C58.3966 28.4032 56.8477 29.9518 54.944 29.9518Z" fill="#057CC3"/>
</svg>
