<svg width="22" height="22" viewBox="0 0 22 22" fill="none" xmlns="http://www.w3.org/2000/svg">
<path d="M19.2501 10.0555L11.8826 17.0039C10.9801 17.8551 9.75593 18.3333 8.47951 18.3333C7.20308 18.3333 5.97894 17.8551 5.07637 17.0039C4.1738 16.1526 3.66675 14.9981 3.66675 13.7943C3.66675 12.5905 4.1738 11.436 5.07637 10.5847L12.4438 3.6363C13.0455 3.06881 13.8616 2.75 14.7126 2.75C15.5635 2.75 16.3796 3.06881 16.9813 3.6363C17.583 4.20379 17.9211 4.97347 17.9211 5.77602C17.9211 6.57857 17.583 7.34825 16.9813 7.91574L9.60587 14.8642C9.30501 15.1479 8.89696 15.3073 8.47149 15.3073C8.04601 15.3073 7.63797 15.1479 7.33711 14.8642C7.03625 14.5804 6.86724 14.1956 6.86724 13.7943C6.86724 13.393 7.03625 13.0082 7.33711 12.7244L14.1434 6.31284" stroke="#B3B3B3" stroke-width="1.5" stroke-linecap="round" stroke-linejoin="round"/>
</svg>
