<svg width="25" height="25" viewBox="0 0 25 25" fill="none" xmlns="http://www.w3.org/2000/svg">
<mask id="mask0_6920_15333" style="mask-type:alpha" maskUnits="userSpaceOnUse" x="0" y="0" width="25" height="25">
<rect x="0.320557" y="0.0322495" width="24" height="24" fill="#D9D9D9"/>
</mask>
<g mask="url(#mask0_6920_15333)">
<path d="M11.3206 14.0323H13.3206V11.0323H16.3206V9.03226H13.3206V6.03226H11.3206V9.03226H8.32056V11.0323H11.3206V14.0323ZM12.3206 19.3823C14.3539 17.5156 15.8622 15.8196 16.8456 14.2943C17.8289 12.7696 18.3206 11.4156 18.3206 10.2323C18.3206 8.41559 17.7412 6.92792 16.5826 5.76926C15.4246 4.61126 14.0039 4.03226 12.3206 4.03226C10.6372 4.03226 9.21622 4.61126 8.05756 5.76926C6.89956 6.92792 6.32056 8.41559 6.32056 10.2323C6.32056 11.4156 6.81222 12.7696 7.79556 14.2943C8.77889 15.8196 10.2872 17.5156 12.3206 19.3823ZM12.3206 22.0323C9.63722 19.7489 7.63322 17.6279 6.30856 15.6693C4.98322 13.7113 4.32056 11.8989 4.32056 10.2323C4.32056 7.73226 5.12489 5.74059 6.73356 4.25726C8.34156 2.77392 10.2039 2.03226 12.3206 2.03226C14.4372 2.03226 16.2996 2.77392 17.9076 4.25726C19.5162 5.74059 20.3206 7.73226 20.3206 10.2323C20.3206 11.8989 19.6582 13.7113 18.3336 15.6693C17.0082 17.6279 15.0039 19.7489 12.3206 22.0323Z" fill="white"/>
</g>
</svg>
