<svg width="16" height="16" viewBox="0 0 16 16" fill="none" xmlns="http://www.w3.org/2000/svg">
<path d="M12.6666 4.66658H11.9999V1.33325H3.99992V4.66658H3.33325C2.23059 4.66658 1.33325 5.56392 1.33325 6.66658V11.3333C1.33325 12.0686 1.93125 12.6666 2.66659 12.6666H3.99992V14.6666H11.9999V12.6666H13.3333C14.0686 12.6666 14.6666 12.0686 14.6666 11.3333V6.66658C14.6666 5.56392 13.7693 4.66658 12.6666 4.66658ZM5.33325 2.66659H10.6666V4.66658H5.33325V2.66659ZM10.6666 13.3333H5.33325V10.6666H10.6666V13.3333ZM13.3333 11.3333H11.9999V9.33325H3.99992V11.3333H2.66659V6.66658C2.66659 6.29925 2.96592 5.99992 3.33325 5.99992H12.6666C13.0346 5.99992 13.3333 6.29925 13.3333 6.66658V11.3333Z" fill="#057CC3"/>
<path d="M9.33325 6.66675H11.9999V8.00008H9.33325V6.66675Z" fill="#057CC3"/>
</svg>
