<svg width="32" height="32" viewBox="0 0 32 32" fill="none" xmlns="http://www.w3.org/2000/svg">
<g clip-path="url(#clip0_4681_18085)">
<path d="M31.6655 8.83032C31.1326 6.74024 29.9966 4.93799 28.3804 3.61841C26.8059 2.33301 24.877 1.625 22.9495 1.625C21.4717 1.625 20.0618 2.02295 18.7593 2.80762C17.7307 3.42749 16.8057 4.27051 15.9973 5.32276C14.1592 2.927 11.7324 1.625 9.04833 1.625C7.12132 1.625 5.19334 2.33301 3.61912 3.61841C2.00339 4.93799 0.867651 6.74024 0.334691 8.83008C-0.244656 11.1028 -0.356961 14.7349 2.40012 19.1316C4.95213 23.2012 9.37572 26.9719 15.5483 30.3389C15.6882 30.415 15.8425 30.4534 15.9971 30.4534C16.1516 30.4534 16.3059 30.4153 16.4458 30.3389C22.6201 26.9717 27.0452 23.2009 29.5982 19.1316C32.3565 14.7349 32.2449 11.103 31.6655 8.83032ZM15.9971 28.4458C8.68041 24.3738 5.0598 20.3352 3.33909 16.9766H5.95945C6.31468 16.9766 6.63914 16.7759 6.79783 16.4585L7.96751 14.1191L11.145 20.4744C11.3037 20.792 11.6284 20.9927 11.9834 20.9927C12.3384 20.9927 12.6631 20.792 12.8218 20.4744L15.9993 14.1191L17.1689 16.4585C17.3279 16.7761 17.6523 16.9766 18.0073 16.9766H25.1162C25.6338 16.9766 26.0535 16.5569 26.0535 16.0393C26.0535 15.5217 25.6338 15.1021 25.1162 15.1021H18.5867L16.8379 11.604C16.679 11.2864 16.3545 11.0859 15.9993 11.0859C15.6443 11.0859 15.3198 11.2864 15.1611 11.604L11.9834 17.9592L8.80589 11.604C8.64696 11.2864 8.32249 11.0859 7.96751 11.0859C7.61229 11.0859 7.28783 11.2864 7.12913 11.604L5.38011 15.1021H2.53855C1.60959 12.386 1.89451 10.3003 2.15134 9.29346C3.02122 5.88233 5.85716 3.49976 9.04833 3.49976C11.4619 3.49976 13.645 4.90991 15.1953 7.46997C15.365 7.75049 15.6689 7.92188 15.9968 7.92188H15.9971C16.3247 7.92188 16.6289 7.75073 16.7988 7.47022C18.3503 4.90991 20.5347 3.49976 22.9495 3.49976C26.1419 3.49976 28.979 5.88233 29.8489 9.29346C30.4522 11.6597 31.2119 19.98 15.9971 28.4458Z" fill="#858585"/>
<path d="M2 16H6L8 12L12 20L16 12L18 16H25.5" stroke="#057CC3" stroke-width="2" stroke-linecap="round" stroke-linejoin="round"/>
</g>
<defs>
<clipPath id="clip0_4681_18085">
<rect width="32" height="32" fill="white"/>
</clipPath>
</defs>
</svg>
