<svg width="32" height="32" viewBox="0 0 32 32" fill="none" xmlns="http://www.w3.org/2000/svg">
<path d="M16.8817 10.4653C16.8817 10.7161 16.9451 10.9502 17.0557 11.1263C17.165 11.3005 17.3351 11.437 17.5477 11.437C17.7603 11.437 17.9303 11.3005 18.0397 11.1263C18.1503 10.9502 18.2136 10.7161 18.2136 10.4653V2.82171C18.2136 2.57084 18.1503 2.3368 18.0397 2.16069C17.9303 1.98652 17.7603 1.85 17.5477 1.85C17.3351 1.85 17.165 1.98652 17.0557 2.16069C16.9451 2.3368 16.8817 2.57084 16.8817 2.82171V10.4653Z" fill="#057CC3" stroke="#057CC3" stroke-width="0.3"/>
<mask id="path-2-outside-1_4681_18129" maskUnits="userSpaceOnUse" x="6.13477" y="14.8965" width="20" height="6" fill="black">
<rect fill="white" x="6.13477" y="14.8965" width="20" height="6"/>
<path fill-rule="evenodd" clip-rule="evenodd" d="M17.1084 17.2662C17.0938 17.2617 17.0793 17.2565 17.0649 17.2507C16.3786 16.9755 15.6223 16.9755 14.936 17.2507C14.9205 17.2569 14.9049 17.2624 14.8892 17.2672L7.9212 20.0549C7.85183 20.0824 7.77958 20.095 7.70849 20.095C7.48144 20.095 7.26586 19.9591 7.17584 19.7344C7.0583 19.4402 7.20164 19.1065 7.49577 18.989L14.5096 16.1836C14.5245 16.1776 14.5395 16.1723 14.5546 16.1677C15.4904 15.8057 16.5134 15.8061 17.4491 16.1688C17.463 16.1731 17.4768 16.1781 17.4905 16.1836L24.5044 18.9896C24.7985 19.1071 24.9419 19.4408 24.8243 19.7349C24.7343 19.9597 24.5187 20.0956 24.2917 20.0956C24.2206 20.0956 24.1483 20.083 24.079 20.0549L17.1084 17.2662Z"/>
</mask>
<path fill-rule="evenodd" clip-rule="evenodd" d="M17.1084 17.2662C17.0938 17.2617 17.0793 17.2565 17.0649 17.2507C16.3786 16.9755 15.6223 16.9755 14.936 17.2507C14.9205 17.2569 14.9049 17.2624 14.8892 17.2672L7.9212 20.0549C7.85183 20.0824 7.77958 20.095 7.70849 20.095C7.48144 20.095 7.26586 19.9591 7.17584 19.7344C7.0583 19.4402 7.20164 19.1065 7.49577 18.989L14.5096 16.1836C14.5245 16.1776 14.5395 16.1723 14.5546 16.1677C15.4904 15.8057 16.5134 15.8061 17.4491 16.1688C17.463 16.1731 17.4768 16.1781 17.4905 16.1836L24.5044 18.9896C24.7985 19.1071 24.9419 19.4408 24.8243 19.7349C24.7343 19.9597 24.5187 20.0956 24.2917 20.0956C24.2206 20.0956 24.1483 20.083 24.079 20.0549L17.1084 17.2662Z" fill="#057CC3"/>
<path d="M17.1084 17.2662L17.2198 16.9876L17.2085 16.9831L17.1969 16.9795L17.1084 17.2662ZM17.0649 17.2507L17.1767 16.9724L17.1765 16.9723L17.0649 17.2507ZM14.936 17.2507L15.0475 17.5293L15.0476 17.5292L14.936 17.2507ZM14.8892 17.2672L14.8019 16.9802L14.7897 16.9839L14.7778 16.9887L14.8892 17.2672ZM7.9212 20.0549L8.03183 20.3337L8.03264 20.3334L7.9212 20.0549ZM7.17584 19.7344L6.89726 19.8457L6.89735 19.8459L7.17584 19.7344ZM7.49577 18.989L7.6071 19.2676L7.60719 19.2675L7.49577 18.989ZM14.5096 16.1836L14.621 16.4621L14.6212 16.462L14.5096 16.1836ZM14.5546 16.1677L14.6427 16.4544L14.6529 16.4513L14.6628 16.4475L14.5546 16.1677ZM17.4491 16.1688L17.3406 16.4485L17.3498 16.452L17.3591 16.455L17.4491 16.1688ZM17.4905 16.1836L17.3789 16.462L17.3791 16.4621L17.4905 16.1836ZM24.5044 18.9896L24.393 19.2681L24.3931 19.2681L24.5044 18.9896ZM24.8243 19.7349L25.1028 19.8465L25.1029 19.8462L24.8243 19.7349ZM24.079 20.0549L24.1916 19.7768L24.1904 19.7763L24.079 20.0549ZM17.1969 16.9795C17.1901 16.9774 17.1834 16.975 17.1767 16.9724L16.9531 17.5291C16.9752 17.538 16.9975 17.5459 17.02 17.5528L17.1969 16.9795ZM17.1765 16.9723C16.4185 16.6684 15.5823 16.6684 14.8243 16.9723L15.0476 17.5292C15.6623 17.2827 16.3386 17.2827 16.9532 17.5292L17.1765 16.9723ZM14.8245 16.9722C14.817 16.9753 14.8094 16.9779 14.8019 16.9802L14.9765 17.5542C15.0004 17.547 15.0241 17.5386 15.0475 17.5293L14.8245 16.9722ZM8.03264 20.3334L15.0007 17.5457L14.7778 16.9887L7.80977 19.7763L8.03264 20.3334ZM7.70849 20.395C7.81507 20.395 7.92508 20.3761 8.03183 20.3337L7.81058 19.776C7.77857 19.7887 7.7441 19.795 7.70849 19.795V20.395ZM6.89735 19.8459C7.03457 20.1885 7.36322 20.395 7.70849 20.395V19.795C7.59966 19.795 7.49715 19.7297 7.45433 19.6228L6.89735 19.8459ZM7.38445 18.7104C6.93662 18.8894 6.71818 19.3975 6.89726 19.8457L7.45442 19.623C7.39843 19.4829 7.46666 19.3237 7.6071 19.2676L7.38445 18.7104ZM14.3982 15.905L7.38436 18.7104L7.60719 19.2675L14.621 16.4621L14.3982 15.905ZM14.4665 15.8809C14.4435 15.888 14.4206 15.896 14.398 15.9051L14.6212 16.462C14.6284 16.4592 14.6356 16.4566 14.6427 16.4544L14.4665 15.8809ZM14.6628 16.4475C15.5289 16.1125 16.4747 16.1128 17.3406 16.4485L17.5575 15.889C16.5522 15.4994 15.4519 15.499 14.4464 15.8879L14.6628 16.4475ZM17.6021 15.9051C17.5813 15.8967 17.5602 15.8892 17.539 15.8826L17.3591 16.455C17.3657 16.457 17.3723 16.4594 17.3789 16.462L17.6021 15.9051ZM24.6158 18.711L17.602 15.905L17.3791 16.4621L24.393 19.2681L24.6158 18.711ZM25.1029 19.8462C25.282 19.3981 25.0635 18.8899 24.6157 18.711L24.3931 19.2681C24.5335 19.3243 24.6017 19.4835 24.5457 19.6236L25.1029 19.8462ZM24.2917 20.3956C24.6369 20.3956 24.9656 20.1891 25.1028 19.8465L24.5458 19.6234C24.503 19.7303 24.4005 19.7956 24.2917 19.7956V20.3956ZM23.9664 20.3329C24.0743 20.3766 24.1851 20.3956 24.2917 20.3956V19.7956C24.2561 19.7956 24.2224 19.7893 24.1916 19.7768L23.9664 20.3329ZM16.997 17.5447L23.9675 20.3334L24.1904 19.7763L17.2198 16.9876L16.997 17.5447Z" fill="#057CC3" mask="url(#path-2-outside-1_4681_18129)"/>
<mask id="path-4-outside-2_4681_18129" maskUnits="userSpaceOnUse" x="6.9873" y="1" width="9" height="16" fill="black">
<rect fill="white" x="6.9873" y="1" width="9" height="16"/>
<path fill-rule="evenodd" clip-rule="evenodd" d="M12.3318 14.5887C13.8254 13.9911 14.8046 12.5859 14.8527 10.9862C14.9257 10.8445 14.9694 10.6631 14.9694 10.4653V2.82171C14.9694 2.3673 14.7388 2 14.4535 2C14.1682 2 13.9375 2.3673 13.9375 2.82171V10.4032C13.798 10.5077 13.7079 10.6744 13.7079 10.8624C13.7079 12.0381 13.0054 13.0793 11.9167 13.5192C11.9131 13.5206 11.9096 13.522 11.906 13.5234L8.34831 14.9465C8.05418 15.064 7.91084 15.3977 8.02838 15.6918C8.1184 15.9166 8.33398 16.0525 8.56103 16.0525C8.63212 16.0525 8.70436 16.0393 8.77374 16.0118L12.319 14.5937C12.3233 14.5921 12.3276 14.5904 12.3318 14.5887Z"/>
</mask>
<path fill-rule="evenodd" clip-rule="evenodd" d="M12.3318 14.5887C13.8254 13.9911 14.8046 12.5859 14.8527 10.9862C14.9257 10.8445 14.9694 10.6631 14.9694 10.4653V2.82171C14.9694 2.3673 14.7388 2 14.4535 2C14.1682 2 13.9375 2.3673 13.9375 2.82171V10.4032C13.798 10.5077 13.7079 10.6744 13.7079 10.8624C13.7079 12.0381 13.0054 13.0793 11.9167 13.5192C11.9131 13.5206 11.9096 13.522 11.906 13.5234L8.34831 14.9465C8.05418 15.064 7.91084 15.3977 8.02838 15.6918C8.1184 15.9166 8.33398 16.0525 8.56103 16.0525C8.63212 16.0525 8.70436 16.0393 8.77374 16.0118L12.319 14.5937C12.3233 14.5921 12.3276 14.5904 12.3318 14.5887Z" fill="#057CC3"/>
<path d="M14.8527 10.9862L14.586 10.8489L14.5549 10.9093L14.5529 10.9772L14.8527 10.9862ZM12.3318 14.5887L12.2204 14.3101L12.2192 14.3106L12.3318 14.5887ZM13.9375 10.4032L14.1174 10.6433L14.2375 10.5533V10.4032H13.9375ZM11.9167 13.5192L12.023 13.7999L12.0291 13.7974L11.9167 13.5192ZM11.906 13.5234L12.0174 13.802L12.0178 13.8018L11.906 13.5234ZM8.34831 14.9465L8.45964 15.2251L8.45973 15.225L8.34831 14.9465ZM8.02838 15.6918L7.7498 15.8032L7.74989 15.8034L8.02838 15.6918ZM8.77374 16.0118L8.88436 16.2906L8.88516 16.2903L8.77374 16.0118ZM12.319 14.5937L12.2134 14.3128L12.2075 14.3151L12.319 14.5937ZM14.5529 10.9772C14.5083 12.4576 13.6031 13.7569 12.2204 14.3101L12.4433 14.8672C14.0478 14.2253 15.1009 12.7142 15.1526 10.9952L14.5529 10.9772ZM14.6694 10.4653C14.6694 10.6209 14.6347 10.7543 14.586 10.8489L15.1195 11.1235C15.2167 10.9347 15.2694 10.7054 15.2694 10.4653H14.6694ZM14.6694 2.82171V10.4653H15.2694V2.82171H14.6694ZM14.4535 2.3C14.4563 2.3 14.5031 2.30244 14.5644 2.39998C14.6232 2.49365 14.6694 2.64184 14.6694 2.82171H15.2694C15.2694 2.54717 15.2003 2.28451 15.0725 2.08093C14.9471 1.88121 14.736 1.7 14.4535 1.7V2.3ZM14.2375 2.82171C14.2375 2.64184 14.2838 2.49365 14.3426 2.39998C14.4038 2.30244 14.4507 2.3 14.4535 2.3V1.7C14.171 1.7 13.9598 1.88121 13.8344 2.08093C13.7066 2.28451 13.6375 2.54717 13.6375 2.82171H14.2375ZM14.2375 10.4032V2.82171H13.6375V10.4032H14.2375ZM14.0079 10.8624C14.0079 10.7726 14.0505 10.6935 14.1174 10.6433L13.7577 10.1631C13.5456 10.322 13.4079 10.5762 13.4079 10.8624H14.0079ZM12.0291 13.7974C13.2312 13.3116 14.0079 12.1603 14.0079 10.8624H13.4079C13.4079 11.9159 12.7796 12.847 11.8043 13.2411L12.0291 13.7974ZM12.0178 13.8018C12.0195 13.8011 12.0212 13.8004 12.0229 13.7998L11.8105 13.2386C11.8051 13.2407 11.7996 13.2428 11.7942 13.245L12.0178 13.8018ZM8.45973 15.225L12.0174 13.802L11.7946 13.2449L8.23689 14.6679L8.45973 15.225ZM8.30696 15.5805C8.25097 15.4404 8.3192 15.2812 8.45964 15.2251L8.23699 14.6679C7.78916 14.8469 7.57072 15.355 7.7498 15.8032L8.30696 15.5805ZM8.56103 15.7525C8.4522 15.7525 8.34969 15.6872 8.30687 15.5803L7.74989 15.8034C7.88711 16.146 8.21575 16.3525 8.56103 16.3525V15.7525ZM8.66312 15.7329C8.62966 15.7462 8.59502 15.7525 8.56103 15.7525V16.3525C8.66922 16.3525 8.77906 16.3324 8.88436 16.2906L8.66312 15.7329ZM12.2075 14.3151L8.66232 15.7332L8.88516 16.2903L12.4304 14.8722L12.2075 14.3151ZM12.2192 14.3106C12.2173 14.3114 12.2154 14.3121 12.2135 14.3128L12.4245 14.8745C12.4311 14.872 12.4378 14.8694 12.4445 14.8667L12.2192 14.3106Z" fill="#057CC3" mask="url(#path-4-outside-2_4681_18129)"/>
<path d="M20.5545 14.323L20.5544 14.3232C20.4407 14.6064 20.1685 14.7774 19.882 14.7774C19.7932 14.7774 19.7018 14.7617 19.6132 14.7259C18.0239 14.0901 16.9965 12.5724 16.9965 10.8605C16.9965 10.4606 17.3199 10.1371 17.7198 10.1371C18.1197 10.1371 18.4432 10.4606 18.4432 10.8605C18.4432 11.9785 19.1128 12.9674 20.1509 13.3827L20.5545 14.323ZM20.5545 14.323C20.7028 13.9519 20.5219 13.531 20.151 13.3827L20.5545 14.323Z" fill="#057CC3" stroke="#057CC3" stroke-width="0.3"/>
<path d="M23.1723 16.1534C23.1722 16.1534 23.1721 16.1534 23.172 16.1533L19.6144 14.7299C19.6144 14.7299 19.6144 14.7299 19.6144 14.7299C19.2435 14.5817 19.0626 14.1608 19.2108 13.7897M23.1723 16.1534L23.9731 15.6938C24.0907 15.3997 23.9473 15.066 23.6532 14.9484L23.7089 14.8092L23.7088 14.8091L20.1514 13.3862L20.0955 13.5254L20.1512 13.3861L20.1513 13.3861C19.7835 13.2385 19.3593 13.4169 19.2108 13.7897M23.1723 16.1534C23.2609 16.1893 23.3523 16.205 23.441 16.205C23.7274 16.205 23.9996 16.033 24.1125 15.7493L23.1723 16.1534ZM19.2108 13.7897C19.2108 13.7898 19.2108 13.7898 19.2108 13.7898L19.3502 13.8453L19.2109 13.7896C19.2109 13.7897 19.2108 13.7897 19.2108 13.7897Z" fill="#057CC3" stroke="#057CC3" stroke-width="0.3"/>
<mask id="path-8-outside-3_4681_18129" maskUnits="userSpaceOnUse" x="-0.479492" y="7.44336" width="16" height="23" fill="black">
<rect fill="white" x="-0.479492" y="7.44336" width="16" height="23"/>
<path fill-rule="evenodd" clip-rule="evenodd" d="M7.39946 9.89446C7.4043 9.88971 7.40923 9.88502 7.41427 9.88041C8.49848 8.88564 9.9657 8.36102 11.4312 8.4539C11.7477 8.47282 11.9885 8.74459 11.969 9.06051C11.9507 9.377 11.6766 9.61093 11.3624 9.59832C10.1968 9.52779 9.04546 9.94004 8.18887 10.7261C8.1831 10.7314 8.17725 10.7365 8.17132 10.7415C3.62375 14.9245 1.21903 21.0919 1.73518 27.2486C1.73653 27.2586 1.73763 27.2686 1.73848 27.2788C1.81634 28.1922 2.60318 28.8924 3.52262 28.8512C3.53734 28.8491 3.55224 28.8475 3.56733 28.8465C6.27299 28.6647 8.89494 28.0008 11.3604 26.8747L11.3743 26.8685C12.791 26.214 13.7051 24.7866 13.7061 23.2262L13.7061 23.2214V19.3605C13.7061 19.0434 13.9623 18.7871 14.2794 18.7871C14.5965 18.7871 14.8528 19.0434 14.8528 19.3605V23.2189L14.8528 23.2237C14.8528 25.2379 13.6694 27.0801 11.8375 27.9172L11.8251 27.9227C9.25163 29.0969 6.5161 29.7916 3.69428 29.9875C3.67786 29.99 3.66119 29.9919 3.64431 29.993C3.58067 29.997 3.51702 29.9993 3.45338 29.9993C1.98811 29.9993 0.729191 28.8661 0.597465 27.389C0.596903 27.384 0.596406 27.3789 0.595975 27.3738C0.0397741 20.8546 2.58299 14.3211 7.39946 9.89446Z"/>
</mask>
<path fill-rule="evenodd" clip-rule="evenodd" d="M7.39946 9.89446C7.4043 9.88971 7.40923 9.88502 7.41427 9.88041C8.49848 8.88564 9.9657 8.36102 11.4312 8.4539C11.7477 8.47282 11.9885 8.74459 11.969 9.06051C11.9507 9.377 11.6766 9.61093 11.3624 9.59832C10.1968 9.52779 9.04546 9.94004 8.18887 10.7261C8.1831 10.7314 8.17725 10.7365 8.17132 10.7415C3.62375 14.9245 1.21903 21.0919 1.73518 27.2486C1.73653 27.2586 1.73763 27.2686 1.73848 27.2788C1.81634 28.1922 2.60318 28.8924 3.52262 28.8512C3.53734 28.8491 3.55224 28.8475 3.56733 28.8465C6.27299 28.6647 8.89494 28.0008 11.3604 26.8747L11.3743 26.8685C12.791 26.214 13.7051 24.7866 13.7061 23.2262L13.7061 23.2214V19.3605C13.7061 19.0434 13.9623 18.7871 14.2794 18.7871C14.5965 18.7871 14.8528 19.0434 14.8528 19.3605V23.2189L14.8528 23.2237C14.8528 25.2379 13.6694 27.0801 11.8375 27.9172L11.8251 27.9227C9.25163 29.0969 6.5161 29.7916 3.69428 29.9875C3.67786 29.99 3.66119 29.9919 3.64431 29.993C3.58067 29.997 3.51702 29.9993 3.45338 29.9993C1.98811 29.9993 0.729191 28.8661 0.597465 27.389C0.596903 27.384 0.596406 27.3789 0.595975 27.3738C0.0397741 20.8546 2.58299 14.3211 7.39946 9.89446Z" fill="#858585"/>
<path d="M7.39946 9.89446L7.60258 10.1155L7.60976 10.1084L7.39946 9.89446ZM7.41427 9.88041L7.61698 10.1016L7.61708 10.1015L7.41427 9.88041ZM11.4312 8.4539L11.4122 8.7533L11.4133 8.75337L11.4312 8.4539ZM11.969 9.06051L11.6696 9.04203L11.6695 9.04315L11.969 9.06051ZM11.3624 9.59832L11.3443 9.89783L11.3504 9.89807L11.3624 9.59832ZM8.18887 10.7261L8.39153 10.9473L8.39171 10.9471L8.18887 10.7261ZM8.17132 10.7415L7.97763 10.5121L7.96823 10.5207L8.17132 10.7415ZM1.73518 27.2486L1.43623 27.2737L1.43686 27.2812L1.43788 27.2887L1.73518 27.2486ZM1.73848 27.2788L1.43952 27.3038L1.43956 27.3042L1.73848 27.2788ZM3.52262 28.8512L3.53607 29.1509L3.55098 29.1502L3.56576 29.1481L3.52262 28.8512ZM3.56733 28.8465L3.58743 29.1458H3.58744L3.56733 28.8465ZM11.3604 26.8747L11.2387 26.6005L11.2357 26.6018L11.3604 26.8747ZM11.3743 26.8685L11.496 27.1428L11.5001 27.1409L11.3743 26.8685ZM13.7061 23.2262L14.0061 23.2264L14.0061 23.225L13.7061 23.2262ZM13.7061 23.2214H13.4061L13.4061 23.2226L13.7061 23.2214ZM14.8528 23.2189H14.5528L14.5528 23.2201L14.8528 23.2189ZM14.8528 23.2237H15.1528L15.1528 23.2225L14.8528 23.2237ZM11.8375 27.9172L11.958 28.192L11.9622 28.1901L11.8375 27.9172ZM11.8251 27.9227L11.7046 27.6479L11.7006 27.6497L11.8251 27.9227ZM3.69428 29.9875L3.6735 29.6882L3.66089 29.6891L3.64839 29.691L3.69428 29.9875ZM3.64431 29.993L3.6632 30.2924L3.6644 30.2923L3.64431 29.993ZM0.597465 27.389L0.896349 27.3624L0.895634 27.356L0.597465 27.389ZM0.595975 27.3738L0.89491 27.3485L0.894889 27.3483L0.595975 27.3738ZM7.60976 10.1084C7.61211 10.1061 7.61451 10.1038 7.61698 10.1016L7.21155 9.65926C7.20395 9.66623 7.19649 9.67331 7.18917 9.6805L7.60976 10.1084ZM7.61708 10.1015C8.64184 9.16124 10.0292 8.66565 11.4122 8.7533L11.4502 8.1545C9.90218 8.05639 8.35512 8.61003 7.21145 9.65935L7.61708 10.1015ZM11.4133 8.75337C11.5645 8.7624 11.6788 8.89201 11.6696 9.04203L12.2684 9.07899C12.2982 8.59717 11.9309 8.18324 11.4491 8.15444L11.4133 8.75337ZM11.6695 9.04315C11.6612 9.18698 11.5346 9.30499 11.3744 9.29856L11.3504 9.89807C11.8185 9.91687 12.2401 9.56703 12.2685 9.07787L11.6695 9.04315ZM11.3805 9.29886C10.1332 9.2234 8.90225 9.66428 7.98603 10.5051L8.39171 10.9471C9.18867 10.2158 10.2603 9.83219 11.3443 9.89777L11.3805 9.29886ZM7.98621 10.5049C7.98343 10.5074 7.98063 10.5099 7.9778 10.5123L8.36484 10.9708C8.37387 10.9632 8.38277 10.9553 8.39153 10.9473L7.98621 10.5049ZM7.96823 10.5207C3.35245 14.7665 0.912338 21.0246 1.43623 27.2737L2.03413 27.2235C1.52573 21.1592 3.89506 15.0826 8.37442 10.9623L7.96823 10.5207ZM2.03743 27.2538C2.03616 27.2386 2.03451 27.2234 2.03248 27.2084L1.43788 27.2887C1.43855 27.2937 1.43909 27.2987 1.43952 27.3038L2.03743 27.2538ZM3.50918 28.5515C2.75246 28.5854 2.10174 28.0082 2.03739 27.2533L1.43956 27.3042C1.53093 28.3762 2.45389 29.1994 3.53607 29.1509L3.50918 28.5515ZM3.54723 28.5471C3.52443 28.5487 3.50183 28.5511 3.47948 28.5543L3.56576 29.1481C3.57284 29.1471 3.58006 29.1463 3.58743 29.1458L3.54723 28.5471ZM11.2357 26.6018C8.80323 27.7128 6.21669 28.3678 3.54722 28.5471L3.58744 29.1458C6.3293 28.9616 8.98666 28.2887 11.485 27.1476L11.2357 26.6018ZM11.2526 26.5943L11.2387 26.6005L11.482 27.1489L11.4959 27.1428L11.2526 26.5943ZM13.4061 23.226C13.4052 24.6694 12.5592 25.9907 11.2485 26.5962L11.5001 27.1409C13.0229 26.4374 14.005 24.9038 14.0061 23.2264L13.4061 23.226ZM13.4061 23.2226L13.4061 23.2274L14.0061 23.225L14.0061 23.2202L13.4061 23.2226ZM13.4061 19.3605V23.2214H14.0061V19.3605H13.4061ZM14.2794 18.4871C13.7967 18.4871 13.4061 18.8777 13.4061 19.3605H14.0061C14.0061 19.2091 14.128 19.0871 14.2794 19.0871V18.4871ZM15.1528 19.3605C15.1528 18.8777 14.7622 18.4871 14.2794 18.4871V19.0871C14.4308 19.0871 14.5528 19.2091 14.5528 19.3605H15.1528ZM15.1528 23.2189V19.3605H14.5528V23.2189H15.1528ZM15.1528 23.2225L15.1528 23.2177L14.5528 23.2201L14.5528 23.225L15.1528 23.2225ZM11.9622 28.1901C13.9009 27.3042 15.1528 25.3553 15.1528 23.2237H14.5528C14.5528 25.1205 13.4379 26.8561 11.7128 27.6444L11.9622 28.1901ZM11.9457 28.1974L11.958 28.192L11.717 27.6425L11.7046 27.6479L11.9457 28.1974ZM3.71505 30.2868C6.57277 30.0884 9.34343 29.3848 11.9497 28.1956L11.7006 27.6497C9.15982 28.8091 6.45944 29.4948 3.6735 29.6882L3.71505 30.2868ZM3.6644 30.2923C3.68992 30.2906 3.71519 30.2878 3.74016 30.284L3.64839 29.691C3.64053 29.6922 3.63247 29.6931 3.62422 29.6937L3.6644 30.2923ZM3.45338 30.2993C3.5242 30.2993 3.5942 30.2968 3.6632 30.2924L3.62542 29.6936C3.56714 29.6973 3.50985 29.6993 3.45338 29.6993V30.2993ZM0.298651 27.4157C0.44431 29.0489 1.83424 30.2993 3.45338 30.2993V29.6993C2.14198 29.6993 1.01407 28.6832 0.896279 27.3624L0.298651 27.4157ZM0.895634 27.356C0.895362 27.3535 0.895121 27.351 0.89491 27.3485L0.297039 27.399C0.297691 27.4068 0.298444 27.4145 0.299296 27.4221L0.895634 27.356ZM0.894889 27.3483C0.346583 20.9217 2.85439 14.4792 7.60247 10.1153L7.19646 9.67357C2.31159 14.1631 -0.267035 20.7876 0.297061 27.3993L0.894889 27.3483Z" fill="#858585" mask="url(#path-8-outside-3_4681_18129)"/>
<mask id="path-10-outside-4_4681_18129" maskUnits="userSpaceOnUse" x="16" y="7.44336" width="16" height="23" fill="black">
<rect fill="white" x="16" y="7.44336" width="16" height="23"/>
<path fill-rule="evenodd" clip-rule="evenodd" d="M23.7896 10.7065C22.9351 9.93286 21.7857 9.52951 20.6369 9.59776C20.321 9.6098 20.0493 9.37587 20.0303 9.05995C20.0114 8.74403 20.2522 8.47283 20.5681 8.45334C22.0434 8.36332 23.5014 8.88565 24.5851 9.87985C24.5958 9.88976 24.6062 9.89999 24.616 9.9105C29.4211 14.3375 31.9574 20.8624 31.4024 27.3736C31.4018 27.3813 31.401 27.389 31.4 27.3967C31.2648 28.8695 30.0073 29.9984 28.5454 29.9984C28.4824 29.9984 28.4182 29.9961 28.3539 29.9921C28.3421 29.9913 28.3305 29.9902 28.3189 29.9887C25.4877 29.7938 22.7433 29.0969 20.162 27.9173C19.9827 27.8355 19.866 27.6728 19.8353 27.492C18.0814 26.5928 17 25.1224 17 23.539C17 23.4188 17.0544 23.308 17.1465 23.2184V19.3605C17.1465 19.0434 17.4028 18.7871 17.7198 18.7871C18.0369 18.7871 18.2932 19.0434 18.2932 19.3605V23.1683C18.4203 23.2648 18.4981 23.3952 18.4981 23.539C18.4981 25.0109 19.7004 26.3578 21.5625 26.9706C21.83 27.0584 21.991 27.2454 21.9996 27.4437C24.0612 28.227 26.2186 28.698 28.4321 28.8467C28.4393 28.8472 28.4465 28.8478 28.4536 28.8486C28.457 28.8489 28.4604 28.8493 28.4638 28.8497C29.3691 28.8961 30.1822 28.195 30.2598 27.2778C30.2604 27.2705 30.2611 27.2631 30.262 27.2558C30.7814 21.0887 28.3701 14.9106 23.8101 10.7262C23.803 10.7198 23.7962 10.7132 23.7896 10.7065Z"/>
</mask>
<path fill-rule="evenodd" clip-rule="evenodd" d="M23.7896 10.7065C22.9351 9.93286 21.7857 9.52951 20.6369 9.59776C20.321 9.6098 20.0493 9.37587 20.0303 9.05995C20.0114 8.74403 20.2522 8.47283 20.5681 8.45334C22.0434 8.36332 23.5014 8.88565 24.5851 9.87985C24.5958 9.88976 24.6062 9.89999 24.616 9.9105C29.4211 14.3375 31.9574 20.8624 31.4024 27.3736C31.4018 27.3813 31.401 27.389 31.4 27.3967C31.2648 28.8695 30.0073 29.9984 28.5454 29.9984C28.4824 29.9984 28.4182 29.9961 28.3539 29.9921C28.3421 29.9913 28.3305 29.9902 28.3189 29.9887C25.4877 29.7938 22.7433 29.0969 20.162 27.9173C19.9827 27.8355 19.866 27.6728 19.8353 27.492C18.0814 26.5928 17 25.1224 17 23.539C17 23.4188 17.0544 23.308 17.1465 23.2184V19.3605C17.1465 19.0434 17.4028 18.7871 17.7198 18.7871C18.0369 18.7871 18.2932 19.0434 18.2932 19.3605V23.1683C18.4203 23.2648 18.4981 23.3952 18.4981 23.539C18.4981 25.0109 19.7004 26.3578 21.5625 26.9706C21.83 27.0584 21.991 27.2454 21.9996 27.4437C24.0612 28.227 26.2186 28.698 28.4321 28.8467C28.4393 28.8472 28.4465 28.8478 28.4536 28.8486C28.457 28.8489 28.4604 28.8493 28.4638 28.8497C29.3691 28.8961 30.1822 28.195 30.2598 27.2778C30.2604 27.2705 30.2611 27.2631 30.262 27.2558C30.7814 21.0887 28.3701 14.9106 23.8101 10.7262C23.803 10.7198 23.7962 10.7132 23.7896 10.7065Z" fill="#858585"/>
<path d="M23.7896 10.7065L24.0028 10.4955L23.997 10.4897L23.9909 10.4841L23.7896 10.7065ZM20.6369 9.59776L20.6484 9.89761L20.6547 9.89723L20.6369 9.59776ZM20.0303 9.05995L20.3298 9.04202L20.0303 9.05995ZM20.5681 8.45334L20.5499 8.1539L20.5497 8.15391L20.5681 8.45334ZM24.5851 9.87985L24.788 9.65895L24.7879 9.65879L24.5851 9.87985ZM24.616 9.9105L24.3971 10.1157L24.4047 10.1237L24.4127 10.1311L24.616 9.9105ZM31.4024 27.3736L31.1035 27.3481L31.1035 27.3483L31.4024 27.3736ZM31.4 27.3967L31.1022 27.3595L31.1013 27.3692L31.4 27.3967ZM28.3539 29.9921L28.3338 30.2914L28.3352 30.2915L28.3539 29.9921ZM28.3189 29.9887L28.3571 29.6911L28.3483 29.69L28.3395 29.6894L28.3189 29.9887ZM20.162 27.9173L20.2867 27.6444L20.2865 27.6444L20.162 27.9173ZM19.8353 27.492L20.131 27.4418L20.1058 27.2936L19.9721 27.2251L19.8353 27.492ZM17.1465 23.2184L17.3556 23.4335L17.4465 23.3452V23.2184H17.1465ZM18.2932 23.1683H17.9932V23.3171L18.1117 23.4071L18.2932 23.1683ZM21.5625 26.9706L21.4688 27.2555L21.469 27.2556L21.5625 26.9706ZM21.9996 27.4437L21.6999 27.4568L21.7085 27.654L21.8931 27.7241L21.9996 27.4437ZM28.4321 28.8467L28.4522 28.5474L28.4522 28.5474L28.4321 28.8467ZM28.4536 28.8486L28.4224 29.1469L28.4225 29.1469L28.4536 28.8486ZM28.4638 28.8497L28.4273 29.1475L28.4378 29.1488L28.4485 29.1493L28.4638 28.8497ZM30.2598 27.2778L30.5587 27.3031L30.5587 27.3028L30.2598 27.2778ZM30.262 27.2558L30.5601 27.2918L30.561 27.281L30.262 27.2558ZM23.8101 10.7262L24.0129 10.5052L24.0128 10.5051L23.8101 10.7262ZM23.9909 10.4841C23.0767 9.65632 21.8483 9.22527 20.6192 9.29829L20.6547 9.89723C21.7232 9.83376 22.7936 10.2094 23.5882 10.9289L23.9909 10.4841ZM20.6255 9.29797C20.4639 9.30414 20.3385 9.18644 20.3298 9.04202L19.7309 9.07789C19.7601 9.56529 20.1782 9.91546 20.6484 9.89754L20.6255 9.29797ZM20.3298 9.04202C20.3208 8.89179 20.4353 8.76211 20.5866 8.75277L20.5497 8.15391C20.0691 8.18356 19.702 8.59628 19.7309 9.07789L20.3298 9.04202ZM20.5864 8.75278C21.9798 8.66776 23.3582 9.16139 24.3822 10.1009L24.7879 9.65879C23.6446 8.60991 22.1069 8.05889 20.5499 8.1539L20.5864 8.75278ZM24.3821 10.1007C24.3874 10.1056 24.3924 10.1106 24.3971 10.1157L24.8349 9.70535C24.82 9.6894 24.8043 9.67392 24.788 9.65895L24.3821 10.1007ZM24.4127 10.1311C29.1496 14.4953 31.6506 20.9293 31.1035 27.3481L31.7013 27.3991C32.2642 20.7954 29.6925 14.1797 24.8193 9.68987L24.4127 10.1311ZM31.1035 27.3483C31.1032 27.3521 31.1028 27.3559 31.1023 27.3595L31.6977 27.4338C31.6992 27.4222 31.7004 27.4105 31.7014 27.3988L31.1035 27.3483ZM28.5454 30.2984C30.1609 30.2984 31.5492 29.0529 31.6988 27.4241L31.1013 27.3692C30.9803 28.6862 29.8538 29.6984 28.5454 29.6984V30.2984ZM28.3352 30.2915C28.4047 30.2959 28.4752 30.2984 28.5454 30.2984V29.6984C28.4895 29.6984 28.4316 29.6964 28.3727 29.6927L28.3352 30.2915ZM28.2807 30.2863C28.2983 30.2885 28.316 30.2902 28.3338 30.2914L28.3741 29.6928C28.3683 29.6924 28.3626 29.6918 28.3571 29.6911L28.2807 30.2863ZM20.0373 28.1902C22.6514 29.3847 25.4311 30.0906 28.2983 30.288L28.3395 29.6894C25.5443 29.497 22.8351 28.809 20.2867 27.6444L20.0373 28.1902ZM19.5395 27.5423C19.5862 27.8169 19.764 28.0655 20.0375 28.1902L20.2865 27.6444C20.2015 27.6056 20.1458 27.5288 20.131 27.4418L19.5395 27.5423ZM16.7 23.539C16.7 25.2687 17.8784 26.8259 19.6984 27.759L19.9721 27.2251C18.2843 26.3597 17.3 24.9761 17.3 23.539H16.7ZM16.9373 23.0033C16.7989 23.138 16.7 23.3228 16.7 23.539H17.3C17.3 23.5149 17.3099 23.478 17.3556 23.4335L16.9373 23.0033ZM16.8465 19.3605V23.2184H17.4465V19.3605H16.8465ZM17.7198 18.4871C17.2371 18.4871 16.8465 18.8777 16.8465 19.3605H17.4465C17.4465 19.2091 17.5685 19.0871 17.7198 19.0871V18.4871ZM18.5932 19.3605C18.5932 18.8777 18.2026 18.4871 17.7198 18.4871V19.0871C17.8712 19.0871 17.9932 19.2091 17.9932 19.3605H18.5932ZM18.5932 23.1683V19.3605H17.9932V23.1683H18.5932ZM18.7981 23.539C18.7981 23.279 18.6565 23.0675 18.4747 22.9294L18.1117 23.4071C18.184 23.4621 18.1981 23.5115 18.1981 23.539H18.7981ZM21.6563 26.6856C19.8658 26.0964 18.7981 24.8344 18.7981 23.539H18.1981C18.1981 25.1874 19.5349 26.6191 21.4688 27.2555L21.6563 26.6856ZM22.2994 27.4307C22.2836 27.0679 21.9993 26.7982 21.6561 26.6855L21.469 27.2556C21.6608 27.3186 21.6984 27.423 21.6999 27.4568L22.2994 27.4307ZM28.4522 28.5474C26.2682 28.4007 24.1399 27.936 22.1062 27.1633L21.8931 27.7241C23.9825 28.518 26.169 28.9954 28.412 29.146L28.4522 28.5474ZM28.4848 28.5502C28.474 28.5491 28.4631 28.5481 28.4522 28.5474L28.4119 29.146C28.4155 29.1463 28.419 29.1466 28.4224 29.1469L28.4848 28.5502ZM28.5003 28.5519C28.4951 28.5513 28.4899 28.5507 28.4848 28.5502L28.4225 29.1469C28.4242 29.1471 28.4258 29.1473 28.4273 29.1475L28.5003 28.5519ZM29.9608 27.2526C29.8969 28.0079 29.2234 28.5882 28.4791 28.5501L28.4485 29.1493C29.5149 29.2039 30.4674 28.382 30.5587 27.3031L29.9608 27.2526ZM29.9642 27.2199C29.9629 27.2308 29.9617 27.2418 29.9608 27.2529L30.5587 27.3028C30.559 27.2991 30.5594 27.2954 30.5599 27.2918L29.9642 27.2199ZM30.561 27.281C31.0881 21.0213 28.6414 14.7523 24.0129 10.5052L23.6072 10.9473C28.0989 15.0688 30.4746 21.156 29.9631 27.2307L30.561 27.281ZM24.0128 10.5051C24.0093 10.5019 24.006 10.4987 24.0028 10.4955L23.5764 10.9175C23.5864 10.9277 23.5967 10.9377 23.6074 10.9474L24.0128 10.5051Z" fill="#858585" mask="url(#path-10-outside-4_4681_18129)"/>
</svg>
