<svg width="88" height="88" viewBox="0 0 88 88" fill="none" xmlns="http://www.w3.org/2000/svg">
<g filter="url(#filter0_d_15854_3996)">
<rect x="20" y="16" width="48" height="48" rx="24" fill="#38BDF8"/>
</g>
<path d="M49.0233 33.5012C49.0233 33.0068 49.17 32.5234 49.4447 32.1123C49.7194 31.7012 50.1098 31.3807 50.5666 31.1915C51.0234 31.0023 51.5261 30.9528 52.0111 31.0492C52.496 31.1457 52.9415 31.3838 53.2911 31.7334C53.6407 32.0831 53.8788 32.5285 53.9753 33.0135C54.0718 33.4984 54.0223 34.0011 53.833 34.4579C53.6438 34.9147 53.3234 35.3052 52.9123 35.5799C52.5011 35.8546 52.0178 36.0012 51.5233 36.0012C50.8603 36.0012 50.2244 35.7378 49.7556 35.269C49.2867 34.8001 49.0233 34.1643 49.0233 33.5012ZM54.3553 48.4912C53.9895 48.8199 53.5151 49.0015 53.0233 49.0012C52.5882 49.0015 52.1623 48.8757 51.7971 48.6392C51.4319 48.4026 51.143 48.0654 50.9653 47.6682C50.8961 47.4738 50.7683 47.3056 50.5997 47.1866C50.431 47.0677 50.2297 47.0038 50.0233 47.0038C49.817 47.0038 49.6156 47.0677 49.447 47.1866C49.2783 47.3056 49.1506 47.4738 49.0813 47.6682C48.9035 48.0653 48.6146 48.4024 48.2494 48.639C47.8842 48.8756 47.4584 49.0014 47.0233 49.0014C46.5882 49.0014 46.1624 48.8756 45.7973 48.639C45.4321 48.4024 45.1432 48.0653 44.9653 47.6682C44.8961 47.4738 44.7683 47.3056 44.5997 47.1866C44.431 47.0677 44.2297 47.0038 44.0233 47.0038C43.817 47.0038 43.6156 47.0677 43.447 47.1866C43.2783 47.3056 43.1506 47.4738 43.0813 47.6682C42.9035 48.0653 42.6146 48.4024 42.2494 48.639C41.8842 48.8756 41.4584 49.0014 41.0233 49.0014C40.5882 49.0014 40.1624 48.8756 39.7973 48.639C39.4321 48.4024 39.1432 48.0653 38.9653 47.6682C38.8961 47.4738 38.7683 47.3056 38.5997 47.1866C38.431 47.0677 38.2297 47.0038 38.0233 47.0038C37.817 47.0038 37.6156 47.0677 37.447 47.1866C37.2783 47.3056 37.1506 47.4738 37.0813 47.6682C36.9037 48.0654 36.6148 48.4026 36.2496 48.6392C35.8843 48.8757 35.4585 49.0015 35.0233 49.0012C34.5316 49.0015 34.0571 48.8199 33.6913 48.4912C33.5945 48.3986 33.4801 48.3264 33.3549 48.2788C33.2296 48.2313 33.0961 48.2094 32.9623 48.2145C32.8284 48.2195 32.6969 48.2514 32.5756 48.3083C32.4543 48.3651 32.3457 48.4458 32.2561 48.5454C32.1666 48.6451 32.098 48.7617 32.0544 48.8884C32.0108 49.015 31.9931 49.1492 32.0024 49.2828C32.0116 49.4165 32.0477 49.5469 32.1083 49.6663C32.1689 49.7858 32.2529 49.8919 32.3553 49.9782C33.0874 50.6376 34.038 51.0021 35.0233 51.0012C36.1433 50.9919 37.217 50.5535 38.0233 49.7762C38.8245 50.5614 39.9016 51.0012 41.0233 51.0012C42.1451 51.0012 43.2222 50.5614 44.0233 49.7762C44.8245 50.5614 45.9016 51.0012 47.0233 51.0012C48.1451 51.0012 49.2222 50.5614 50.0233 49.7762C50.8297 50.5535 51.9034 50.9919 53.0233 51.0012C54.0086 51.0021 54.9592 50.6376 55.6913 49.9782C55.7937 49.8919 55.8778 49.7858 55.9384 49.6663C55.999 49.5469 56.035 49.4165 56.0443 49.2828C56.0535 49.1492 56.0358 49.015 55.9922 48.8884C55.9487 48.7617 55.8801 48.6451 55.7905 48.5454C55.701 48.4458 55.5924 48.3651 55.4711 48.3083C55.3498 48.2514 55.2183 48.2195 55.0844 48.2145C54.9505 48.2094 54.817 48.2313 54.6918 48.2788C54.5665 48.3264 54.4521 48.3986 54.3553 48.4912ZM32.3553 44.9782C33.0874 45.6376 34.038 46.0021 35.0233 46.0012C36.1433 45.9919 37.217 45.5535 38.0233 44.7762C38.8245 45.5614 39.9016 46.0012 41.0233 46.0012C42.1451 46.0012 43.2222 45.5614 44.0233 44.7762C44.8245 45.5614 45.9016 46.0012 47.0233 46.0012C48.1451 46.0012 49.2222 45.5614 50.0233 44.7762C50.8297 45.5535 51.9034 45.9919 53.0233 46.0012C54.0086 46.0021 54.9592 45.6376 55.6913 44.9782C55.7937 44.8919 55.8778 44.7858 55.9384 44.6663C55.999 44.5469 56.035 44.4165 56.0443 44.2828C56.0535 44.1492 56.0358 44.015 55.9922 43.8884C55.9487 43.7617 55.8801 43.6451 55.7905 43.5454C55.701 43.4458 55.5924 43.3651 55.4711 43.3083C55.3498 43.2514 55.2183 43.2195 55.0844 43.2145C54.9505 43.2094 54.817 43.2313 54.6918 43.2788C54.5665 43.3264 54.4521 43.3986 54.3553 43.4912C53.9895 43.8199 53.5151 44.0015 53.0233 44.0012C52.5882 44.0015 52.1623 43.8757 51.7971 43.6392C51.4319 43.4026 51.143 43.0654 50.9653 42.6682C50.8961 42.4738 50.7683 42.3056 50.5997 42.1866C50.431 42.0677 50.2297 42.0038 50.0233 42.0038C49.817 42.0038 49.6156 42.0677 49.447 42.1866C49.2783 42.3056 49.1506 42.4738 49.0813 42.6682C48.9035 43.0653 48.6146 43.4024 48.2494 43.639C47.8842 43.8756 47.4584 44.0014 47.0233 44.0014C46.5882 44.0014 46.1624 43.8756 45.7973 43.639C45.4321 43.4024 45.1432 43.0653 44.9653 42.6682C44.8961 42.4738 44.7683 42.3056 44.5997 42.1866C44.431 42.0677 44.2297 42.0038 44.0233 42.0038C43.817 42.0038 43.6156 42.0677 43.447 42.1866C43.2783 42.3056 43.1506 42.4738 43.0813 42.6682C42.9035 43.0653 42.6146 43.4024 42.2494 43.639C41.8842 43.8756 41.4584 44.0014 41.0233 44.0014C40.5882 44.0014 40.1624 43.8756 39.7973 43.639C39.4321 43.4024 39.1432 43.0653 38.9653 42.6682C38.8961 42.4738 38.7683 42.3056 38.5997 42.1866C38.431 42.0677 38.2297 42.0038 38.0233 42.0038C37.817 42.0038 37.6156 42.0677 37.447 42.1866C37.2783 42.3056 37.1506 42.4738 37.0813 42.6682C36.9037 43.0654 36.6148 43.4026 36.2496 43.6392C35.8843 43.8757 35.4585 44.0015 35.0233 44.0012C34.5316 44.0015 34.0571 43.8199 33.6913 43.4912C33.5945 43.3986 33.4801 43.3264 33.3549 43.2788C33.2296 43.2313 33.0961 43.2094 32.9623 43.2145C32.8284 43.2195 32.6969 43.2514 32.5756 43.3083C32.4543 43.3651 32.3457 43.4458 32.2561 43.5454C32.1666 43.6451 32.098 43.7617 32.0544 43.8884C32.0108 44.015 31.9931 44.1492 32.0024 44.2828C32.0116 44.4165 32.0477 44.5469 32.1083 44.6663C32.1689 44.7858 32.2529 44.8919 32.3553 44.9782ZM35.0303 41.9472C35.103 41.9345 35.1715 41.9047 35.2303 41.8602C35.4491 41.2962 35.8332 40.8115 36.3324 40.4697C36.8316 40.1279 37.4224 39.945 38.0273 39.945C38.6323 39.945 39.2231 40.1279 39.7223 40.4697C40.2214 40.8115 40.6056 41.2962 40.8243 41.8602C40.8841 41.9012 40.9549 41.9231 41.0273 41.9231C41.0998 41.9231 41.1706 41.9012 41.2303 41.8602C41.4491 41.2962 41.8332 40.8115 42.3324 40.4697C42.8316 40.1279 43.4224 39.945 44.0273 39.945C44.6323 39.945 45.2231 40.1279 45.7223 40.4697C46.2214 40.8115 46.6056 41.2962 46.8243 41.8602C46.8841 41.9012 46.9549 41.9231 47.0273 41.9231C47.0998 41.9231 47.1706 41.9012 47.2303 41.8602C47.4486 41.2965 47.832 40.8118 48.3304 40.4698C48.8287 40.1277 49.4188 39.9442 50.0233 39.9432C50.0823 39.9432 50.1413 39.9432 50.2003 39.9492L44.0383 31.0892C43.5745 30.4344 42.9584 29.9021 42.2431 29.5384C41.5278 29.1746 40.7347 28.9903 39.9323 29.0012H35.0233C34.8952 28.9947 34.767 29.0142 34.6466 29.0585C34.5262 29.1029 34.4159 29.171 34.3225 29.259C34.2291 29.347 34.1545 29.453 34.103 29.5706C34.0516 29.6881 34.0245 29.8149 34.0233 29.9432C34.0233 30.2084 34.1287 30.4628 34.3162 30.6503C34.5038 30.8379 34.7581 30.9432 35.0233 30.9432H39.9323C40.4162 30.9432 40.893 31.0602 41.3218 31.2843C41.7507 31.5084 42.119 31.833 42.3953 32.2302L43.1413 33.1912L32.0233 41.3512C32.5318 41.171 33.0795 41.1313 33.6087 41.2361C34.1379 41.341 34.629 41.5867 35.0303 41.9472Z" fill="white"/>
<defs>
<filter id="filter0_d_15854_3996" x="0" y="0" width="88" height="88" filterUnits="userSpaceOnUse" color-interpolation-filters="sRGB">
<feFlood flood-opacity="0" result="BackgroundImageFix"/>
<feColorMatrix in="SourceAlpha" type="matrix" values="0 0 0 0 0 0 0 0 0 0 0 0 0 0 0 0 0 0 127 0" result="hardAlpha"/>
<feOffset dy="4"/>
<feGaussianBlur stdDeviation="10"/>
<feComposite in2="hardAlpha" operator="out"/>
<feColorMatrix type="matrix" values="0 0 0 0 0 0 0 0 0 0 0 0 0 0 0 0 0 0 0.25 0"/>
<feBlend mode="normal" in2="BackgroundImageFix" result="effect1_dropShadow_15854_3996"/>
<feBlend mode="normal" in="SourceGraphic" in2="effect1_dropShadow_15854_3996" result="shape"/>
</filter>
</defs>
</svg>
