<svg width="32" height="32" viewBox="0 0 32 32" fill="none" xmlns="http://www.w3.org/2000/svg">
<g clip-path="url(#clip0_4681_18060)">
<path d="M13.1486 20.778V13.7152C13.1486 13.0839 12.6369 12.5723 12.0057 12.5723C11.3745 12.5723 10.8628 13.0839 10.8628 13.7152V20.778C9.07756 21.4092 8.14199 23.3681 8.77321 25.1534C9.40442 26.9386 11.3633 27.8742 13.1486 27.243C14.9338 26.6118 15.8694 24.6529 15.2382 22.8676C14.893 21.8913 14.1249 21.1233 13.1486 20.778Z" fill="#057CC3"/>
<path d="M17.7199 18.4114V5.71431C17.7199 2.55841 15.1615 0 12.0056 0C8.84973 0 6.29132 2.55841 6.29132 5.71431V18.4114C3.19838 21.5585 3.24224 26.617 6.38925 29.71C7.47616 30.7782 8.84599 31.5133 10.337 31.8286C10.8822 31.9415 11.4374 31.9989 11.9942 32C16.4084 32.0104 19.9953 28.4404 20.0057 24.0261C20.0106 21.927 19.1895 19.9103 17.7199 18.4114ZM15.6171 28.4229C14.2687 29.5215 12.4954 29.9501 10.7942 29.5886C7.71315 28.9241 5.75422 25.8877 6.41874 22.8067C6.67259 21.6299 7.292 20.5635 8.18853 19.76C8.43756 19.5451 8.5796 19.2318 8.57711 18.9028V5.71431C8.57819 3.82076 10.1141 2.28662 12.0076 2.2877C13.8997 2.28878 15.4332 3.82233 15.4342 5.71431V18.9028C15.4317 19.2317 15.5738 19.5451 15.8228 19.76C18.1665 21.8574 18.3662 25.4577 16.2688 27.8014C16.0683 28.0254 15.8504 28.2332 15.6171 28.4229Z" fill="#858585"/>
<line x1="21" y1="2" x2="28" y2="2" stroke="#858585" stroke-width="2" stroke-linecap="round"/>
<line x1="21" y1="6" x2="26" y2="6" stroke="#858585" stroke-width="2" stroke-linecap="round"/>
<line x1="21" y1="10" x2="23" y2="10" stroke="#858585" stroke-width="2" stroke-linecap="round"/>
</g>
<defs>
<clipPath id="clip0_4681_18060">
<rect width="32" height="32" fill="white"/>
</clipPath>
</defs>
</svg>
