<svg width="20" height="20" viewBox="0 0 20 20" fill="none" xmlns="http://www.w3.org/2000/svg">
<g clip-path="url(#clip0_465_4476)">
<path d="M9.99984 10C12.7573 10 14.9998 7.7575 14.9998 5C14.9998 2.2425 12.7573 0 9.99984 0C7.24234 0 4.99984 2.2425 4.99984 5C4.99984 7.7575 7.24234 10 9.99984 10ZM9.99984 1.66667C11.8382 1.66667 13.3332 3.16167 13.3332 5C13.3332 6.83833 11.8382 8.33333 9.99984 8.33333C8.1615 8.33333 6.6665 6.83833 6.6665 5C6.6665 3.16167 8.1615 1.66667 9.99984 1.66667ZM18.3332 19.1667C18.3332 19.6275 17.9607 20 17.4998 20C17.039 20 16.6665 19.6275 16.6665 19.1667C16.6665 16.845 15.3023 14.835 13.3332 13.8967V15.9767C14.3032 16.3208 14.9998 17.2467 14.9998 18.3333V19.1667C14.9998 19.6275 14.6273 20 14.1665 20C13.7057 20 13.3332 19.6275 13.3332 19.1667V18.3333C13.3332 17.8733 12.9598 17.5 12.4998 17.5C12.0398 17.5 11.6665 17.8733 11.6665 18.3333V19.1667C11.6665 19.6275 11.294 20 10.8332 20C10.3723 20 9.99984 19.6275 9.99984 19.1667V18.3333C9.99984 17.2467 10.6965 16.3208 11.6665 15.9767V13.3933C11.394 13.3542 11.1157 13.3333 10.8332 13.3333H9.1665C8.58734 13.3333 8.02817 13.4183 7.49984 13.5767V16.0575C7.99817 16.3458 8.33317 16.8842 8.33317 17.5008C8.33317 18.4217 7.58734 19.1675 6.6665 19.1675C5.74567 19.1675 4.99984 18.4217 4.99984 17.5008C4.99984 16.8842 5.33484 16.3458 5.83317 16.0575V14.3833C4.32317 15.4392 3.33317 17.19 3.33317 19.1675C3.33317 19.6283 2.96067 20.0008 2.49984 20.0008C2.039 20.0008 1.6665 19.6283 1.6665 19.1675C1.6665 15.0317 5.03067 11.6675 9.1665 11.6675H10.8332C14.969 11.6675 18.3332 15.0308 18.3332 19.1667Z" fill="#008C99"/>
</g>
<defs>
<clipPath id="clip0_465_4476">
<rect width="20" height="20" fill="white"/>
</clipPath>
</defs>
</svg>
