<svg width="32" height="32" viewBox="0 0 32 32" fill="none" xmlns="http://www.w3.org/2000/svg">
<path d="M15.9997 3.95703C15.9996 3.95703 15.9996 3.95703 15.9997 3.95703C11.9675 3.95703 8.18441 5.75309 5.34728 9.01434C5.03984 9.36773 5.03984 9.89359 5.34728 10.247L10.4639 16.1284C10.6423 16.3335 10.9007 16.4512 11.1724 16.4512H20.827C21.0987 16.4512 21.3571 16.3335 21.5354 16.1284L26.6521 10.247C26.9595 9.89359 26.9595 9.36767 26.6521 9.01428C23.8149 5.75308 20.0317 3.95709 15.9997 3.95703ZM15.4479 14.5731L15.9996 13.378L16.5513 14.5731H15.4479ZM20.3992 14.5731H18.6199L16.8522 10.7442C16.6987 10.4117 16.3659 10.1988 15.9996 10.1988C15.6334 10.1988 15.3005 10.4117 15.147 10.7442L13.3793 14.5731H11.6L7.31536 9.648C7.85067 9.09835 8.41866 8.60467 9.01376 8.16871L9.8222 9.13848C10.0079 9.36128 10.2749 9.47622 10.5439 9.47622C10.756 9.47622 10.9692 9.40479 11.1447 9.25843C11.5431 8.92632 11.5968 8.33423 11.2647 7.93589L10.6229 7.16595C12.0135 6.44021 13.511 6.00043 15.0606 5.87378V7.03029C15.0606 7.54889 15.481 7.96932 15.9996 7.96932C16.5182 7.96932 16.9386 7.54889 16.9386 7.03029V5.87378C18.4882 6.00043 19.9857 6.44021 21.3763 7.16595L20.7344 7.93589C20.4023 8.33423 20.4561 8.92638 20.8544 9.25843C21.03 9.40479 21.2432 9.47622 21.4552 9.47622C21.7242 9.47622 21.9912 9.36122 22.177 9.13848L22.9854 8.16871C23.5805 8.60467 24.1485 9.09835 24.6838 9.648L20.3992 14.5731Z" fill="#057CC3"/>
<path d="M29.1694 2.26895C27.8695 0.826974 26.0106 0 24.0692 0H7.93033C5.98904 0 4.13013 0.826974 2.83026 2.26889C1.53039 3.7108 0.899987 5.64527 1.10056 7.57623L2.99879 25.8432C3.3635 29.3531 6.29967 32 9.82855 32H22.1711C25.6999 32 28.636 29.3532 29.0008 25.8432L30.899 7.57629C31.0996 5.64533 30.4691 3.71086 29.1694 2.26895ZM29.0309 7.3821L27.1328 25.6491C26.8678 28.199 24.7347 30.1219 22.1711 30.1219H16.9388V24.4897C16.9388 23.9711 16.5184 23.5507 15.9998 23.5507C15.4812 23.5507 15.0608 23.9711 15.0608 24.4897V30.1219H9.82855C7.26487 30.1219 5.13176 28.1991 4.86677 25.6491L2.96861 7.3821C2.82281 5.97925 3.28081 4.57396 4.22516 3.52638C5.16951 2.47886 6.51997 1.87806 7.93033 1.87806H24.0692C25.4796 1.87806 26.8301 2.47886 27.7744 3.52644C28.7188 4.57396 29.1767 5.97931 29.0309 7.3821Z" fill="#858585"/>
</svg>
